<svg width="652" height="353" xmlns="http://www.w3.org/2000/svg" xmlns:xlink="http://www.w3.org/1999/xlink" overflow="hidden"><defs><clipPath id="clip0"><rect x="186" y="89" width="652" height="353"/></clipPath></defs><g clip-path="url(#clip0)" transform="translate(-186 -89)"><rect x="481" y="222" width="51" height="55" stroke="#000000" stroke-width="2" stroke-miterlimit="8" fill="none"/><text font-family="Cambria Math,Cambria Math_MSFontService,sans-serif" font-weight="400" font-size="19" transform="translate(493.218 243)">π‘‡<tspan font-size="14" x="9.16" y="4">π‘€</tspan><tspan font-size="19" x="5.96664" y="27">2</tspan></text><path d="M493.685 251.418 501.018 251.418 508.351 251.418 515.685 251.418 515.685 252.418 508.351 252.418 501.018 252.418 493.685 252.418Z" fill-rule="evenodd"/><rect x="430" y="121" width="379" height="239" stroke="#000000" stroke-width="2" stroke-miterlimit="8" stroke-dasharray="6 2" fill="none"/><text font-family="Cambria Math,Cambria Math_MSFontService,sans-serif" font-weight="400" font-size="19" transform="translate(195.813 168)">π‘<tspan font-size="19" x="9.24666" y="0">[</tspan>π‘›<tspan font-size="19" x="26.7333" y="0">π‘‡</tspan><tspan font-size="14" x="35.8933" y="3">π‘€</tspan><tspan font-size="19" x="49" y="0">]</tspan></text><path d="M747 244.5C747 233.178 756.402 224 768 224 779.598 224 789 233.178 789 244.5 789 255.822 779.598 265 768 265 756.402 265 747 255.822 747 244.5Z" stroke="#000000" stroke-width="2" stroke-miterlimit="8" fill="none" fill-rule="evenodd"/><path d="M0 0 30.1464 29.0065" stroke="#000000" stroke-width="2" stroke-miterlimit="8" fill="#DEEBF7" fill-rule="evenodd" transform="matrix(-1 0 0 1 783.146 230)"/><path d="M753 230 783.146 259.007" stroke="#000000" stroke-width="2" stroke-miterlimit="8" fill="#DEEBF7" fill-rule="evenodd"/><rect x="592" y="222" width="50" height="55" stroke="#000000" stroke-width="2" stroke-miterlimit="8" fill="none"/><text font-family="Cambria Math,Cambria Math_MSFontService,sans-serif" font-weight="400" font-size="19" transform="translate(603.798 243)">π‘‡<tspan font-size="14" x="9.16003" y="4">π‘€</tspan><tspan font-size="19" x="5.96667" y="27">2</tspan></text><path d="M604.264 251.418 611.598 251.418 618.931 251.418 626.264 251.418 626.264 252.418 618.931 252.418 611.598 252.418 604.264 252.418Z" fill-rule="evenodd"/><path d="M545 178.5C545 167.178 554.402 158 566 158 577.598 158 587 167.178 587 178.5 587 189.822 577.598 199 566 199 554.402 199 545 189.822 545 178.5Z" stroke="#000000" stroke-width="2" stroke-miterlimit="8" fill="none" fill-rule="evenodd"/><path d="M0 0 30.1464 29.0065" stroke="#000000" stroke-width="2" stroke-miterlimit="8" fill="#DEEBF7" fill-rule="evenodd" transform="matrix(-1 0 0 1 581.146 164)"/><path d="M551 164 581.146 193.007" stroke="#000000" stroke-width="2" stroke-miterlimit="8" fill="#DEEBF7" fill-rule="evenodd"/><text font-family="Cambria Math,Cambria Math_MSFontService,sans-serif" font-weight="400" font-size="19" transform="translate(561.177 112)">πΊπ‘π‘π‘‘π‘›π‘’π‘<tspan font-size="19" x="71.08" y="0"> </tspan><tspan font-size="19" x="75.2466" y="0">π‘‡πΈπ·</tspan></text><path d="M398 177 537.615 177 537.615 179 398 179ZM536.282 174 544.282 178 536.282 182Z"/><path d="M0-1 44.438-1 44.438 23.0959 42.438 23.0959 42.438 0 43.438 1 0 1ZM47.438 21.7625 43.438 29.7625 39.438 21.7625Z" transform="matrix(-1.83697e-16 -1 -1 1.83697e-16 616.763 221.438)"/><path d="M219.002 177 261.126 177.074 261.123 179.074 218.998 179ZM259.798 174.071 267.791 178.085 259.784 182.071Z"/><path d="M398 177 507.098 177 507.098 214.771 505.098 214.771 505.098 178 506.098 179 398 179ZM510.098 213.438 506.098 221.438 502.098 213.438Z"/><path d="M532 248 585.22 248 585.22 250 532 250ZM583.887 245 591.887 249 583.887 253Z"/><path d="M0 1-24 1-23 0-23 202.24-24 201.24 59.0007 201.24 59.0007 203.24-25 203.24-25-1 0-1ZM57.6673 198.24 65.6673 202.24 57.6673 206.24Z" transform="matrix(1.83697e-16 1 1 -1.83697e-16 566 158)"/><path d="M532 248 563.178 248 563.178 300.352 562.178 299.352 768.394 299.352 767.394 300.352 767.394 270.903 769.394 270.903 769.394 301.352 561.178 301.352 561.178 249 562.178 250 532 250ZM764.394 272.236 768.394 264.236 772.394 272.236Z"/><text font-family="Calibri,Calibri_MSFontService,sans-serif" font-weight="400" font-size="24" transform="translate(547.939 184)">+<tspan font-size="24" x="25.8607" y="0">-</tspan></text><rect x="510" y="386" width="176" height="55" stroke="#000000" stroke-width="2" stroke-miterlimit="8" fill="none"/><text font-family="Cambria Math,Cambria Math_MSFontService,sans-serif" font-weight="400" font-size="19" transform="translate(548.661 420)">πΏπ‘π‘π‘<tspan font-size="19" x="40.56" y="0"> </tspan><tspan font-size="19" x="44.7267" y="0">πΉπ‘–π‘™π‘΅π‘’π‘</tspan></text><path d="M0 1-46.37 1-45.37 0-45.37 169.031-46.37 168.031 97.2624 168.031 97.2624 170.031-47.37 170.031-47.37-1 0-1ZM95.9291 165.031 103.929 169.031 95.9291 173.031Z" transform="matrix(-1 0 0 1 789.929 244)"/><path d="M509.641 414.194 332 414.194 332 212.667 334 212.667 334 413.194 333 412.194 509.641 412.194ZM329 214 333 206 337 214Z"/><text font-family="Cambria Math,Cambria Math_MSFontService,sans-serif" font-weight="400" font-size="21" transform="translate(340.631 237)">π€<tspan font-size="19" x="105.98" y="-69">π‘</tspan><tspan font-size="19" x="115.227" y="-69">[</tspan><tspan font-size="19" x="121.727" y="-69">π‘›</tspan><tspan font-size="19" x="132.714" y="-69">π‘‡</tspan><tspan font-size="14" x="141.874" y="-66">π‘€</tspan><tspan font-size="19" x="159.127" y="-69">+</tspan><tspan font-size="19" x="177.274" y="-69">π€</tspan><tspan font-size="19" x="186.367" y="-69">]</tspan></text><rect x="268" y="151" width="130" height="55" stroke="#000000" stroke-width="2" stroke-miterlimit="8" fill="none"/><text font-family="Cambria Math,Cambria Math_MSFontService,sans-serif" font-weight="400" font-size="19" transform="translate(277.718 185)">πΌπ‘›π‘΅π‘’π‘π‘π‘π‘™π‘π‘΅π‘π‘<tspan font-size="19" x="311.775" y="146">π‘</tspan><tspan font-size="19" x="321.022" y="146">[</tspan>π‘›<tspan font-size="19" x="338.509" y="146">π‘‡</tspan><tspan font-size="14" x="347.669" y="150">π‘€</tspan><tspan font-size="19" x="364.922" y="146">β’</tspan><tspan font-size="19" x="383.069" y="132">π‘‡</tspan><tspan font-size="14" x="392.229" y="136">π‘€</tspan><tspan font-size="19" x="389.035" y="159">2</tspan></text><path d="M660.887 325.126 682.887 325.126 682.887 326.126 660.887 326.126Z" fill-rule="evenodd"/><text font-family="Cambria Math,Cambria Math_MSFontService,sans-serif" font-weight="400" font-size="19" transform="translate(687.2 331)">+<tspan font-size="19" x="18.1467" y="0">π€</tspan><tspan font-size="19" x="27.24" y="0">]</tspan><tspan font-size="19" x="-91.841" y="-163">π‘</tspan><tspan font-size="19" x="-82.5944" y="-163">[</tspan></text><path d="M663.069 154.005C664.875 154.481 666.262 155.51 667.23 157.09 668.198 158.67 668.682 160.577 668.682 162.809 668.682 165.048 668.199 166.955 667.235 168.529 666.27 170.103 664.881 171.128 663.069 171.604L662.846 170.89C664.275 170.414 665.337 169.474 666.033 168.07 666.729 166.666 667.077 164.881 667.077 162.717 667.077 160.626 666.731 158.89 666.038 157.507 665.345 156.125 664.272 155.196 662.819 154.72ZM618.389 154.005 618.639 154.72C617.192 155.196 616.12 156.125 615.425 157.507 614.729 158.89 614.381 160.626 614.381 162.717 614.381 164.881 614.729 166.666 615.425 168.07 616.12 169.474 617.183 170.414 618.611 170.89L618.389 171.604C616.577 171.128 615.188 170.103 614.223 168.529 613.258 166.955 612.776 165.048 612.776 162.809 612.776 160.577 613.26 158.67 614.228 157.09 615.196 155.51 616.583 154.481 618.389 154.005Z" fill-rule="evenodd"/><text font-family="Cambria Math,Cambria Math_MSFontService,sans-serif" font-weight="400" font-size="19" transform="translate(618.853 168)">π‘›<tspan font-size="19" x="15.1333" y="0">β’</tspan><tspan font-size="19" x="33.28" y="0">1</tspan><tspan font-size="19" x="51.36" y="0">π‘‡</tspan><tspan font-size="14" x="60.52" y="4">π‘€</tspan><tspan font-size="19" x="77.7733" y="0">+</tspan><tspan font-size="19" x="95.92" y="0">π€</tspan><tspan font-size="19" x="105.013" y="0">]</tspan></text></g></svg>