<svg width="736" height="227" xmlns="http://www.w3.org/2000/svg" xmlns:xlink="http://www.w3.org/1999/xlink" overflow="hidden"><defs><clipPath id="clip0"><rect x="112" y="245" width="736" height="227"/></clipPath></defs><g clip-path="url(#clip0)" transform="translate(-112 -245)"><path d="M243 371.5C243 360.178 252.402 351 264 351 275.598 351 285 360.178 285 371.5 285 382.822 275.598 392 264 392 252.402 392 243 382.822 243 371.5Z" stroke="#000000" stroke-width="2" stroke-miterlimit="8" fill="#FBE5D6" fill-rule="evenodd"/><path d="M264 351 264 392.575" stroke="#000000" stroke-width="2" stroke-miterlimit="8" fill="#FBE5D6" fill-rule="evenodd"/><path d="M243 371 284.575 371" stroke="#000000" stroke-width="2" stroke-miterlimit="8" fill="#FBE5D6" fill-rule="evenodd"/><path d="M758.289 349 758.289 276.533 759.289 277.533 114 277.533 115 276.533 115 371.407 114 370.407 131.333 370.407 131.333 372.407 113 372.407 113 275.533 760.289 275.533 760.289 349ZM130 367.407 138 371.407 130 375.407Z"/><text font-family="Cambria Math,Cambria Math_MSFontService,sans-serif" font-weight="400" font-size="19" transform="translate(640.193 462)">𝑖𝑛𝑝𝑢𝑡<tspan font-size="27" x="-280.461" y="-92">…</tspan></text><rect x="138" y="351" width="42" height="41" stroke="#000000" stroke-width="2" stroke-miterlimit="8" fill="#DEEBF7"/><rect x="179" y="351" width="42" height="41" stroke="#000000" stroke-width="2" stroke-miterlimit="8" fill="#DEEBF7"/><rect x="306" y="351" width="41" height="41" stroke="#000000" stroke-width="2" stroke-miterlimit="8" fill="#DEEBF7"/><rect x="395" y="349" width="41" height="42" stroke="#000000" stroke-width="2" stroke-miterlimit="8" fill="#DEEBF7"/><rect x="528" y="349" width="42" height="42" stroke="#000000" stroke-width="2" stroke-miterlimit="8" fill="#DEEBF7"/><rect x="570" y="349" width="41" height="42" stroke="#000000" stroke-width="2" stroke-miterlimit="8" fill="#DEEBF7"/><rect x="611" y="349" width="42" height="42" stroke="#000000" stroke-width="2" stroke-miterlimit="8" fill="#DEEBF7"/><rect x="653" y="349" width="41" height="42" stroke="#000000" stroke-width="2" stroke-miterlimit="8" fill="#DEEBF7"/><text font-family="Cambria Math,Cambria Math_MSFontService,sans-serif" font-weight="400" font-size="19" transform="translate(172.217 412)">𝑋<tspan font-size="14" x="12.4933" y="-7">1</tspan><tspan font-size="19" x="42.5091" y="0">𝑋</tspan><tspan font-size="14" x="55.4024" y="-7">2</tspan><tspan font-size="19" x="169.24" y="0">𝑋</tspan><tspan font-size="14" x="182.134" y="-7">3</tspan><tspan font-size="19" x="253.072" y="0">𝑋</tspan><tspan font-size="14" x="265.565" y="-7">12</tspan><tspan font-size="19" x="386.034" y="0">𝑋</tspan><tspan font-size="14" x="398.528" y="-7">13</tspan><tspan font-size="19" x="431.98" y="0">𝑋</tspan><tspan font-size="14" x="444.473" y="-7">14</tspan><tspan font-size="19" x="472.272" y="0">𝑋</tspan><tspan font-size="14" x="484.766" y="-7">15</tspan><tspan font-size="19" x="511.789" y="0">𝑋</tspan><tspan font-size="14" x="524.282" y="-7">16</tspan></text><path d="M462 370C462 358.402 471.178 349 482.5 349 493.822 349 503 358.402 503 370 503 381.598 493.822 391 482.5 391 471.178 391 462 381.598 462 370Z" stroke="#000000" stroke-width="2" stroke-miterlimit="8" fill="#FBE5D6" fill-rule="evenodd"/><path d="M483 349 483 390.575" stroke="#000000" stroke-width="2" stroke-miterlimit="8" fill="#FBE5D6" fill-rule="evenodd"/><path d="M462 370 503.575 370" stroke="#000000" stroke-width="2" stroke-miterlimit="8" fill="#FBE5D6" fill-rule="evenodd"/><path d="M738 370C738 358.402 747.402 349 759 349 770.598 349 780 358.402 780 370 780 381.598 770.598 391 759 391 747.402 391 738 381.598 738 370Z" stroke="#000000" stroke-width="2" stroke-miterlimit="8" fill="#FBE5D6" fill-rule="evenodd"/><path d="M759 349 759 390.575" stroke="#000000" stroke-width="2" stroke-miterlimit="8" fill="#FBE5D6" fill-rule="evenodd"/><path d="M738 370 779.575 370" stroke="#000000" stroke-width="2" stroke-miterlimit="8" fill="#FBE5D6" fill-rule="evenodd"/><path d="M9.48287e-06-1 37.6182-0.999643 37.6182 1.00036-9.48287e-06 1ZM36.2849-3.99966 44.2848 0.000419947 36.2848 4.00034Z" transform="matrix(1 0 0 -1 694 370)"/><path d="M285 370 298.98 370 298.98 372 285 372ZM297.646 367 305.646 371 297.646 375Z"/><path d="M4.61512e-06-1 16.0818-0.999926 16.0818 1.00007-4.61512e-06 1ZM14.7485-3.99993 22.7485 0.000104987 14.7484 4.00007Z" transform="matrix(1 0 0 -1 221 371)"/><path d="M503 369 521.257 369 521.257 371 503 371ZM519.924 366 527.924 370 519.924 374Z"/><path d="M8.17498e-06-1 19.0183-0.999845 19.0183 1.00016-8.17498e-06 1ZM17.685-3.99986 25.6849 0.000209974 17.6849 4.00014Z" transform="matrix(1 0 0 -1 436 370)"/><path d="M0-1 118.949-1 118.949 72.4292 116.949 72.4292 116.949 0 117.949 1 0 1ZM121.949 71.0958 117.949 79.0958 113.949 71.0958Z" transform="matrix(1 0 0 -1 641 470.096)"/><path d="M265 278 265 344.127 263 344.127 263 278ZM268 342.794 264 350.794 260 342.794Z"/><path d="M484 278 484 344.127 482 344.127 482 278ZM487 342.794 483 350.794 479 342.794Z"/><text font-family="Cambria Math,Cambria Math_MSFontService,sans-serif" font-weight="400" font-size="19" transform="translate(589.318 268)">𝑜𝑢𝑡𝑝𝑢𝑡<tspan font-size="19" x="61.9734" y="0">=</tspan><tspan font-size="19" x="81.16" y="0">𝑋</tspan><tspan font-size="14" x="93.6534" y="-7">16</tspan><tspan font-size="19" x="114.24" y="0">+</tspan><tspan font-size="19" x="132.387" y="0">𝑋</tspan><tspan font-size="14" x="144.88" y="-7">12</tspan><tspan font-size="19" x="165.467" y="0">+</tspan><tspan font-size="19" x="183.613" y="0">𝑋</tspan><tspan font-size="14" x="196.507" y="-7">2</tspan><tspan font-size="19" x="209.26" y="0">+</tspan><tspan font-size="19" x="227.407" y="0">1</tspan></text><path d="M752 276 816.168 276 816.168 278 752 278ZM814.835 273 822.835 277 814.835 281Z"/></g></svg>