<svg width="652" height="354" xmlns="http://www.w3.org/2000/svg" xmlns:xlink="http://www.w3.org/1999/xlink" overflow="hidden"><defs><clipPath id="clip0"><rect x="205" y="8" width="652" height="354"/></clipPath></defs><g clip-path="url(#clip0)" transform="translate(-205 -8)"><rect x="501" y="141" width="50" height="55" stroke="#000000" stroke-width="2" stroke-miterlimit="8" fill="none"/><text font-family="Cambria Math,Cambria Math_MSFontService,sans-serif" font-weight="400" font-size="19" transform="translate(512.791 163)">π‘‡<tspan font-size="14" x="9.16003" y="4">π‘€</tspan><tspan font-size="19" x="5.96667" y="26">2</tspan></text><path d="M513.258 170.846 520.591 170.846 527.924 170.846 535.258 170.846 535.258 171.846 527.924 171.846 520.591 171.846 513.258 171.846Z" fill-rule="evenodd"/><rect x="449" y="41" width="380" height="238" stroke="#000000" stroke-width="2" stroke-miterlimit="8" stroke-dasharray="6 2" fill="none"/><text font-family="Cambria Math,Cambria Math_MSFontService,sans-serif" font-weight="400" font-size="19" transform="translate(215.386 87)">π‘<tspan font-size="19" x="9.24667" y="0">[</tspan>π‘›<tspan font-size="19" x="26.7333" y="0">π‘‡</tspan><tspan font-size="14" x="35.8933" y="4">π‘€</tspan><tspan font-size="19" x="49" y="0">]</tspan></text><path d="M766 163.5C766 152.178 775.626 143 787.5 143 799.374 143 809 152.178 809 163.5 809 174.822 799.374 184 787.5 184 775.626 184 766 174.822 766 163.5Z" stroke="#000000" stroke-width="2" stroke-miterlimit="8" fill="none" fill-rule="evenodd"/><path d="M0 0 30.1464 29.0065" stroke="#000000" stroke-width="2" stroke-miterlimit="8" fill="#DEEBF7" fill-rule="evenodd" transform="matrix(-1 0 0 1 803.146 149)"/><path d="M773 149 803.146 178.007" stroke="#000000" stroke-width="2" stroke-miterlimit="8" fill="#DEEBF7" fill-rule="evenodd"/><rect x="611" y="141" width="51" height="55" stroke="#000000" stroke-width="2" stroke-miterlimit="8" fill="none"/><text font-family="Cambria Math,Cambria Math_MSFontService,sans-serif" font-weight="400" font-size="19" transform="translate(623.371 163)">π‘‡<tspan font-size="14" x="9.15997" y="4">π‘€</tspan><tspan font-size="19" x="5.96667" y="26">2</tspan></text><path d="M623.837 170.847 631.171 170.847 638.504 170.847 645.837 170.847 645.837 171.847 638.504 171.847 631.171 171.847 623.837 171.847Z" fill-rule="evenodd"/><path d="M564 97.5C564 86.1782 573.626 77 585.5 77 597.374 77 607 86.1782 607 97.5 607 108.822 597.374 118 585.5 118 573.626 118 564 108.822 564 97.5Z" stroke="#000000" stroke-width="2" stroke-miterlimit="8" fill="none" fill-rule="evenodd"/><path d="M0 0 30.1464 29.0065" stroke="#000000" stroke-width="2" stroke-miterlimit="8" fill="#DEEBF7" fill-rule="evenodd" transform="matrix(-1 0 0 1 600.146 83)"/><path d="M570 83 600.146 112.007" stroke="#000000" stroke-width="2" stroke-miterlimit="8" fill="#DEEBF7" fill-rule="evenodd"/><text font-family="Cambria Math,Cambria Math_MSFontService,sans-serif" font-weight="400" font-size="19" transform="translate(580.75 32)">πΊπ‘π‘π‘‘π‘›π‘’π‘<tspan font-size="19" x="71.08" y="0"> </tspan><tspan font-size="19" x="75.2466" y="0">π‘‡πΈπ·</tspan></text><path d="M418 97 557.615 97.0001 557.615 99.0001 418 99ZM556.282 94.0001 564.282 98.0001 556.282 102Z"/><path d="M0-1 44.438-1 44.438 23.0959 42.438 23.0959 42.438 0 43.438 1 0 1ZM47.438 21.7625 43.438 29.7625 39.438 21.7625Z" transform="matrix(-1.83697e-16 -1 -1 1.83697e-16 636.763 141.438)"/><path d="M238.002 97 280.126 97.0736 280.123 99.0736 237.998 99ZM278.798 94.0713 286.791 98.0853 278.784 102.071Z"/><path d="M418 97 527.098 97 527.098 134.771 525.098 134.771 525.098 98 526.098 99 418 99ZM530.098 133.438 526.098 141.438 522.098 133.438Z"/><path d="M551 168 604.22 168 604.22 170 551 170ZM602.887 165 610.887 169 602.887 173Z"/><path d="M0 1-24 1-23 0-23 202.24-24 201.24 59.0007 201.24 59.0007 203.24-25 203.24-25-1 0-1ZM57.6673 198.24 65.6673 202.24 57.6673 206.24Z" transform="matrix(1.83697e-16 1 1 -1.83697e-16 586 77)"/><path d="M551 168 582.178 168 582.178 220.352 581.178 219.352 787.394 219.352 786.394 220.352 786.394 190.903 788.394 190.903 788.394 221.352 580.178 221.352 580.178 169 581.178 170 551 170ZM783.394 192.236 787.394 184.236 791.394 192.236Z"/><text font-family="Calibri,Calibri_MSFontService,sans-serif" font-weight="400" font-size="24" transform="translate(567.512 103)">+<tspan font-size="24" x="25.8607" y="0">-</tspan></text><rect x="529" y="305" width="176" height="55" stroke="#000000" stroke-width="2" stroke-miterlimit="8" fill="none"/><text font-family="Cambria Math,Cambria Math_MSFontService,sans-serif" font-weight="400" font-size="19" transform="translate(568.234 339)">πΏπ‘π‘π‘<tspan font-size="19" x="40.56" y="0"> </tspan><tspan font-size="19" x="44.7266" y="0">πΉπ‘–π‘™π‘΅π‘’π‘</tspan></text><path d="M0 1-46.37 1-45.37 0-45.37 169.031-46.37 168.031 97.2624 168.031 97.2624 170.031-47.37 170.031-47.37-1 0-1ZM95.9291 165.031 103.929 169.031 95.9291 173.031Z" transform="matrix(-1 0 0 1 808.929 163)"/><path d="M528.641 333.194 351 333.194 351 131.667 353 131.667 353 332.194 352 331.194 528.641 331.194ZM348 133 352 125 356 133Z"/><text font-family="Cambria Math,Cambria Math_MSFontService,sans-serif" font-weight="400" font-size="21" transform="translate(360.204 156)">π€<tspan font-size="19" x="105.98" y="-69">π‘</tspan><tspan font-size="19" x="115.227" y="-69">[</tspan><tspan font-size="19" x="121.727" y="-69">π‘›</tspan><tspan font-size="19" x="132.714" y="-69">π‘‡</tspan><tspan font-size="14" x="141.874" y="-65">π‘€</tspan><tspan font-size="19" x="159.127" y="-69">+</tspan><tspan font-size="19" x="177.274" y="-69">π€</tspan><tspan font-size="19" x="186.367" y="-69">]</tspan></text><rect x="287" y="70" width="131" height="55" stroke="#000000" stroke-width="2" stroke-miterlimit="8" fill="none"/><text font-family="Cambria Math,Cambria Math_MSFontService,sans-serif" font-weight="400" font-size="19" transform="translate(297.291 105)">πΌπ‘›π‘΅π‘’π‘π‘π‘π‘™π‘π‘΅π‘π‘<tspan font-size="19" x="309.555" y="149">π‘</tspan></text><path d="M735.991 224.152 740.759 224.152 740.759 272.107 735.991 272.107 735.991 271.216 738.95 271.216 738.95 225.043 735.991 225.043ZM621.312 224.152 626.081 224.152 626.081 225.043 623.122 225.043 623.122 271.216 626.081 271.216 626.081 272.107 621.312 272.107Z" fill-rule="evenodd"/><text font-family="Cambria Math,Cambria Math_MSFontService,sans-serif" font-weight="400" font-size="19" transform="translate(626.373 254)">π‘›<tspan font-size="19" x="10.9867" y="0">π‘‡</tspan><tspan font-size="14" x="20.1467" y="3">π‘€</tspan><tspan font-size="19" x="37.4" y="0">β’</tspan><tspan font-size="19" x="55.5467" y="-15">π‘‡</tspan><tspan font-size="14" x="64.7067" y="-11">π‘€</tspan><tspan font-size="19" x="61.5134" y="12">2</tspan></text><path d="M681.46 247.555 703.46 247.555 703.46 248.555 681.46 248.555Z" fill-rule="evenodd"/><text font-family="Cambria Math,Cambria Math_MSFontService,sans-serif" font-weight="400" font-size="19" transform="translate(708.333 254)">+<tspan font-size="19" x="18.1467" y="0">π€</tspan><tspan font-size="19" x="-100.228" y="-166">π‘</tspan><tspan font-size="19" x="-90.981" y="-166">[</tspan></text><path d="M675.815 73.4336C677.621 73.9098 679.008 74.938 679.976 76.5183 680.944 78.0985 681.428 80.005 681.428 82.2378 681.428 84.4767 680.946 86.3832 679.981 87.9572 679.016 89.5313 677.627 90.5564 675.815 91.0327L675.593 90.3183C677.021 89.8421 678.084 88.902 678.779 87.498 679.475 86.094 679.823 84.3097 679.823 82.145 679.823 80.0545 679.477 78.3181 678.784 76.9358 678.091 75.5534 677.018 74.6241 675.565 74.1479ZM631.135 73.4336 631.385 74.1479C629.938 74.6241 628.867 75.5534 628.171 76.9358 627.475 78.3181 627.127 80.0545 627.127 82.145 627.127 84.3097 627.475 86.094 628.171 87.498 628.867 88.902 629.929 89.8421 631.358 90.3183L631.135 91.0327C629.323 90.5564 627.934 89.5313 626.969 87.9572 626.005 86.3832 625.522 84.4767 625.522 82.2378 625.522 80.005 626.006 78.0985 626.974 76.5183 627.942 74.938 629.329 73.9098 631.135 73.4336Z" fill-rule="evenodd"/><text font-family="Cambria Math,Cambria Math_MSFontService,sans-serif" font-weight="400" font-size="19" transform="translate(631.599 88)">π‘›<tspan font-size="19" x="15.1334" y="0">β’</tspan><tspan font-size="19" x="33.28" y="0">1</tspan><tspan font-size="19" x="51.36" y="0">π‘‡</tspan><tspan font-size="14" x="60.52" y="3">π‘€</tspan><tspan font-size="19" x="77.7734" y="0">+</tspan><tspan font-size="19" x="95.92" y="0">π€</tspan><tspan font-family="Calibri,Calibri_MSFontService,sans-serif" font-size="19" x="105.013" y="0">]</tspan></text></g></svg>