<svg width="537" height="291" xmlns="http://www.w3.org/2000/svg" xmlns:xlink="http://www.w3.org/1999/xlink" overflow="hidden"><defs><clipPath id="clip0"><rect x="151" y="311" width="537" height="291"/></clipPath></defs><g clip-path="url(#clip0)" transform="translate(-151 -311)"><path d="M0.00716288-1.49998 330.84 0.0798466 330.826 3.07981-0.00716288 1.49998ZM329.354-2.92728 338.332 1.61564 329.311 6.07261Z" transform="matrix(1 0 0 -1 239.5 554.116)"/><path d="M1.5-7.53621e-07 1.5001 201.465-1.4999 201.465-1.5 7.53621e-07ZM4.5001 199.965 0.000104987 208.965-4.4999 199.965Z" transform="matrix(1 0 0 -1 240.5 554.465)"/><path d="M509.5 408.5C509.5 404.082 513.306 400.5 518 400.5 522.694 400.5 526.5 404.082 526.5 408.5 526.5 412.918 522.694 416.5 518 416.5 513.306 416.5 509.5 412.918 509.5 408.5Z" stroke="#C55A11" stroke-width="1.33333" stroke-miterlimit="8" fill="#ED7D31" fill-rule="evenodd"/><text font-family="Calibri,Calibri_MSFontService,sans-serif" font-weight="400" font-size="21" transform="translate(587.133 559)">I<tspan font-size="21" x="-353.991" y="-221">Q</tspan></text><path d="M0.553215-1.02716 260.269 138.852 259.162 140.906-0.553215 1.02716ZM261.704 133.378 270.281 145.57 255.381 145.117Z" fill="#ED7D31" transform="matrix(1 0 0 -1 239 553.57)"/><path d="M459.5 492.5C459.5 488.082 463.082 484.5 467.5 484.5 471.918 484.5 475.5 488.082 475.5 492.5 475.5 496.918 471.918 500.5 467.5 500.5 463.082 500.5 459.5 496.918 459.5 492.5Z" stroke="#002060" stroke-width="1.33333" stroke-miterlimit="8" fill="#0070C0" fill-rule="evenodd"/><path d="M0.319868-1.12196 204.806 57.1767 204.167 59.4206-0.319868 1.12196ZM205.032 51.5218 216.027 61.5887 201.376 64.3442Z" fill="#0070C0" transform="matrix(1 0 0 -1 243 553.589)"/><path d="M0.98394-0.626875 39.0445 59.1128 37.0766 60.3666-0.98394 0.626875ZM42.9667 55.0331 44.5084 69.8603 31.7216 62.1974Z" fill="#00B050" transform="matrix(1 0 0 -1 473 485.86)"/><text fill="#00B050" font-family="Calibri,Calibri_MSFontService,sans-serif" font-weight="400" font-size="21" transform="translate(540.895 451)">Error<tspan font-size="21" x="48.82" y="0">vector</tspan></text><path d="M0 0 0.190341 152.652" stroke="#7F7F7F" stroke-width="2" stroke-miterlimit="8" stroke-dasharray="8 6" fill="none" fill-rule="evenodd" transform="matrix(-1 0 0 1 517.19 416)"/><path d="M467 500 467 572.704" stroke="#7F7F7F" stroke-width="2" stroke-miterlimit="8" stroke-dasharray="8 6" fill="none" fill-rule="evenodd"/><path d="M0 0 285.987 0.983202" stroke="#7F7F7F" stroke-width="2" stroke-miterlimit="8" stroke-dasharray="8 6" fill="none" fill-rule="evenodd" transform="matrix(-1 0 0 1 508.987 408)"/><path d="M0 0 238.784 1.05984" stroke="#7F7F7F" stroke-width="2" stroke-miterlimit="8" stroke-dasharray="8 6" fill="none" fill-rule="evenodd" transform="matrix(-1 0 0 1 459.784 492)"/><text fill="#0070C0" font-family="Calibri,Calibri_MSFontService,sans-serif" font-weight="400" font-size="21" transform="translate(540.895 375)">Wanted<tspan font-size="21" x="77.8333" y="0">IQ</tspan><tspan fill="#ED7D31" font-size="21" x="0" y="38">Measured</tspan><tspan fill="#ED7D31" font-size="21" x="92.3867" y="38">IQ</tspan></text><path d="M474.167 571.167 511.008 571.167 511.008 571.833 474.167 571.833ZM475.5 575.5 467.5 571.5 475.5 567.5ZM509.675 567.5 517.675 571.5 509.675 575.5Z"/><path d="M0.333342 6.66663 0.33343 76.331-0.333237 76.331-0.333325 6.66663ZM-3.99999 8 0 0 4.00001 7.99999ZM4.00009 74.9977 0.000104987 82.9977-3.99991 74.9977Z" transform="matrix(1 0 0 -1 223.5 492.498)"/><text font-family="Cambria Math,Cambria Math_MSFontService,sans-serif" font-weight="400" font-size="21" transform="translate(476.258 590)">ğ¼<tspan font-size="15" x="6.92001" y="4">ğ‘’ğ‘Ÿğ‘Ÿ</tspan><tspan font-size="21" x="-292.342" y="-138">ğ‘„</tspan><tspan font-size="15" x="-278.522" y="-134">ğ‘’ğ‘Ÿğ‘Ÿ</tspan></text></g></svg>