<svg width="454" height="339" xmlns="http://www.w3.org/2000/svg" xmlns:xlink="http://www.w3.org/1999/xlink" overflow="hidden"><defs><clipPath id="clip0"><rect x="559" y="344" width="454" height="339"/></clipPath></defs><g clip-path="url(#clip0)" transform="translate(-559 -344)"><path d="M1-3.47222e-07 1.0001 295.695-0.999897 295.695-1 3.47222e-07ZM4.0001 294.362 0.000104987 302.362-3.9999 294.362Z" transform="matrix(6.12323e-17 1 1 -6.12323e-17 563 529)"/><path d="M1-3.47222e-07 1.0001 295.695-0.999897 295.695-1 3.47222e-07ZM4.0001 294.362 0.000104987 302.362-3.9999 294.362Z" transform="matrix(1 0 0 -1 710 678.362)"/><path d="M596 530C596 465.935 646.368 414 708.5 414 770.632 414 821 465.935 821 530 821 594.065 770.632 646 708.5 646 646.368 646 596 594.065 596 530Z" stroke="#7F7F7F" stroke-width="2" stroke-miterlimit="8" fill="none" fill-rule="evenodd"/><path d="M783.5 448C783.5 444.962 785.963 442.5 789 442.5 792.038 442.5 794.5 444.962 794.5 448 794.5 451.038 792.038 453.5 789 453.5 785.963 453.5 783.5 451.038 783.5 448Z" stroke="#C00000" stroke-width="1.33333" stroke-miterlimit="8" fill="#FF0000" fill-rule="evenodd"/><text font-family="Calibri,Calibri_MSFontService,sans-serif" font-weight="400" font-size="19" transform="translate(825.735 524)">+<tspan font-size="19" x="9.33337" y="0">1</tspan><tspan font-size="19" x="-253.507" y="0">-</tspan><tspan font-size="19" x="-247.84" y="0">1</tspan><tspan font-family="Cambria Math,Cambria Math_MSFontService,sans-serif" font-size="21" x="45.5357" y="9">𝐼</tspan><tspan font-family="Cambria Math,Cambria Math_MSFontService,sans-serif" font-size="21" x="-123.121" y="-155">𝑄</tspan><tspan font-size="19" x="-111.415" y="141">-</tspan><tspan font-size="19" x="-105.748" y="141">1</tspan><tspan font-size="19" x="-108.286" y="-119">+</tspan><tspan font-size="19" x="-98.9524" y="-119">1</tspan></text><path d="M0.727365-0.686251 70.2388 72.9896 68.7841 74.3621-0.727365 0.686251ZM71.5059 69.961 74.0864 78.5249 65.6869 75.451Z" transform="matrix(1 0 0 -1 710 529.525)"/><path d="M0 0 0.0377953 75.7811" stroke="#7F7F7F" stroke-width="2" stroke-miterlimit="8" stroke-dasharray="6 2" fill="none" fill-rule="evenodd" transform="matrix(-1 0 0 1 788.038 453)"/><path d="M710 447 782.426 447" stroke="#7F7F7F" stroke-width="2" stroke-miterlimit="8" stroke-dasharray="6 2" fill="none" fill-rule="evenodd"/><text fill="#FF0000" font-family="Cambria Math,Cambria Math_MSFontService,sans-serif" font-weight="400" font-size="21" transform="translate(797.867 444)">𝑆𝑦𝑚𝑏𝑜𝑙<tspan font-size="21" x="71.3467" y="0"> </tspan><tspan fill="#000000" font-size="21" x="76.0134" y="0">𝑆</tspan><tspan fill="#000000" font-size="21" x="93.6934" y="0">=</tspan><tspan fill="#000000" font-size="21" x="115.62" y="0">𝑋</tspan><tspan fill="#000000" font-size="15" x="128.513" y="4">𝐼</tspan><tspan fill="#000000" font-size="21" x="140.8" y="0">+</tspan><tspan fill="#000000" font-size="21" x="161.54" y="0">𝑗</tspan><tspan fill="#000000" font-size="21" x="169.573" y="0">𝑋</tspan><tspan fill="#000000" font-size="15" x="182.467" y="4">𝑄</tspan></text><text font-family="Cambria Math,Cambria Math_MSFontService,sans-serif" font-weight="400" font-size="21" transform="matrix(0.70132 -0.712846 0.712846 0.70132 741.828 491)">𝐴</text><text font-family="Cambria Math,Cambria Math_MSFontService,sans-serif" font-weight="400" font-size="21" transform="translate(778.851 547)">𝑋<tspan font-size="15" x="12.8934" y="4">𝐼</tspan><tspan font-size="21" x="-95.9958" y="-93">𝑋</tspan><tspan font-size="15" x="-83.1025" y="-88">𝑄</tspan></text><path d="M725 514C726.83 514.632 728.66 515.263 729.949 516.947 731.237 518.632 732.268 521.93 732.732 524.105 733.196 526.281 732.964 528.14 732.732 530" stroke="#000000" stroke-width="2" stroke-miterlimit="8" fill="none" fill-rule="evenodd"/><text font-family="Cambria Math,Cambria Math_MSFontService,sans-serif" font-weight="400" font-size="21" transform="translate(735.262 523)">Φ</text></g></svg>