<svg width="308" height="162" xmlns="http://www.w3.org/2000/svg" xmlns:xlink="http://www.w3.org/1999/xlink" overflow="hidden"><defs><clipPath id="clip0"><rect x="368" y="324" width="308" height="162"/></clipPath></defs><g clip-path="url(#clip0)" transform="translate(-368 -324)"><path d="M0.666667-5.50064e-07 0.666766 120.575-0.666567 120.575-0.666667 5.50064e-07ZM4.0001 119.242 0.000104987 127.242-3.9999 119.242Z" transform="matrix(1 0 0 -1 512.5 459.742)"/><path d="M368.5 459.833 649.389 459.833 649.389 461.167 368.5 461.167ZM648.056 456.5 656.056 460.5 648.056 464.5Z"/><text font-family="Cambria Math,Cambria Math_MSFontService,sans-serif" font-weight="400" font-size="19" transform="translate(662.331 466)">𝑓<tspan font-size="19" x="-169.104" y="15">0</tspan><tspan font-size="19" x="-158.77" y="15"> </tspan><tspan font-size="19" x="-154.604" y="15">𝐻𝑧</tspan></text><path d="M478.5 389.1 546.5 371.5 546.5 459.5 478.5 459.5Z" stroke="#2F528F" stroke-width="1.33333" stroke-miterlimit="8" fill="#5B9BD5" fill-rule="evenodd" fill-opacity="0.501961"/></g></svg>