<svg width="770" height="142" xmlns="http://www.w3.org/2000/svg" xmlns:xlink="http://www.w3.org/1999/xlink" overflow="hidden"><defs><clipPath id="clip0"><rect x="115" y="471" width="770" height="142"/></clipPath></defs><g clip-path="url(#clip0)" transform="translate(-115 -471)"><rect x="217" y="538" width="152" height="74" stroke="#000000" stroke-width="2" stroke-miterlimit="8" fill="none"/><text font-family="Cambria Math,Cambria Math_MSFontService,sans-serif" font-weight="400" font-size="19" transform="translate(238.87 581)">𝑇𝑟𝑎𝑛𝑠𝑚𝑖𝑡𝑡𝑒𝑟</text><rect x="634" y="537" width="151" height="74" stroke="#000000" stroke-width="2" stroke-miterlimit="8" fill="none"/><text font-family="Cambria Math,Cambria Math_MSFontService,sans-serif" font-weight="400" font-size="19" transform="translate(670.749 581)">𝑅𝑒𝑐𝑒𝑖𝑣𝑒𝑟</text><path d="M0 0 46.8206 0 46.8206 94.6599" stroke="#000000" stroke-width="2" stroke-miterlimit="8" fill="none" fill-rule="evenodd" transform="matrix(1 0 0 -1 369 574.66)"/><path d="M634.064 574.177 577 574.177 577 480" stroke="#000000" stroke-width="2" stroke-miterlimit="8" fill="none" fill-rule="evenodd"/><path d="M434 480 415.5 505 397 480Z" stroke="#000000" stroke-width="2" stroke-miterlimit="8" fill="none" fill-rule="evenodd"/><path d="M595 479 577 504 559 479Z" stroke="#000000" stroke-width="2" stroke-miterlimit="8" fill="none" fill-rule="evenodd"/><text font-family="Cambria Math,Cambria Math_MSFontService,sans-serif" font-weight="400" font-size="19" transform="translate(458.696 561)">𝐶ℎ𝑎𝑛𝑛𝑒𝑙</text><path d="M447.212 489.072 452.357 482.483 455.035 479.487 457.86 476.855 460.847 474.647 464.084 472.995 467.573 472.123 471.311 472.19 473.391 472.675 475.427 473.625 479.603 476.387 483.918 480.068 488.311 484.21 488.301 484.201 492.864 488.388 492.812 488.344 497.5 492.094 497.406 492.028 502.094 494.965 501.971 494.9 504.346 495.962 504.192 495.908 506.567 496.533 506.416 496.505 511.228 497.005 511.087 497.001 515.962 496.813 515.83 496.827 520.892 495.952 520.812 495.97 525.874 494.657 525.816 494.674 531.003 492.987 530.936 493.011 535.597 491.119 536.349 492.972 531.656 494.877 526.405 496.585 521.273 497.916 516.105 498.809 511.092 499.002 506.133 498.487 503.604 497.821 501.091 496.697 496.295 493.692 491.536 489.885 486.944 485.67 482.564 481.54 482.601 481.573 478.351 477.948 478.448 478.022 474.386 475.334 474.515 475.406 472.64 474.531 472.835 474.599 470.96 474.161 471.17 474.187 467.67 474.125 467.93 474.095 464.68 474.908 464.892 474.828 461.829 476.391 461.969 476.304 459.094 478.429 459.182 478.357 456.432 480.919 456.496 480.854 453.871 483.791 453.913 483.741 448.788 490.303ZM532.118 486.446 547 487.312 537.377 498.698Z"/><path d="M152 537 152 610.747" stroke="#000000" stroke-width="2" stroke-miterlimit="8" fill="none" fill-rule="evenodd"/><path d="M115 574 188.747 574" stroke="#000000" stroke-width="2" stroke-miterlimit="8" fill="none" fill-rule="evenodd"/><path d="M168.5 552C168.5 551.172 169.395 550.5 170.5 550.5 171.605 550.5 172.5 551.172 172.5 552 172.5 552.828 171.605 553.5 170.5 553.5 169.395 553.5 168.5 552.828 168.5 552Z" stroke="#C00000" stroke-width="1.33333" stroke-miterlimit="8" fill="#FF0000" fill-rule="evenodd"/><path d="M847 537 847 610.747" stroke="#000000" stroke-width="2" stroke-miterlimit="8" fill="none" fill-rule="evenodd"/><path d="M810 574 883.747 574" stroke="#000000" stroke-width="2" stroke-miterlimit="8" fill="none" fill-rule="evenodd"/><path d="M863.5 552C863.5 551.172 864.172 550.5 865 550.5 865.828 550.5 866.5 551.172 866.5 552 866.5 552.828 865.828 553.5 865 553.5 864.172 553.5 863.5 552.828 863.5 552Z" stroke="#C00000" stroke-width="1.33333" stroke-miterlimit="8" fill="#FF0000" fill-rule="evenodd"/><path d="M867.5 547C867.5 546.172 868.396 545.5 869.5 545.5 870.605 545.5 871.5 546.172 871.5 547 871.5 547.828 870.605 548.5 869.5 548.5 868.396 548.5 867.5 547.828 867.5 547Z" stroke="#C55A11" stroke-width="1.33333" stroke-miterlimit="8" fill="#ED7D31" fill-rule="evenodd"/><path d="M869.5 553.5C869.5 552.396 870.172 551.5 871 551.5 871.828 551.5 872.5 552.396 872.5 553.5 872.5 554.605 871.828 555.5 871 555.5 870.172 555.5 869.5 554.605 869.5 553.5Z" stroke="#C55A11" stroke-width="1.33333" stroke-miterlimit="8" fill="#ED7D31" fill-rule="evenodd"/><path d="M863.5 559.5C863.5 558.396 864.396 557.5 865.5 557.5 866.605 557.5 867.5 558.396 867.5 559.5 867.5 560.605 866.605 561.5 865.5 561.5 864.396 561.5 863.5 560.605 863.5 559.5Z" stroke="#C55A11" stroke-width="1.33333" stroke-miterlimit="8" fill="#ED7D31" fill-rule="evenodd"/><path d="M861.5 544.5C861.5 543.396 862.172 542.5 863 542.5 863.828 542.5 864.5 543.396 864.5 544.5 864.5 545.605 863.828 546.5 863 546.5 862.172 546.5 861.5 545.605 861.5 544.5Z" stroke="#C55A11" stroke-width="1.33333" stroke-miterlimit="8" fill="#ED7D31" fill-rule="evenodd"/><path d="M857.5 550C857.5 549.172 858.396 548.5 859.5 548.5 860.605 548.5 861.5 549.172 861.5 550 861.5 550.828 860.605 551.5 859.5 551.5 858.396 551.5 857.5 550.828 857.5 550Z" stroke="#C55A11" stroke-width="1.33333" stroke-miterlimit="8" fill="#ED7D31" fill-rule="evenodd"/><path d="M857.5 555.5C857.5 554.396 858.172 553.5 859 553.5 859.828 553.5 860.5 554.396 860.5 555.5 860.5 556.605 859.828 557.5 859 557.5 858.172 557.5 857.5 556.605 857.5 555.5Z" stroke="#C55A11" stroke-width="1.33333" stroke-miterlimit="8" fill="#ED7D31" fill-rule="evenodd"/></g></svg>