<svg width="578" height="265" xmlns="http://www.w3.org/2000/svg" xmlns:xlink="http://www.w3.org/1999/xlink" overflow="hidden"><defs><clipPath id="clip0"><rect x="44" y="38" width="578" height="265"/></clipPath></defs><g clip-path="url(#clip0)" transform="translate(-44 -38)"><path d="M0.00477526-0.999989 331.671 0.583821 331.661 2.5838-0.00477526 0.999989ZM330.352-2.42251 338.332 1.61564 330.313 5.57739Z" transform="matrix(1 0 0 -1 132 255.616)"/><path d="M1-5.72459e-07 1.0001 176.73-0.999899 176.73-1 5.72459e-07ZM4.0001 175.396 0.000104987 183.396-3.9999 175.396Z" transform="matrix(1 0 0 -1 133 255.396)"/><path d="M403.5 107.5C403.5 104.186 405.962 101.5 409 101.5 412.038 101.5 414.5 104.186 414.5 107.5 414.5 110.814 412.038 113.5 409 113.5 405.962 113.5 403.5 110.814 403.5 107.5Z" stroke="#C55A11" stroke-width="1.33333" stroke-miterlimit="8" fill="#ED7D31" fill-rule="evenodd"/><text font-family="Cambria Math,Cambria Math_MSFontService,sans-serif" font-weight="400" font-size="21" transform="translate(482.171 261)">πΌ<tspan font-size="21" x="-355.826" y="-198">π‘„</tspan></text><path d="M0.480716-0.876877 260.24 141.526 259.278 143.28-0.480716 0.876877ZM261.794 135.917 270.281 148.172 255.385 147.608Z" fill="#ED7D31" transform="matrix(1 0 0 -1 132 255.172)"/><path d="M352.5 191.5C352.5 188.186 355.186 185.5 358.5 185.5 361.814 185.5 364.5 188.186 364.5 191.5 364.5 194.814 361.814 197.5 358.5 197.5 355.186 197.5 352.5 194.814 352.5 191.5Z" stroke="#002060" stroke-width="1.33333" stroke-miterlimit="8" fill="#0070C0" fill-rule="evenodd"/><path d="M0.284835-0.958576 204.808 59.8144 204.239 61.7316-0.284835 0.958576ZM205.145 54.0028 216.027 64.1911 201.347 66.7838Z" fill="#0070C0" transform="matrix(1 0 0 -1 136 255.191)"/><path d="M0.8494-0.52775 40.6824 63.5824 38.9836 64.6379-0.8494 0.52775ZM44.792 59.4592 46.166 74.3029 33.4666 66.4959Z" fill="#FFC000" transform="matrix(1 0 0 -1 362 187.303)"/><text fill="#FFC000" font-family="Cambria Math,Cambria Math_MSFontService,sans-serif" font-weight="400" font-size="21" transform="translate(433.94 152)">πΈπ‘π‘π‘π‘<tspan font-size="21" x="55.6333" y="0"> </tspan><tspan font-size="21" x="60.3" y="0">π‘£π‘’π‘π‘΅π‘π‘</tspan></text><path d="M408 113 410.154 270.857" stroke="#7F7F7F" stroke-width="2" stroke-miterlimit="8" stroke-dasharray="8 6" fill="none" fill-rule="evenodd"/><path d="M358 197 360.344 274.909" stroke="#7F7F7F" stroke-width="2" stroke-miterlimit="8" stroke-dasharray="8 6" fill="none" fill-rule="evenodd"/><path d="M0 0 285.987 3.58562" stroke="#7F7F7F" stroke-width="2" stroke-miterlimit="8" stroke-dasharray="8 6" fill="none" fill-rule="evenodd" transform="matrix(-1 0 0 1 402.987 107)"/><path d="M0 0 238.784 3.66226" stroke="#7F7F7F" stroke-width="2" stroke-miterlimit="8" stroke-dasharray="8 6" fill="none" fill-rule="evenodd" transform="matrix(-1 0 0 1 352.784 191)"/><text fill="#0070C0" font-family="Cambria Math,Cambria Math_MSFontService,sans-serif" font-weight="400" font-size="21" transform="translate(433.94 77)">π‘π‘π‘›π‘΅π‘’π‘‘<tspan font-size="21" x="76.5133" y="0"> </tspan><tspan font-size="21" x="81.18" y="0"> </tspan><tspan font-size="21" x="85.8466" y="0">π‘ π‘¦π‘π‘π‘π‘™</tspan><tspan fill="#ED7D31" font-size="21" x="0" y="38">π‘€π‘’π‘π‘ π‘Άπ‘π‘’π‘‘</tspan><tspan fill="#ED7D31" font-size="21" x="96.5133" y="38"> </tspan><tspan fill="#ED7D31" font-size="21" x="101.18" y="38">π‘ π‘¦π‘π‘π‘π‘™</tspan></text><path d="M367.167 273.167 404.008 273.167 404.008 273.833 367.167 273.833ZM368.5 277.5 360.5 273.5 368.5 269.5ZM402.675 269.5 410.675 273.5 402.675 277.5Z"/><path d="M0.333342 6.66663 0.33343 76.331-0.333237 76.331-0.333325 6.66663ZM-3.99999 8 0 0 4.00001 7.99999ZM4.00009 74.9977 0.000104987 82.9977-3.99991 74.9977Z" transform="matrix(1 0 0 -1 117.5 194.498)"/><text font-family="Cambria Math,Cambria Math_MSFontService,sans-serif" font-weight="400" font-size="21" transform="translate(369.303 292)">πΌ<tspan font-size="15" x="6.91998" y="4">π‘’π‘π‘</tspan><tspan font-size="21" x="-292.342" y="-139">π‘„</tspan><tspan font-size="15" x="-278.522" y="-134">π‘’π‘π‘</tspan></text></g></svg>