<svg width="308" height="163" xmlns="http://www.w3.org/2000/svg" xmlns:xlink="http://www.w3.org/1999/xlink" overflow="hidden"><defs><clipPath id="clip0"><rect x="368" y="46" width="308" height="163"/></clipPath></defs><g clip-path="url(#clip0)" transform="translate(-368 -46)"><path d="M0.666667-5.50064e-07 0.666766 120.575-0.666567 120.575-0.666667 5.50064e-07ZM4.0001 119.242 0.000104987 127.242-3.9999 119.242Z" transform="matrix(1 0 0 -1 512.5 182.742)"/><path d="M368.5 182.833 649.389 182.833 649.389 184.167 368.5 184.167ZM648.056 179.5 656.056 183.5 648.056 187.5Z"/><text font-family="Cambria Math,Cambria Math_MSFontService,sans-serif" font-weight="400" font-size="19" transform="translate(662.331 189)">𝑓<tspan font-size="19" x="-169.104" y="15">0</tspan><tspan font-size="19" x="-158.77" y="15"> </tspan><tspan font-size="19" x="-154.604" y="15">𝐻𝑧</tspan></text><path d="M512.5 112.1 546.5 94.5001 546.5 182.5 512.5 182.5Z" stroke="#2F528F" stroke-width="1.33333" stroke-miterlimit="8" fill="#5B9BD5" fill-rule="evenodd" fill-opacity="0.501961"/><path d="M0 17.6 34 0 34 88 0 88Z" stroke="#2F528F" stroke-width="1.33333" stroke-miterlimit="8" fill="#5B9BD5" fill-rule="evenodd" fill-opacity="0.501961" transform="matrix(-1 0 0 1 512.5 94.5001)"/></g></svg>