<svg width="400" height="163" xmlns="http://www.w3.org/2000/svg" xmlns:xlink="http://www.w3.org/1999/xlink" overflow="hidden"><defs><clipPath id="clip0"><rect x="584" y="60" width="400" height="163"/></clipPath></defs><g clip-path="url(#clip0)" transform="translate(-584 -60)"><path d="M0.666667-5.50064e-07 0.666766 120.575-0.666567 120.575-0.666667 5.50064e-07ZM4.0001 119.242 0.000104987 127.242-3.9999 119.242Z" transform="matrix(1 0 0 -1 640.5 196.742)"/><path d="M0.000201101-0.666667 361.56-0.557602 361.56 0.775732-0.000201101 0.666667ZM360.228-3.89134 368.227 0.111076 360.226 4.10866Z" transform="matrix(1 0 0 -1 585.5 196.611)"/><text font-family="Cambria Math,Cambria Math_MSFontService,sans-serif" font-weight="400" font-size="19" transform="translate(970.302 202)">𝑓<tspan font-size="19" x="-349.079" y="15">0</tspan><tspan font-size="19" x="-338.745" y="15"> </tspan><tspan font-size="19" x="-334.579" y="15">𝐻𝑧</tspan></text><path d="M866.5 125.3 900.5 107.5 900.5 196.5 866.5 196.5Z" stroke="#2F528F" stroke-width="1.33333" stroke-miterlimit="8" fill="#5B9BD5" fill-rule="evenodd" fill-opacity="0.501961"/><path d="M0 17.8 34 0 34 89 0 89Z" stroke="#2F528F" stroke-width="1.33333" stroke-miterlimit="8" fill="#5B9BD5" fill-rule="evenodd" fill-opacity="0.501961" transform="matrix(-1 0 0 1 758.5 107.5)"/><text font-family="Cambria Math,Cambria Math_MSFontService,sans-serif" font-weight="400" font-size="19" transform="translate(800.778 217)">𝜔<tspan font-size="14" x="13.5" y="4">0</tspan><tspan font-size="19" x="-92.4975" y="0">𝜔</tspan><tspan font-size="14" x="-78.9975" y="4">0</tspan><tspan font-size="19" x="-66.2441" y="0">−</tspan><tspan font-size="19" x="-48.0975" y="0">𝜔</tspan><tspan font-size="14" x="-34.5975" y="4">𝐼</tspan><tspan font-size="19" x="50.0839" y="0">𝜔</tspan><tspan font-size="14" x="63.5839" y="4">0</tspan><tspan font-size="19" x="76.3373" y="0">+</tspan><tspan font-size="19" x="94.4839" y="0">𝜔</tspan><tspan font-size="14" x="107.984" y="4">𝐼</tspan></text><path d="M0.666667-4.3927e-06 0.666728 9.26687-0.666606 9.26688-0.666667 4.3927e-06ZM4.00005 7.93352 0.000104987 15.9335-3.99995 7.93357Z" transform="matrix(1 0 0 -1 811.5 196.434)"/></g></svg>