<svg width="334" height="346" xmlns="http://www.w3.org/2000/svg" xmlns:xlink="http://www.w3.org/1999/xlink" overflow="hidden"><defs><clipPath id="clip0"><rect x="743" y="72" width="334" height="346"/></clipPath></defs><g clip-path="url(#clip0)" transform="translate(-743 -72)"><path d="M1-3.47222e-07 1.0001 295.695-0.999897 295.695-1 3.47222e-07ZM4.0001 294.362 0.000104987 302.362-3.9999 294.362Z" transform="matrix(6.12323e-17 1 1 -6.12323e-17 747 264)"/><path d="M1-3.47222e-07 1.0001 295.695-0.999897 295.695-1 3.47222e-07ZM4.0001 294.362 0.000104987 302.362-3.9999 294.362Z" transform="matrix(1 0 0 -1 894 413.362)"/><path d="M780 265C780 200.935 830.368 149 892.5 149 954.632 149 1005 200.935 1005 265 1005 329.065 954.632 381 892.5 381 830.368 381 780 329.065 780 265Z" stroke="#7F7F7F" stroke-width="2" stroke-miterlimit="8" fill="none" fill-rule="evenodd"/><path d="M967.5 183C967.5 179.962 969.963 177.5 973 177.5 976.038 177.5 978.5 179.962 978.5 183 978.5 186.038 976.038 188.5 973 188.5 969.963 188.5 967.5 186.038 967.5 183Z" stroke="#C00000" stroke-width="1.33333" stroke-miterlimit="8" fill="#FF0000" fill-rule="evenodd"/><text font-family="Calibri,Calibri_MSFontService,sans-serif" font-weight="400" font-size="19" transform="translate(1009.69 250)">+<tspan font-size="19" x="9.33337" y="0">1</tspan><tspan font-size="19" x="-253.507" y="0">-</tspan><tspan font-size="19" x="-247.84" y="0">1</tspan><tspan font-family="Cambria Math,Cambria Math_MSFontService,sans-serif" font-size="21" x="45.5358" y="17">𝐼</tspan><tspan font-family="Cambria Math,Cambria Math_MSFontService,sans-serif" font-size="21" x="-123.121" y="-152">𝑄</tspan></text><path d="M805.5 183.5C805.5 180.186 807.963 177.5 811 177.5 814.038 177.5 816.5 180.186 816.5 183.5 816.5 186.814 814.038 189.5 811 189.5 807.963 189.5 805.5 186.814 805.5 183.5Z" stroke="#C00000" stroke-width="1.33333" stroke-miterlimit="8" fill="#FF0000" fill-rule="evenodd"/><path d="M805.5 343C805.5 339.962 807.963 337.5 811 337.5 814.038 337.5 816.5 339.962 816.5 343 816.5 346.038 814.038 348.5 811 348.5 807.963 348.5 805.5 346.038 805.5 343Z" stroke="#C00000" stroke-width="1.33333" stroke-miterlimit="8" fill="#FF0000" fill-rule="evenodd"/><path d="M967.5 343C967.5 339.962 969.963 337.5 973 337.5 976.038 337.5 978.5 339.962 978.5 343 978.5 346.038 976.038 348.5 973 348.5 969.963 348.5 967.5 346.038 967.5 343Z" stroke="#C00000" stroke-width="1.33333" stroke-miterlimit="8" fill="#FF0000" fill-rule="evenodd"/><text font-family="Calibri,Calibri_MSFontService,sans-serif" font-weight="400" font-size="19" transform="translate(898.279 400)">-<tspan font-size="19" x="5.66663" y="0">1</tspan><tspan font-size="19" x="3.12927" y="-260">+</tspan><tspan font-size="19" x="12.4626" y="-260">1</tspan><tspan font-size="19" x="79.533" y="-224">‘00’</tspan><tspan font-size="19" x="-116.211" y="-228">‘01’</tspan><tspan font-size="19" x="-119.125" y="-34">‘1</tspan><tspan font-size="19" x="-104.958" y="-34">1</tspan>’<tspan font-size="19" x="78.8098" y="-35">‘</tspan><tspan font-size="19" x="83.4765" y="-35">1</tspan>0’</text></g></svg>