<svg width="731" height="220" xmlns="http://www.w3.org/2000/svg" xmlns:xlink="http://www.w3.org/1999/xlink" overflow="hidden"><defs><clipPath id="clip0"><rect x="27" y="157" width="731" height="220"/></clipPath></defs><g clip-path="url(#clip0)" transform="translate(-27 -157)"><path d="M0.666667-4.362e-07 0.666767 153.79-0.666566 153.79-0.666667 4.362e-07ZM4.0001 152.457 0.000104987 160.457-3.9999 152.457Z" transform="matrix(1 0 0 -1 172.5 326.957)"/><path d="M28.5001 326.833 309.389 326.833 309.389 328.167 28.5001 328.167ZM308.056 323.5 316.056 327.5 308.056 331.5Z"/><text font-family="Cambria Math,Cambria Math_MSFontService,sans-serif" font-weight="400" font-size="16" transform="translate(254.881 348)">𝑇<tspan font-size="16" x="0.506668" y="22">2</tspan></text><path d="M255.061 354.694 258.395 354.694 261.728 354.694 265.061 354.694 265.061 355.694 261.728 355.694 258.395 355.694 255.061 355.694Z" fill-rule="evenodd"/><text font-family="Cambria Math,Cambria Math_MSFontService,sans-serif" font-weight="400" font-size="16" transform="translate(66.8508 360)">−<tspan font-size="16" x="14.6667" y="-12">𝑇</tspan><tspan font-size="16" x="15.1733" y="10">2</tspan></text><path d="M81.9441 354.694 86.9441 354.694 91.9441 354.694 91.9441 355.694 86.9441 355.694 81.9441 355.694Z" fill-rule="evenodd"/><path d="M159.5 214.5 186.333 214.5" stroke="#000000" stroke-miterlimit="8" fill="none" fill-rule="evenodd"/><path d="M47.5001 326.5 86.1665 326.5" stroke="#4472C4" stroke-width="3" stroke-miterlimit="8" fill="none" fill-rule="evenodd"/><path d="M260.5 326.5 299.167 326.5" stroke="#4472C4" stroke-width="3" stroke-miterlimit="8" fill="none" fill-rule="evenodd"/><path d="M0 0 0.000104987 112.135" stroke="#4472C4" stroke-width="3" stroke-miterlimit="8" fill="none" fill-rule="evenodd" transform="matrix(1 0 0 -1 85.5001 326.635)"/><path d="M84.5001 214.5 262.389 214.5" stroke="#4472C4" stroke-width="3" stroke-miterlimit="8" fill="none" fill-rule="evenodd"/><path d="M0 0 0.000104987 112.135" stroke="#4472C4" stroke-width="3" stroke-miterlimit="8" fill="none" fill-rule="evenodd" transform="matrix(1 0 0 -1 261.5 327.635)"/><text fill="#0070C0" font-family="Cambria Math,Cambria Math_MSFontService,sans-serif" font-weight="400" font-size="19" transform="translate(141.754 365)">𝑅𝑒𝑐𝑡<tspan font-size="19" x="37.62" y="0">(</tspan><tspan font-size="19" x="45.2867" y="0">𝑡</tspan><tspan font-size="19" x="53.0733" y="0">)</tspan></text><path d="M0.666667-4.362e-07 0.666767 153.79-0.666566 153.79-0.666667 4.362e-07ZM4.0001 152.457 0.000104987 160.457-3.9999 152.457Z" transform="matrix(1 0 0 -1 550.5 326.957)"/><path d="M405.5 326.833 686.389 326.833 686.389 328.167 405.5 328.167ZM685.056 323.5 693.056 327.5 685.056 331.5Z"/><text font-family="Cambria Math,Cambria Math_MSFontService,sans-serif" font-weight="400" font-size="16" transform="translate(632.478 350)">𝑇<tspan font-size="16" x="-188.031" y="0">−</tspan><tspan font-size="16" x="-176.03" y="0">𝑇</tspan></text><path d="M0 0 86.6669 112.135" stroke="#ED7D31" stroke-width="3" stroke-miterlimit="8" fill="none" fill-rule="evenodd" transform="matrix(1 0 0 -1 463.5 326.635)"/><path d="M637.167 326.747 550.5 215.5" stroke="#ED7D31" stroke-width="3" stroke-miterlimit="8" fill="none" fill-rule="evenodd"/><text fill="#ED7D31" font-family="Cambria Math,Cambria Math_MSFontService,sans-serif" font-weight="400" font-size="19" transform="translate(479.869 367)">𝑅𝑒𝑐𝑡<tspan font-size="19" x="37.62" y="0">(</tspan><tspan font-size="19" x="45.2867" y="0">𝑡</tspan><tspan font-size="19" x="53.0734" y="0">)</tspan><tspan font-family="Wingdings,Wingdings_MSFontService,sans-serif" font-size="19" x="60.74" y="0"></tspan><tspan font-size="19" x="77.4067" y="0">𝑅𝑒𝑐𝑡</tspan><tspan font-size="19" x="115.027" y="0">(</tspan><tspan font-size="19" x="122.693" y="0">𝑡</tspan><tspan font-size="19" x="130.48" y="0">)</tspan><tspan fill="#000000" font-size="19" x="-157.617" y="-33">𝑡</tspan><tspan fill="#000000" font-size="19" x="-149.83" y="-33"> </tspan><tspan fill="#000000" font-size="19" x="-145.664" y="-33">(</tspan><tspan fill="#000000" font-size="19" x="-137.997" y="-33">𝑡𝑖𝑚𝑒</tspan><tspan fill="#000000" font-size="19" x="-99.4168" y="-33">)</tspan><tspan fill="#000000" font-size="19" x="218.924" y="-36">𝜏</tspan><tspan fill="#000000" font-size="19" x="227.824" y="-36"> </tspan><tspan fill="#000000" font-size="19" x="231.991" y="-36">(</tspan><tspan fill="#000000" font-size="19" x="239.658" y="-36">𝑙𝑎𝑔</tspan><tspan fill="#000000" font-size="19" x="267.644" y="-36">)</tspan></text><path d="M333.5 249 375.5 249 375.5 238.5 396.5 259.5 375.5 280.5 375.5 270 333.5 270Z" stroke="#000000" stroke-width="1.33333" stroke-miterlimit="8" fill="#D9D9D9" fill-rule="evenodd"/></g></svg>