<svg width="746" height="148" xmlns="http://www.w3.org/2000/svg" xmlns:xlink="http://www.w3.org/1999/xlink" overflow="hidden"><defs><clipPath id="clip0"><rect x="70" y="486" width="746" height="148"/></clipPath></defs><g clip-path="url(#clip0)" transform="translate(-70 -486)"><path d="M106.5 622.291C143.821 611.378 181.142 600.465 215.976 600.5 250.809 600.535 283.155 611.518 315.5 622.5" stroke="#C55A11" stroke-width="1.33333" stroke-miterlimit="8" fill="#F8CBAD" fill-rule="evenodd"/><path d="M250.5 621.567C253.714 572.956 256.929 524.345 259.929 524.5 262.929 524.656 265.714 573.578 268.5 622.5" stroke="#548235" stroke-width="1.33333" stroke-miterlimit="8" fill="#A9D18E" fill-rule="evenodd" fill-opacity="0.529412"/><path d="M0.666667-5.50064e-07 0.666766 120.575-0.666567 120.575-0.666667 5.50064e-07ZM4.0001 119.242 0.000104987 127.242-3.9999 119.242Z" transform="matrix(1 0 0 -1 215.5 621.742)"/><path d="M71.5001 621.833 352.389 621.833 352.389 623.167 71.5001 623.167ZM351.056 618.5 359.056 622.5 351.056 626.5Z"/><text font-family="Cambria Math,Cambria Math_MSFontService,sans-serif" font-weight="400" font-size="19" transform="translate(364.894 628)">π‘“</text><path d="M543.5 622.386C582.428 616.433 621.357 610.481 657.69 610.5 694.024 610.519 727.762 616.51 761.5 622.5" stroke="#548235" stroke-width="1.33333" stroke-miterlimit="8" fill="#A9D18E" fill-rule="evenodd" fill-opacity="0.529412"/><path d="M0.666667-5.50064e-07 0.666766 120.575-0.666567 120.575-0.666667 5.50064e-07ZM4.0001 119.242 0.000104987 127.242-3.9999 119.242Z" transform="matrix(1 0 0 -1 652.5 622.742)"/><path d="M508.5 621.833 789.389 621.833 789.389 623.167 508.5 623.167ZM788.056 618.5 796.056 622.5 788.056 626.5Z"/><text font-family="Cambria Math,Cambria Math_MSFontService,sans-serif" font-weight="400" font-size="19" transform="translate(802.331 629)">π‘“</text><path d="M631.5 622.567C638.643 573.956 645.786 525.345 652.452 525.5 659.119 525.656 665.31 574.578 671.5 623.5" stroke="#C55A11" stroke-width="1.33333" stroke-miterlimit="8" fill="#F4B183" fill-rule="evenodd" fill-opacity="0.529412"/><text font-family="Cambria Math,Cambria Math_MSFontService,sans-serif" font-weight="400" font-size="19" transform="translate(264.215 524)">πΌπ‘›π‘΅π‘’π‘π‘“π‘’π‘π‘’π‘›π‘π‘’</text><path d="M439.5 546.584 490.996 546.584 490.996 537.5 506.5 557 490.996 576.5 490.996 567.416 439.5 567.416Z" stroke="#000000" stroke-width="1.33333" stroke-miterlimit="8" fill="none" fill-rule="evenodd"/><text font-family="Cambria Math,Cambria Math_MSFontService,sans-serif" font-weight="400" font-size="19" transform="translate(418.057 524)">π‘‘π‘’<tspan font-size="19" x="30.0374" y="0">π‘ π‘π‘π‘’π‘π‘‘π‘–π‘›π‘”</tspan><tspan font-family="Calibri,Calibri_MSFontService,sans-serif" font-size="19" x="21.9221" y="-1">-</tspan></text></g></svg>