<svg width="807" height="394" xmlns="http://www.w3.org/2000/svg" xmlns:xlink="http://www.w3.org/1999/xlink" overflow="hidden"><defs><clipPath id="clip0"><rect x="17" y="26" width="807" height="394"/></clipPath></defs><g clip-path="url(#clip0)" transform="translate(-17 -26)"><text font-family="Calibri,Calibri_MSFontService,sans-serif" font-weight="400" font-size="19" transform="translate(48 50)">Message A = 0xA = 1010 = (1,-<tspan font-size="19" x="227.013" y="0">1,1,</tspan>-1)<tspan font-size="19" x="0" y="23">Code A = (1,1,1,1)</tspan><tspan font-size="19" x="0" y="68">Encoded</tspan><tspan font-size="19" x="69.68" y="68">message: Message A </tspan>×<tspan font-size="19" x="244.373" y="68">Code A</tspan><tspan font-size="19" x="114.88" y="97">(</tspan><tspan fill="#FF0000" font-weight="700" font-size="19" x="120.547" y="97">1</tspan>,<tspan fill="#0070C0" font-weight="700" font-size="19" x="134.713" y="97">-</tspan><tspan fill="#0070C0" font-weight="700" font-size="19" x="140.38" y="97">1</tspan>,<tspan fill="#FFC000" font-weight="700" font-size="19" x="154.547" y="97">1</tspan>,<tspan fill="#00B050" font-weight="700" font-size="19" x="168.713" y="97">-</tspan><tspan fill="#00B050" font-weight="700" font-size="19" x="174.38" y="97">1</tspan>)</text><path d="M0.12941-0.307188 95.7723 39.9846 95.5135 40.599-0.12941 0.307188ZM95.9671 36.0879 101.787 42.88 92.8612 43.4604Z" fill="#FF0000" transform="matrix(-1 0 0 1 168.287 156.5)"/><path d="M0.283806-0.17483 23.1205 36.8966 22.5529 37.2462-0.283806 0.17483ZM25.5431 33.8382 26.3333 42.7475 18.7317 38.0341Z" fill="#0070C0" transform="matrix(-1 0 0 1 187.833 156.5)"/><text fill="#FF0000" font-family="Calibri,Calibri_MSFontService,sans-serif" font-weight="400" font-size="19" transform="translate(34.2267 220)">(1,1,1,1)<tspan fill="#0070C0" font-size="19" x="84.1733" y="0">(</tspan><tspan fill="#0070C0" font-size="19" x="89.84" y="0">-</tspan><tspan fill="#0070C0" font-size="19" x="95.5067" y="0">1,</tspan><tspan fill="#0070C0" font-size="19" x="109.673" y="0">-</tspan><tspan fill="#0070C0" font-size="19" x="115.34" y="0">1,</tspan><tspan fill="#0070C0" font-size="19" x="129.507" y="0">-</tspan><tspan fill="#0070C0" font-size="19" x="135.173" y="0">1,</tspan><tspan fill="#0070C0" font-size="19" x="149.34" y="0">-</tspan><tspan fill="#0070C0" font-size="19" x="155.007" y="0">1)</tspan></text><path d="M208.782 156.322 233.431 195.293 232.868 195.649 208.218 156.678ZM235.817 192.206 236.713 201.105 229.056 196.482Z" fill="#FFC000"/><text fill="#FFC000" font-family="Calibri,Calibri_MSFontService,sans-serif" font-weight="400" font-size="19" transform="translate(217.187 220)">(1,1,1,1)</text><path d="M233.654 154.205 313.08 195.721 312.771 196.312 233.346 154.795ZM313.597 191.854 318.833 199.105 309.891 198.944Z" fill="#00B050"/><text fill="#00B050" font-family="Calibri,Calibri_MSFontService,sans-serif" font-weight="400" font-size="19" transform="translate(290.493 220)">(<tspan font-size="19" x="5.66666" y="0">-</tspan><tspan font-size="19" x="11.3333" y="0">1,</tspan><tspan font-size="19" x="25.5" y="0">-</tspan><tspan font-size="19" x="31.1667" y="0">1,</tspan><tspan font-size="19" x="45.3333" y="0">-</tspan><tspan font-size="19" x="51" y="0">1,</tspan><tspan font-size="19" x="65.1667" y="0">-</tspan><tspan font-size="19" x="70.8333" y="0">1)</tspan></text><path d="M186.5 256 195.5 256 195.5 239.5 213.5 239.5 213.5 256 222.5 256 204.5 272.5Z" stroke="#000000" stroke-width="1.33333" stroke-miterlimit="8" fill="none" fill-rule="evenodd"/><text font-family="Calibri,Calibri_MSFontService,sans-serif" font-weight="400" font-size="19" transform="translate(62.7966 293)">(1,1,1,1,<tspan font-size="19" x="62.3333" y="0">-</tspan>1,<tspan font-size="19" x="82.1667" y="0">-</tspan><tspan font-size="19" x="87.8333" y="0">1,</tspan><tspan font-size="19" x="102" y="0">-</tspan><tspan font-size="19" x="107.667" y="0">1,</tspan><tspan font-size="19" x="121.833" y="0">-</tspan><tspan font-size="19" x="127.5" y="0">1, 1,1,1,1,</tspan><tspan font-size="19" x="202.5" y="0">-</tspan><tspan font-size="19" x="208.167" y="0">1,</tspan><tspan font-size="19" x="222.333" y="0">-</tspan><tspan font-size="19" x="228" y="0">1,</tspan><tspan font-size="19" x="242.167" y="0">-</tspan><tspan font-size="19" x="247.833" y="0">1,</tspan><tspan font-size="19" x="262" y="0">-</tspan>1)<tspan font-size="19" x="394.097" y="-243">Message </tspan><tspan font-size="19" x="465.277" y="-243">B </tspan><tspan font-size="19" x="479.61" y="-243">= 0xB = 1011 = (1,</tspan>-1,1,1)<tspan font-size="19" x="394.097" y="-220">Code B = (1,</tspan>-<tspan font-size="19" x="490.597" y="-220">1,1,</tspan><tspan font-size="19" x="518.93" y="-220">-</tspan><tspan font-size="19" x="524.597" y="-220">1)</tspan><tspan font-size="19" x="394.097" y="-175">Encoded</tspan><tspan font-size="19" x="463.777" y="-175">message: Message </tspan><tspan font-size="19" x="609.97" y="-175">B </tspan>×<tspan font-size="19" x="637.803" y="-175">Code </tspan>B<tspan font-size="19" x="511.81" y="-146">(</tspan><tspan fill="#FF0000" font-weight="700" font-size="19" x="517.477" y="-146">1</tspan>,<tspan fill="#0070C0" font-weight="700" font-size="19" x="531.643" y="-146">-</tspan><tspan fill="#0070C0" font-weight="700" font-size="19" x="537.31" y="-146">1</tspan>,<tspan fill="#FFC000" font-weight="700" font-size="19" x="551.477" y="-146">1</tspan>,<tspan fill="#00B050" font-weight="700" font-size="19" x="565.643" y="-146">1</tspan>)</text><path d="M0.12941-0.307188 95.7723 39.9846 95.5135 40.599-0.12941 0.307188ZM95.9671 36.0879 101.787 42.88 92.8612 43.4604Z" fill="#FF0000" transform="matrix(-1 0 0 1 577.287 156.5)"/><path d="M0.283806-0.17483 23.1205 36.8966 22.5529 37.2462-0.283806 0.17483ZM25.5431 33.8382 26.3333 42.7475 18.7317 38.0341Z" fill="#0070C0" transform="matrix(-1 0 0 1 596.833 156.5)"/><text fill="#FF0000" font-family="Calibri,Calibri_MSFontService,sans-serif" font-weight="400" font-size="19" transform="translate(437.453 220)">(1,<tspan font-size="19" x="19.8333" y="0">-</tspan><tspan font-size="19" x="25.5" y="0">1,1,</tspan><tspan font-size="19" x="53.8333" y="0">-</tspan><tspan font-size="19" x="59.5" y="0">1)</tspan><tspan fill="#0070C0" font-size="19" x="95.5067" y="0">(</tspan><tspan fill="#0070C0" font-size="19" x="101.173" y="0">-</tspan><tspan fill="#0070C0" font-size="19" x="106.84" y="0">1,1,</tspan><tspan fill="#0070C0" font-size="19" x="135.173" y="0">-</tspan><tspan fill="#0070C0" font-size="19" x="140.84" y="0">1,1)</tspan></text><path d="M617.782 156.322 642.431 195.293 641.868 195.649 617.218 156.678ZM644.817 192.206 645.713 201.105 638.056 196.482Z" fill="#FFC000"/><text fill="#FFC000" font-family="Calibri,Calibri_MSFontService,sans-serif" font-weight="400" font-size="19" transform="translate(620.413 220)">(1,<tspan font-size="19" x="19.8333" y="0">-</tspan><tspan font-size="19" x="25.5" y="0">1,1,</tspan><tspan font-size="19" x="53.8333" y="0">-</tspan><tspan font-size="19" x="59.5" y="0">1)</tspan></text><path d="M642.654 154.205 722.08 195.721 721.771 196.312 642.346 154.795ZM722.597 191.854 727.833 199.105 718.891 198.944Z" fill="#00B050"/><text fill="#00B050" font-family="Calibri,Calibri_MSFontService,sans-serif" font-weight="400" font-size="19" transform="translate(705.053 220)">(1,<tspan font-size="19" x="19.8333" y="0">-</tspan><tspan font-size="19" x="25.5" y="0">1,1,</tspan><tspan font-size="19" x="53.8333" y="0">-</tspan><tspan font-size="19" x="59.5" y="0">1)</tspan></text><path d="M595.5 256 604.5 256 604.5 239.5 622.5 239.5 622.5 256 631.5 256 613.5 272.5Z" stroke="#000000" stroke-width="1.33333" stroke-miterlimit="8" fill="none" fill-rule="evenodd"/><text font-family="Calibri,Calibri_MSFontService,sans-serif" font-weight="400" font-size="19" transform="translate(471.69 293)">(1,<tspan font-size="19" x="19.8333" y="0">-</tspan><tspan font-size="19" x="25.5" y="0">1,1,</tspan><tspan font-size="19" x="53.8333" y="0">-</tspan><tspan font-size="19" x="59.5" y="0">1,</tspan><tspan font-size="19" x="73.6667" y="0">-</tspan><tspan font-size="19" x="79.3333" y="0">1,1,</tspan><tspan font-size="19" x="107.667" y="0">-</tspan><tspan font-size="19" x="113.333" y="0">1,1, 1,</tspan><tspan font-size="19" x="160" y="0">-</tspan><tspan font-size="19" x="165.667" y="0">1,1,</tspan><tspan font-size="19" x="194" y="0">-</tspan><tspan font-size="19" x="199.667" y="0">1,1,</tspan><tspan font-size="19" x="228" y="0">-</tspan><tspan font-size="19" x="233.667" y="0">1,1,</tspan><tspan font-size="19" x="262" y="0">-</tspan><tspan font-size="19" x="267.667" y="0">1)</tspan></text><path d="M391.5 360.5 400.75 360.5 400.75 344.5 419.25 344.5 419.25 360.5 428.5 360.5 410 376.5Z" stroke="#000000" stroke-width="1.33333" stroke-miterlimit="8" fill="none" fill-rule="evenodd"/><text font-family="Calibri,Calibri_MSFontService,sans-serif" font-weight="400" font-size="24" transform="translate(402.907 328)">+<tspan font-size="19" x="-137.19" y="74">C = (2,0,2,0,</tspan><tspan font-size="19" x="-47.19" y="74">-</tspan><tspan font-size="19" x="-41.5233" y="74">2,0,</tspan><tspan font-size="19" x="-13.19" y="74">-</tspan><tspan font-size="19" x="-7.52328" y="74">2,0, 2,0,2,0,0,</tspan><tspan font-size="19" x="95.81" y="74">-</tspan><tspan font-size="19" x="101.477" y="74">2,0,</tspan><tspan font-size="19" x="129.81" y="74">-</tspan><tspan font-size="19" x="135.477" y="74">2)</tspan></text></g></svg>