<svg width="426" height="310" xmlns="http://www.w3.org/2000/svg" xmlns:xlink="http://www.w3.org/1999/xlink" overflow="hidden"><defs><clipPath id="clip0"><rect x="36" y="26" width="426" height="310"/></clipPath></defs><g clip-path="url(#clip0)" transform="translate(-36 -26)"><text font-family="Calibri,Calibri_MSFontService,sans-serif" font-weight="400" font-size="19" transform="translate(48 50)">Pattern C = (2,0,2,0,-2,0,-<tspan font-size="19" x="189.793" y="0">2,0, 2,0,2,0,0,</tspan>-2,0,-2)<tspan font-size="19" x="0" y="23">Code A</tspan><tspan font-size="19" x="58.1667" y="23">=</tspan><tspan font-size="19" x="71.6667" y="23">(1,1,1,1)</tspan><tspan font-size="19" x="0" y="68">Try: Pattern </tspan><tspan font-size="19" x="92.3933" y="68">C</tspan><tspan font-size="19" x="106.56" y="68">×</tspan><tspan font-size="19" x="120.06" y="68">Code A</tspan><tspan font-size="19" x="0" y="112">(</tspan><tspan fill="#FF0000" font-size="19" x="5.66667" y="112">2,0,2,0</tspan><tspan fill="#0070C0" font-size="19" x="57.6667" y="112">,</tspan><tspan fill="#0070C0" font-size="19" x="62.3333" y="112">-</tspan><tspan fill="#0070C0" font-size="19" x="68" y="112">2,0,</tspan><tspan fill="#0070C0" font-size="19" x="96.3333" y="112">-</tspan><tspan fill="#0070C0" font-size="19" x="102" y="112">2,0</tspan>, <tspan fill="#FFC000" font-size="19" x="134.5" y="112">2,0,2,0</tspan>,<tspan fill="#00B050" font-size="19" x="191.167" y="112">0,</tspan><tspan fill="#00B050" font-size="19" x="205.333" y="112">-</tspan><tspan fill="#00B050" font-size="19" x="211" y="112">2,0,</tspan><tspan fill="#00B050" font-size="19" x="239.333" y="112">-</tspan><tspan fill="#00B050" font-size="19" x="245" y="112">2</tspan>) ×<tspan font-size="19" x="277.833" y="112">(1,1,1,1)</tspan><tspan font-size="19" x="0" y="157">(</tspan><tspan fill="#FF0000" font-size="19" x="5.66667" y="157">2,0,2,0</tspan>) <tspan font-size="19" x="67.5" y="157">×</tspan><tspan font-size="19" x="81" y="157">(1,1,1,1) = (2+0+2+0) / 4 = 1</tspan><tspan font-size="19" x="0" y="180">(</tspan><tspan fill="#0070C0" font-size="19" x="5.66667" y="180">-</tspan><tspan fill="#0070C0" font-size="19" x="11.3333" y="180">2,0,</tspan><tspan fill="#0070C0" font-size="19" x="39.6667" y="180">-</tspan><tspan fill="#0070C0" font-size="19" x="45.3333" y="180">2,0</tspan>) ×<tspan font-size="19" x="92.3333" y="180">(1,1,1,1) = (</tspan>-2+0-<tspan font-size="19" x="218.667" y="180">2+0) / 4 = </tspan><tspan font-size="19" x="295.333" y="180">-</tspan>1<tspan font-size="19" x="0" y="202">(</tspan><tspan fill="#FFC000" font-size="19" x="5.66667" y="202">2,0,2,0</tspan>) <tspan font-size="19" x="67.5" y="202">×</tspan><tspan font-size="19" x="81" y="202">(1,1,1,1) = (2+0+2+0) / 4 = 1</tspan><tspan font-size="19" x="0" y="224">(</tspan><tspan fill="#00B050" font-size="19" x="5.66667" y="224">0,</tspan><tspan fill="#00B050" font-size="19" x="19.8333" y="224">-</tspan><tspan fill="#00B050" font-size="19" x="25.5" y="224">2,0,</tspan><tspan fill="#00B050" font-size="19" x="53.8333" y="224">-</tspan><tspan fill="#00B050" font-size="19" x="59.5" y="224">2</tspan>) ×<tspan font-size="19" x="92.3333" y="224">(1,1,1,1) = (0</tspan>-2+0-<tspan font-size="19" x="228.167" y="224">2) / 4 = </tspan><tspan font-size="19" x="286" y="224">-</tspan><tspan font-size="19" x="291.667" y="224">1</tspan><tspan font-size="19" x="0" y="269">=</tspan><tspan font-size="19" x="13.5" y="269">(1,</tspan>-<tspan font-size="19" x="39" y="269">1,1,</tspan>-1)<tspan font-size="19" x="92.3333" y="269">=</tspan><tspan font-size="19" x="105.833" y="269">(1,0,1,0) = 0xA</tspan></text></g></svg>