<svg width="866" height="293" xmlns="http://www.w3.org/2000/svg" xmlns:xlink="http://www.w3.org/1999/xlink" overflow="hidden"><defs><clipPath id="clip0"><rect x="17" y="26" width="866" height="293"/></clipPath></defs><g clip-path="url(#clip0)" transform="translate(-17 -26)"><text font-family="Calibri,Calibri_MSFontService,sans-serif" font-weight="400" font-size="19" transform="translate(48 50)">Message A = 0xA = 1010 = (1,-<tspan font-size="19" x="227.013" y="0">1,1,</tspan>-1)<tspan font-size="19" x="0" y="23">Code</tspan><tspan font-size="19" x="43.1667" y="23">A</tspan><tspan font-size="19" x="58.1667" y="23">=</tspan><tspan font-size="19" x="71.6667" y="23">(1,1,1,1)</tspan><tspan font-size="19" x="0" y="68">Encoded</tspan><tspan font-size="19" x="69.68" y="68">message: Message A </tspan>×<tspan font-size="19" x="244.373" y="68">Code A</tspan><tspan font-size="19" x="114.88" y="97">(</tspan><tspan fill="#FF0000" font-weight="700" font-size="19" x="120.547" y="97">1</tspan>,<tspan fill="#0070C0" font-weight="700" font-size="19" x="134.713" y="97">-</tspan><tspan fill="#0070C0" font-weight="700" font-size="19" x="140.38" y="97">1</tspan>,<tspan fill="#FFC000" font-weight="700" font-size="19" x="154.547" y="97">1</tspan>,<tspan fill="#00B050" font-weight="700" font-size="19" x="168.713" y="97">-</tspan><tspan fill="#00B050" font-weight="700" font-size="19" x="174.38" y="97">1</tspan>)</text><path d="M0.12941-0.307188 95.7723 39.9846 95.5135 40.599-0.12941 0.307188ZM95.9671 36.0879 101.787 42.88 92.8612 43.4604Z" fill="#FF0000" transform="matrix(-1 0 0 1 168.287 156.5)"/><path d="M0.283806-0.17483 23.1205 36.8966 22.5529 37.2462-0.283806 0.17483ZM25.5431 33.8382 26.3333 42.7475 18.7317 38.0341Z" fill="#0070C0" transform="matrix(-1 0 0 1 187.833 156.5)"/><text fill="#FF0000" font-family="Calibri,Calibri_MSFontService,sans-serif" font-weight="400" font-size="19" transform="translate(34.2267 220)">(1,1,1,1<tspan font-size="19" x="57.6667" y="0">)</tspan><tspan fill="#0070C0" font-size="19" x="84.1733" y="0">(</tspan><tspan fill="#0070C0" font-size="19" x="89.84" y="0">-</tspan><tspan fill="#0070C0" font-size="19" x="95.5067" y="0">1,</tspan><tspan fill="#0070C0" font-size="19" x="109.673" y="0">-</tspan><tspan fill="#0070C0" font-size="19" x="115.34" y="0">1,</tspan><tspan fill="#0070C0" font-size="19" x="129.507" y="0">-</tspan><tspan fill="#0070C0" font-size="19" x="135.173" y="0">1,</tspan><tspan fill="#0070C0" font-size="19" x="149.34" y="0">-</tspan><tspan fill="#0070C0" font-size="19" x="155.007" y="0">1</tspan><tspan fill="#0070C0" font-size="19" x="164.507" y="0">)</tspan></text><path d="M208.782 156.322 233.431 195.293 232.868 195.649 208.218 156.678ZM235.817 192.206 236.713 201.105 229.056 196.482Z" fill="#FFC000"/><text fill="#FFC000" font-family="Calibri,Calibri_MSFontService,sans-serif" font-weight="400" font-size="19" transform="translate(217.187 220)">(<tspan font-size="19" x="5.66667" y="0">1,1,1,1</tspan><tspan font-size="19" x="57.6667" y="0">)</tspan></text><path d="M233.654 154.205 313.08 195.721 312.771 196.312 233.346 154.795ZM313.597 191.854 318.833 199.105 309.891 198.944Z" fill="#00B050"/><text fill="#00B050" font-family="Calibri,Calibri_MSFontService,sans-serif" font-weight="400" font-size="19" transform="translate(290.493 220)">(<tspan font-size="19" x="5.66666" y="0">-</tspan><tspan font-size="19" x="11.3333" y="0">1,</tspan><tspan font-size="19" x="25.5" y="0">-</tspan><tspan font-size="19" x="31.1667" y="0">1,</tspan><tspan font-size="19" x="45.3333" y="0">-</tspan><tspan font-size="19" x="51" y="0">1,</tspan><tspan font-size="19" x="65.1667" y="0">-</tspan><tspan font-size="19" x="70.8333" y="0">1</tspan>)</text><path d="M186.5 256 195.5 256 195.5 239.5 213.5 239.5 213.5 256 222.5 256 204.5 272.5Z" stroke="#000000" stroke-width="1.33333" stroke-miterlimit="8" fill="none" fill-rule="evenodd"/><text font-family="Calibri,Calibri_MSFontService,sans-serif" font-weight="400" font-size="19" transform="translate(35.8234 302)">Pattern A = (1,1,1,1,<tspan font-size="19" x="150.96" y="0">-</tspan><tspan font-size="19" x="156.627" y="0">1,</tspan>-1,<tspan font-size="19" x="190.627" y="0">-</tspan>1,-<tspan font-size="19" x="216.127" y="0">1, 1,1,1,1,</tspan><tspan font-size="19" x="291.127" y="0">-</tspan>1,-<tspan font-size="19" x="316.627" y="0">1,</tspan>-1,<tspan font-size="19" x="350.627" y="0">-</tspan>1)<tspan font-size="19" x="459.23" y="-252">Decoding</tspan><tspan font-size="19" x="534.576" y="-252">with</tspan><tspan font-size="19" x="572.576" y="-252">wrong</tspan><tspan font-size="19" x="624.776" y="-252">code: Pattern A </tspan>×<tspan font-size="19" x="759.25" y="-252">Code </tspan>B<tspan font-size="19" x="459.23" y="-207">(</tspan><tspan fill="#FF0000" font-size="19" x="464.896" y="-207">1,1,1,1</tspan><tspan fill="#0070C0" font-size="19" x="516.896" y="-207">,</tspan><tspan fill="#0070C0" font-size="19" x="521.563" y="-207">-</tspan><tspan fill="#0070C0" font-size="19" x="527.23" y="-207">1,</tspan><tspan fill="#0070C0" font-size="19" x="541.396" y="-207">-</tspan><tspan fill="#0070C0" font-size="19" x="547.063" y="-207">1,</tspan><tspan fill="#0070C0" font-size="19" x="561.23" y="-207">-</tspan><tspan fill="#0070C0" font-size="19" x="566.896" y="-207">1,</tspan><tspan fill="#0070C0" font-size="19" x="581.063" y="-207">-</tspan><tspan fill="#0070C0" font-size="19" x="586.73" y="-207">1</tspan>, <tspan fill="#FFC000" font-size="19" x="605.063" y="-207">1,1,1,1</tspan><tspan fill="#00B050" font-size="19" x="657.063" y="-207">,</tspan><tspan fill="#00B050" font-size="19" x="661.73" y="-207">-</tspan><tspan fill="#00B050" font-size="19" x="667.396" y="-207">1,</tspan><tspan fill="#00B050" font-size="19" x="681.563" y="-207">-</tspan><tspan fill="#00B050" font-size="19" x="687.23" y="-207">1,</tspan><tspan fill="#00B050" font-size="19" x="701.396" y="-207">-</tspan><tspan fill="#00B050" font-size="19" x="707.063" y="-207">1,</tspan><tspan fill="#00B050" font-size="19" x="721.23" y="-207">-</tspan><tspan fill="#00B050" font-size="19" x="726.896" y="-207">1</tspan>) ×<tspan font-size="19" x="759.73" y="-207">(1,</tspan><tspan font-size="19" x="779.563" y="-207">-</tspan>1,1,-1)<tspan font-size="19" x="459.23" y="-162">(</tspan><tspan fill="#FF0000" font-size="19" x="464.896" y="-162">1,1,1,1</tspan>) ×<tspan font-size="19" x="540.23" y="-162">(1,</tspan><tspan font-size="19" x="560.063" y="-162">-</tspan><tspan font-size="19" x="565.73" y="-162">1,1,</tspan><tspan font-size="19" x="594.063" y="-162">-</tspan><tspan font-size="19" x="599.73" y="-162">1) = (1</tspan>-1+1-1) / 4 = 0<tspan font-size="19" x="459.23" y="-140">(</tspan><tspan fill="#0070C0" font-size="19" x="464.896" y="-140">-</tspan><tspan fill="#0070C0" font-size="19" x="470.563" y="-140">1,</tspan><tspan fill="#0070C0" font-size="19" x="484.73" y="-140">-</tspan><tspan fill="#0070C0" font-size="19" x="490.396" y="-140">1,</tspan><tspan fill="#0070C0" font-size="19" x="504.563" y="-140">-</tspan><tspan fill="#0070C0" font-size="19" x="510.23" y="-140">1,</tspan><tspan fill="#0070C0" font-size="19" x="524.396" y="-140">-</tspan><tspan fill="#0070C0" font-size="19" x="530.063" y="-140">1</tspan>) ×<tspan font-size="19" x="562.896" y="-140">(1,</tspan>-1,1,-1) = (-1+1-1+1) / 4 = 0<tspan font-size="19" x="459.23" y="-117">(</tspan><tspan fill="#FFC000" font-size="19" x="464.896" y="-117">1,1,1,1</tspan>) ×<tspan font-size="19" x="540.23" y="-117">(1,</tspan><tspan font-size="19" x="560.063" y="-117">-</tspan><tspan font-size="19" x="565.73" y="-117">1,1,</tspan><tspan font-size="19" x="594.063" y="-117">-</tspan><tspan font-size="19" x="599.73" y="-117">1) = (1</tspan>-1+1-1) / 4 = 0<tspan font-size="19" x="459.23" y="-95">(</tspan><tspan fill="#00B050" font-size="19" x="464.896" y="-95">-</tspan><tspan fill="#00B050" font-size="19" x="470.563" y="-95">1,</tspan><tspan fill="#00B050" font-size="19" x="484.73" y="-95">-</tspan><tspan fill="#00B050" font-size="19" x="490.396" y="-95">1,</tspan><tspan fill="#00B050" font-size="19" x="504.563" y="-95">-</tspan><tspan fill="#00B050" font-size="19" x="510.23" y="-95">1,</tspan><tspan fill="#00B050" font-size="19" x="524.396" y="-95">-</tspan><tspan fill="#00B050" font-size="19" x="530.063" y="-95">1</tspan>) ×<tspan font-size="19" x="562.896" y="-95">(1,</tspan>-1,1,-1) = (-1+1-1+1) / 4 = 0<tspan font-size="19" x="459.23" y="-50">=</tspan><tspan font-size="19" x="472.73" y="-50">(0,0,0,0)</tspan><tspan font-size="19" x="459.23" y="-5">We</tspan><tspan font-size="19" x="488.71" y="-5">get</tspan><tspan font-size="19" x="517.123" y="-5">only</tspan><tspan font-size="19" x="553.79" y="-5">0: </tspan>invalid<tspan font-size="19" x="626.21" y="-5">result</tspan>.</text></g></svg>