<svg width="1145" height="387" xmlns="http://www.w3.org/2000/svg" xmlns:xlink="http://www.w3.org/1999/xlink" overflow="hidden"><defs><clipPath id="clip0"><rect x="67" y="156" width="1145" height="387"/></clipPath></defs><g clip-path="url(#clip0)" transform="translate(-67 -156)"><path d="M76.5001 226.5 76.5002 302.091" stroke="#000000" stroke-width="1.33333" stroke-miterlimit="8" fill="none" fill-rule="evenodd"/><path d="M6.66666-0.666657 75.5905-0.666562 75.5905 0.666772 6.66665 0.666676ZM7.99999 4.00001 0 0 8.00001-3.99999Z" transform="matrix(-1 0 0 1 152.091 301.5)"/><path d="M76.794 240.833 69.5001 226.5" stroke="#000000" stroke-width="1.33333" stroke-miterlimit="8" fill="none" fill-rule="evenodd"/><path d="M0 0 7.29396 14.3333" stroke="#000000" stroke-width="1.33333" stroke-miterlimit="8" fill="none" fill-rule="evenodd" transform="matrix(-1 0 0 1 83.794 226.5)"/><path d="M151.5 275.5 200.5 302 151.5 328.5Z" stroke="#000000" stroke-width="1.33333" stroke-miterlimit="8" fill="none" fill-rule="evenodd"/><path d="M0.56949-0.346592 31.6069 50.6514 30.4679 51.3446-0.56949 0.346592ZM33.7611 47.7795 34.5033 56.6929 26.9273 51.9386Z" transform="matrix(1 0 0 -1 158.5 330.193)"/><path d="M0 0 29.9794 0.23622" stroke="#000000" stroke-width="1.33333" stroke-miterlimit="8" fill="none" fill-rule="evenodd" transform="matrix(1 0 0 -1 200.5 301.736)"/><path d="M283.5 301.5 313.48 301.736" stroke="#000000" stroke-width="1.33333" stroke-miterlimit="8" fill="none" fill-rule="evenodd"/><path d="M478.5 275.5 528.5 302 478.5 328.5Z" stroke="#000000" stroke-width="1.33333" stroke-miterlimit="8" fill="none" fill-rule="evenodd"/><path d="M0.56949-0.346592 31.6069 50.6514 30.4679 51.3446-0.56949 0.346592ZM33.7611 47.7795 34.5033 56.6929 26.9273 51.9386Z" transform="matrix(1 0 0 -1 486.5 330.193)"/><rect x="230.5" y="275.5" width="53" height="53" stroke="#000000" stroke-width="1.33333" stroke-miterlimit="8" fill="none"/><path d="M236.5 320.5 245.5 284.5 268.5 284.5 277.5 320.5Z" stroke="#000000" stroke-width="1.33333" stroke-miterlimit="8" fill="none" fill-rule="evenodd"/><rect x="235.5" y="319.5" width="46" height="5" stroke="#FFFFFF" stroke-width="1.33333" stroke-miterlimit="8" fill="#FFFFFF"/><path d="M366.5 301.5 396.48 301.736" stroke="#000000" stroke-width="1.33333" stroke-miterlimit="8" fill="none" fill-rule="evenodd"/><rect x="396.5" y="275.5" width="52" height="53" stroke="#000000" stroke-width="1.33333" stroke-miterlimit="8" fill="none"/><path d="M401.5 320.5 410.5 284.5 434.5 284.5 443.5 320.5Z" stroke="#000000" stroke-width="1.33333" stroke-miterlimit="8" fill="none" fill-rule="evenodd"/><rect x="401.5" y="319.5" width="46" height="5" stroke="#FFFFFF" stroke-width="1.33333" stroke-miterlimit="8" fill="#FFFFFF"/><path d="M448.5 301.5 478.48 301.5" stroke="#000000" stroke-width="1.33333" stroke-miterlimit="8" fill="none" fill-rule="evenodd"/><path d="M313.5 302C313.5 287.365 325.365 275.5 340 275.5 354.636 275.5 366.5 287.365 366.5 302 366.5 316.636 354.636 328.5 340 328.5 325.365 328.5 313.5 316.636 313.5 302Z" stroke="#000000" stroke-width="1.33333" stroke-miterlimit="8" fill="none" fill-rule="evenodd"/><path d="M0 0 37.4154 37.4154" stroke="#000000" stroke-width="1.33333" stroke-miterlimit="8" fill="none" fill-rule="evenodd" transform="matrix(-1 0 0 1 357.915 283.5)"/><path d="M320.5 283.5 357.915 320.915" stroke="#000000" stroke-width="1.33333" stroke-miterlimit="8" fill="none" fill-rule="evenodd"/><rect x="275.5" y="381.5" width="128" height="38" stroke="#000000" stroke-width="1.33333" stroke-miterlimit="8" fill="#FFFFFF"/><text font-family="Segoe UI,Segoe UI_MSFontService,sans-serif" font-weight="400" font-size="11" transform="translate(302.226 404)">Local <tspan x="28.8333" y="0">oscillator</tspan></text><path d="M340.167 335.167 340.167 381.413 338.833 381.413 338.833 335.167ZM335.5 336.5 339.5 328.5 343.5 336.5Z"/><rect x="141.5" y="201.5" width="397" height="243" stroke="#000000" stroke-width="1.33333" stroke-miterlimit="8" stroke-dasharray="5.33333 4 1.33333 4" fill="none"/><text font-family="Segoe UI,Segoe UI_MSFontService,sans-serif" font-weight="400" font-size="11" transform="translate(325.014 256)">Mixer<tspan x="-87.8419" y="0">RF </tspan>filter<tspan x="-159.736" y="0">LNA</tspan><tspan x="81.4892" y="-3">IF </tspan><tspan x="93.1559" y="-3">filter</tspan><tspan x="63.5692" y="11">IF</tspan><tspan x="75.2358" y="11">=</tspan><tspan x="86.2358" y="11">3.57</tspan><tspan x="110.402" y="11">MH</tspan><tspan x="128.569" y="11">z</tspan><tspan x="146.503" y="0">IF </tspan><tspan x="158.17" y="0">amplifier</tspan><tspan font-weight="700" font-size="15" x="-167.934" y="163">Rafael Micro </tspan><tspan font-weight="700" font-size="15" x="-171.1" y="181">R820T2 tuner</tspan></text><path d="M686.5 301.833 710.07 301.833 710.07 303.167 686.5 303.167ZM708.736 298.5 716.736 302.5 708.736 306.5Z"/><path d="M608.395 276.5 580.5 302.518 608.395 329.5 686.5 329.5 686.5 276.5 608.395 276.5Z" stroke="#000000" stroke-width="1.33333" stroke-miterlimit="8" fill="#FFFFFF" fill-rule="evenodd"/><text font-family="Segoe UI,Segoe UI_MSFontService,sans-serif" font-weight="400" font-size="11" transform="translate(619.191 300)">8 bits<tspan x="-10.08" y="14">28.8 MHz</tspan><tspan x="-27.6522" y="6">IN</tspan><tspan x="42.4069" y="6">OUT</tspan></text><path d="M769.5 257.5C769.5 247.007 778.007 238.5 788.5 238.5 798.993 238.5 807.5 247.007 807.5 257.5 807.5 267.993 798.993 276.5 788.5 276.5 778.007 276.5 769.5 267.993 769.5 257.5Z" stroke="#000000" stroke-width="1.33333" stroke-miterlimit="8" fill="none" fill-rule="evenodd"/><path d="M0 0 26.7253 26.7253" stroke="#000000" stroke-width="1.33333" stroke-miterlimit="8" fill="none" fill-rule="evenodd" transform="matrix(-1 0 0 1 802.225 244.5)"/><path d="M775.5 244.5 802.225 271.225" stroke="#000000" stroke-width="1.33333" stroke-miterlimit="8" fill="none" fill-rule="evenodd"/><rect x="837.5" y="238.5" width="38" height="38" stroke="#000000" stroke-width="1.33333" stroke-miterlimit="8" fill="none"/><path d="M839.5 244.5 862.177 244.5" stroke="#000000" stroke-width="1.33333" stroke-miterlimit="8" fill="none" fill-rule="evenodd"/><path d="M862.5 244.5 871.023 270.962" stroke="#000000" stroke-width="1.33333" stroke-miterlimit="8" fill="none" fill-rule="evenodd"/><rect x="905.5" y="238.5" width="37" height="38" stroke="#000000" stroke-width="1.33333" stroke-miterlimit="8" fill="none"/><path d="M924.167 244.5 924.167 264.29 922.833 264.29 922.833 244.5ZM927.5 262.957 923.5 270.957 919.5 262.957Z"/><path d="M807.5 257.5 837.378 257.5" stroke="#000000" stroke-width="1.33333" stroke-miterlimit="8" fill="none" fill-rule="evenodd"/><path d="M875.5 257.5 905.378 257.5" stroke="#000000" stroke-width="1.33333" stroke-miterlimit="8" fill="none" fill-rule="evenodd"/><path d="M769.5 347.5C769.5 337.007 778.007 328.5 788.5 328.5 798.993 328.5 807.5 337.007 807.5 347.5 807.5 357.993 798.993 366.5 788.5 366.5 778.007 366.5 769.5 357.993 769.5 347.5Z" stroke="#000000" stroke-width="1.33333" stroke-miterlimit="8" fill="none" fill-rule="evenodd"/><path d="M0 0 26.7253 26.7253" stroke="#000000" stroke-width="1.33333" stroke-miterlimit="8" fill="none" fill-rule="evenodd" transform="matrix(-1 0 0 1 802.225 334.5)"/><path d="M775.5 334.5 802.225 361.225" stroke="#000000" stroke-width="1.33333" stroke-miterlimit="8" fill="none" fill-rule="evenodd"/><rect x="837.5" y="328.5" width="38" height="38" stroke="#000000" stroke-width="1.33333" stroke-miterlimit="8" fill="none"/><path d="M839.5 334.5 862.177 334.5" stroke="#000000" stroke-width="1.33333" stroke-miterlimit="8" fill="none" fill-rule="evenodd"/><path d="M862.5 334.5 871.023 360.962" stroke="#000000" stroke-width="1.33333" stroke-miterlimit="8" fill="none" fill-rule="evenodd"/><rect x="905.5" y="328.5" width="37" height="38" stroke="#000000" stroke-width="1.33333" stroke-miterlimit="8" fill="none"/><path d="M925.167 334.5 925.167 354.29 923.833 354.29 923.833 334.5ZM928.5 352.957 924.5 360.957 920.5 352.957Z"/><path d="M807.5 347.5 837.378 347.5" stroke="#000000" stroke-width="1.33333" stroke-miterlimit="8" fill="none" fill-rule="evenodd"/><path d="M875.5 347.5 905.378 347.5" stroke="#000000" stroke-width="1.33333" stroke-miterlimit="8" fill="none" fill-rule="evenodd"/><path d="M716.5 257.5 716.5 348.209" stroke="#000000" stroke-width="1.33333" stroke-miterlimit="8" fill="none" fill-rule="evenodd"/><path d="M769.413 257.5 716.5 257.5" stroke="#000000" stroke-width="1.33333" stroke-miterlimit="8" fill="none" fill-rule="evenodd"/><path d="M769.413 347.5 716.5 347.5" stroke="#000000" stroke-width="1.33333" stroke-miterlimit="8" fill="none" fill-rule="evenodd"/><path d="M942.5 256.833 988.747 256.833 988.747 258.167 942.5 258.167ZM987.413 253.5 995.413 257.5 987.413 261.5Z"/><path d="M942.5 346.833 988.747 346.833 988.747 348.167 942.5 348.167ZM987.413 343.5 995.413 347.5 987.413 351.5Z"/><rect x="995.5" y="241.5" width="90.9999" height="122" stroke="#000000" stroke-width="1.33333" stroke-miterlimit="8" fill="#FFFFFF"/><text font-family="Segoe UI,Segoe UI_MSFontService,sans-serif" font-weight="700" font-size="13" transform="translate(1007.1 299)">Embedded <tspan x="3.25336" y="16">processor</tspan></text><path d="M528.51 300.833 574.186 301.507 574.166 302.84 528.49 302.167ZM572.902 298.154 580.842 302.272 572.784 306.153Z"/><text font-family="Segoe UI,Segoe UI_MSFontService,sans-serif" font-weight="700" font-size="15" transform="translate(592.519 419)">Realtek RTL2832<tspan x="12.58" y="18">demodulator</tspan><tspan font-size="11" x="366.51" y="-167">I</tspan><tspan font-size="11" x="364.093" y="-77">Q</tspan></text><rect x="569.5" y="201.5" width="532" height="243" stroke="#000000" stroke-width="1.33333" stroke-miterlimit="8" stroke-dasharray="5.33333 4 1.33333 4" fill="none"/><rect x="820.5" y="220.5" width="159" height="167" stroke="#000000" stroke-width="1.33333" stroke-miterlimit="8" stroke-dasharray="5.33333 4 1.33333 4" fill="none"/><path d="M1041.5 363.5 1041.5 537.105" stroke="#000000" stroke-width="1.33333" stroke-miterlimit="8" fill="none" fill-rule="evenodd"/><path d="M194.5 537.5 1041.21 537.5" stroke="#000000" stroke-width="1.33333" stroke-miterlimit="8" fill="none" fill-rule="evenodd"/><path d="M195.167 452.167 195.167 537.445 193.833 537.445 193.833 452.167ZM190.5 453.5 194.5 445.5 198.5 453.5Z"/><path d="M329.5 450.5 329.5 471.868" stroke="#000000" stroke-width="1.33333" stroke-miterlimit="8" fill="none" fill-rule="evenodd"/><path d="M349.5 450.5 349.5 471.868" stroke="#000000" stroke-width="1.33333" stroke-miterlimit="8" fill="none" fill-rule="evenodd"/><path d="M369.5 418.5 369.5 460.79" stroke="#000000" stroke-width="1.33333" stroke-miterlimit="8" fill="none" fill-rule="evenodd"/><path d="M309.5 419.5 309.5 461.79" stroke="#000000" stroke-width="1.33333" stroke-miterlimit="8" fill="none" fill-rule="evenodd"/><path d="M0 0 20.222 0.000104987" stroke="#000000" stroke-width="1.33333" stroke-miterlimit="8" fill="none" fill-rule="evenodd" transform="matrix(-1 0 0 1 329.722 460.5)"/><path d="M0 0 20.222 0.000104987" stroke="#000000" stroke-width="1.33333" stroke-miterlimit="8" fill="none" fill-rule="evenodd" transform="matrix(-1 0 0 1 369.722 460.5)"/><rect x="334.5" y="450.5" width="10" height="21" stroke="#000000" stroke-width="1.33333" stroke-miterlimit="8" fill="#7F7F7F"/><path d="M1087.5 303 1107 283.5 1107 293.25 1138 293.25 1138 283.5 1157.5 303 1138 322.5 1138 312.75 1107 312.75 1107 322.5Z" stroke="#000000" stroke-width="1.33333" stroke-miterlimit="8" fill="none" fill-rule="evenodd"/><text font-family="Calibri,Calibri_MSFontService,sans-serif" font-weight="400" font-size="16" transform="translate(1108.96 308)">USB</text><rect x="1158.5" y="240.5" width="53" height="123" stroke="#000000" stroke-width="1.33333" stroke-miterlimit="8" fill="#FFFFFF"/><text font-family="Segoe UI,Segoe UI_MSFontService,sans-serif" font-weight="700" font-size="13" transform="translate(1169.79 306)">Hos<tspan x="24.1666" y="0">t</tspan><tspan font-weight="400" font-size="12" x="-300.326" y="98">Decimatio</tspan><tspan font-weight="400" font-size="12" x="-246.992" y="98">n</tspan></text><path d="M394.5 418.5 394.5 492.448" stroke="#000000" stroke-width="1.33333" stroke-miterlimit="8" fill="none" fill-rule="evenodd"/><path d="M0 0 623.456 1.08378" stroke="#000000" stroke-width="1.33333" stroke-miterlimit="8" fill="none" fill-rule="evenodd" transform="matrix(1 0 0 -1 394.5 492.584)"/><path d="M1018.17 370.167 1018.17 490.883 1016.83 490.883 1016.83 370.167ZM1013.5 371.5 1017.5 363.5 1021.5 371.5Z"/><text font-family="Segoe UI,Segoe UI_MSFontService,sans-serif" font-weight="400" font-size="11" transform="translate(319.583 488)">28 MHz <tspan x="5.33334" y="14">TCXO</tspan><tspan font-size="13" x="323.107" y="-2">RTL2832</tspan><tspan font-size="13" x="376.773" y="-2">Clock</tspan><tspan font-size="13" x="204.754" y="43">R820T2 control</tspan></text><path d="M0-0.666667 23.1125-0.666667 23.1125 19.1684 21.7792 19.1684 21.7792 0 22.4459 0.666667 0 0.666667ZM26.4459 17.8351 22.4459 25.8351 18.4459 17.8351Z" transform="matrix(1 0 0 -1 766.5 302.335)"/><path d="M766.5 301.833 789.724 301.833 789.724 322.412 788.391 322.412 788.391 302.5 789.058 303.167 766.5 303.167ZM793.058 321.078 789.058 329.078 785.058 321.078Z"/><rect x="730.5" y="286.5" width="36" height="32" stroke="#000000" stroke-width="1.33333" stroke-miterlimit="8" fill="none"/><text font-family="Calibri,Calibri_MSFontService,sans-serif" font-weight="400" font-size="15" transform="translate(740.039 307)">LO<tspan font-family="Segoe UI,Segoe UI_MSFontService,sans-serif" font-size="12" x="52.7733" y="-11">Cos</tspan><tspan font-family="Segoe UI,Segoe UI_MSFontService,sans-serif" font-size="12" x="54.0875" y="11">Sin</tspan><tspan font-family="Segoe UI,Segoe UI_MSFontService,sans-serif" font-size="12" x="-119.16" y="-38">ADC</tspan></text></g></svg>