<svg width="456" height="213" xmlns="http://www.w3.org/2000/svg" xmlns:xlink="http://www.w3.org/1999/xlink" overflow="hidden"><defs><clipPath id="clip0"><rect x="245" y="108" width="456" height="213"/></clipPath></defs><g clip-path="url(#clip0)" transform="translate(-245 -108)"><path d="M313 279 322 202 340 202 349 279Z" fill="#D9D9D9" fill-rule="evenodd"/><text font-family="Calibri,Calibri_MSFontService,sans-serif" font-weight="400" font-size="24" transform="translate(323.95 255)">A</text><path d="M567 279 576 202 594 202 603 279Z" fill="#BFBFBF" fill-rule="evenodd"/><text font-family="Calibri,Calibri_MSFontService,sans-serif" font-weight="400" font-size="24" transform="translate(582 255)">I</text><path d="M254 279 271.25 202 305.75 202 323 279Z" fill="#C4B4F8" fill-rule="evenodd"/><text font-family="Calibri,Calibri_MSFontService,sans-serif" font-weight="400" font-size="24" transform="translate(277.867 255)">W</text><path d="M0.666667-4.28868e-07 0.666767 156.533-0.666566 156.533-0.666667 4.28868e-07ZM4.0001 155.2 0.000104987 163.2-3.9999 155.2Z" transform="matrix(1 0 0 -1 254.5 279.7)"/><path d="M254.5 278.833 685.967 278.833 685.967 280.167 254.5 280.167ZM684.633 275.5 692.633 279.5 684.633 283.5Z"/><path d="M254.5 159.5 371.745 159.5" stroke="#000000" stroke-width="1.33333" stroke-miterlimit="8" stroke-dasharray="5.33333 4" fill="none" fill-rule="evenodd"/><path d="M371.5 159.5 434.967 279.633" stroke="#000000" stroke-width="1.33333" stroke-miterlimit="8" stroke-dasharray="5.33333 4" fill="none" fill-rule="evenodd"/><path d="M573.279 199.129 550.341 191.066 550.359 191.072 538.671 187.322 538.698 187.33 526.698 184.018 526.727 184.025 514.414 181.212 514.45 181.22 501.7 179.032 501.744 179.038 488.494 177.663 488.539 177.666 474.664 177.166 474.711 177.166 460.211 177.666 460.248 177.664 445.123 179.039 445.155 179.035 429.53 181.223 429.553 181.219 413.49 184.032 413.507 184.029 397.069 187.341 397.084 187.338 380.396 191.088 380.405 191.086 353.139 197.599 352.829 196.303 380.1 189.788 396.799 186.035 413.252 182.72 429.334 179.904 444.986 177.713 460.146 176.334 474.688 175.833 488.609 176.335 501.903 177.714 514.693 179.909 527.038 182.728 539.066 186.049 550.775 189.806 573.721 197.871ZM355.211 200.532 346.5 198.5 353.352 192.751Z" fill="#7F7F7F"/><text font-family="Cambria Math,Cambria Math_MSFontService,sans-serif" font-weight="400" font-size="16" transform="translate(364.451 296)">𝐹<tspan font-size="12" x="6.70667" y="3">𝑠</tspan><tspan x="-3.50668" y="22">2𝐷</tspan></text><path d="M361.011 302.715 366.011 302.715 371.011 302.715 376.011 302.715 381.011 302.715 381.011 303.715 376.011 303.715 371.011 303.715 366.011 303.715 361.011 303.715Z" fill-rule="evenodd"/><text font-family="Cambria Math,Cambria Math_MSFontService,sans-serif" font-weight="400" font-size="16" transform="translate(629.76 297)">𝐹<tspan font-size="12" x="6.70667" y="3">𝑠</tspan><tspan x="2.21997" y="23">2</tspan></text><path d="M629.9 304.03 633.15 304.03 636.4 304.03 639.65 304.03 642.9 304.03 642.9 305.03 639.65 305.03 636.4 305.03 633.15 305.03 629.9 305.03Z" fill-rule="evenodd"/><path d="M636.5 276.5 636.5 284.863" stroke="#000000" stroke-width="0.666667" stroke-miterlimit="8" fill="none" fill-rule="evenodd"/><path d="M371.5 276.5 371.5 284.863" stroke="#000000" stroke-width="0.666667" stroke-miterlimit="8" fill="none" fill-rule="evenodd"/></g></svg>