<svg width="669" height="228" xmlns="http://www.w3.org/2000/svg" xmlns:xlink="http://www.w3.org/1999/xlink" overflow="hidden"><defs><clipPath id="clip0"><rect x="200" y="20" width="669" height="228"/></clipPath></defs><g clip-path="url(#clip0)" transform="translate(-200 -20)"><path d="M331 146.5C331 135.178 340.402 126 352 126 363.598 126 373 135.178 373 146.5 373 157.822 363.598 167 352 167 340.402 167 331 157.822 331 146.5Z" stroke="#000000" stroke-width="2" stroke-miterlimit="8" fill="#FBE5D6" fill-rule="evenodd"/><path d="M352 126 352 167.575" stroke="#000000" stroke-width="2" stroke-miterlimit="8" fill="#FBE5D6" fill-rule="evenodd"/><path d="M331 147 372.575 147" stroke="#000000" stroke-width="2" stroke-miterlimit="8" fill="#FBE5D6" fill-rule="evenodd"/><path d="M846.289 124 846.289 52.9998 847.289 53.9998 202 53.9998 203 52.9998 203 146.329 202 145.329 219.333 145.329 219.333 147.329 201 147.329 201 51.9998 848.289 51.9998 848.289 124ZM218 142.329 226 146.329 218 150.329Z"/><text font-family="Cambria Math,Cambria Math_MSFontService,sans-serif" font-weight="400" font-size="19" transform="translate(727.805 238)">𝑖𝑛𝑝𝑢𝑡<tspan font-size="27" x="-280.461" y="-92">…</tspan></text><rect x="226" y="126" width="41" height="41" stroke="#000000" stroke-width="2" stroke-miterlimit="8" fill="#DEEBF7"/><rect x="267" y="126" width="41" height="41" stroke="#000000" stroke-width="2" stroke-miterlimit="8" fill="#DEEBF7"/><rect x="393" y="126" width="42" height="41" stroke="#000000" stroke-width="2" stroke-miterlimit="8" fill="#DEEBF7"/><rect x="482" y="124" width="42" height="42" stroke="#000000" stroke-width="2" stroke-miterlimit="8" fill="#DEEBF7"/><rect x="616" y="124" width="41" height="42" stroke="#000000" stroke-width="2" stroke-miterlimit="8" fill="#DEEBF7"/><rect x="657" y="124" width="42" height="42" stroke="#000000" stroke-width="2" stroke-miterlimit="8" fill="#DEEBF7"/><rect x="699" y="124" width="41" height="42" stroke="#000000" stroke-width="2" stroke-miterlimit="8" fill="#DEEBF7"/><rect x="740" y="124" width="42" height="42" stroke="#000000" stroke-width="2" stroke-miterlimit="8" fill="#DEEBF7"/><text font-family="Cambria Math,Cambria Math_MSFontService,sans-serif" font-weight="400" font-size="19" transform="translate(259.829 187)">𝑋<tspan font-size="14" x="12.4933" y="-7">1</tspan><tspan font-size="19" x="42.5091" y="0">𝑋</tspan><tspan font-size="14" x="55.4024" y="-7">2</tspan><tspan font-size="19" x="169.24" y="0">𝑋</tspan><tspan font-size="14" x="182.134" y="-7">3</tspan><tspan font-size="19" x="253.072" y="0">𝑋</tspan><tspan font-size="14" x="265.565" y="-7">12</tspan><tspan font-size="19" x="386.034" y="0">𝑋</tspan><tspan font-size="14" x="398.528" y="-7">13</tspan><tspan font-size="19" x="431.98" y="0">𝑋</tspan><tspan font-size="14" x="444.473" y="-7">14</tspan><tspan font-size="19" x="472.272" y="0">𝑋</tspan><tspan font-size="14" x="484.766" y="-7">15</tspan><tspan font-size="19" x="511.789" y="0">𝑋</tspan><tspan font-size="14" x="524.282" y="-7">16</tspan></text><path d="M549 145C549 133.402 558.402 124 570 124 581.598 124 591 133.402 591 145 591 156.598 581.598 166 570 166 558.402 166 549 156.598 549 145Z" stroke="#000000" stroke-width="2" stroke-miterlimit="8" fill="#FBE5D6" fill-rule="evenodd"/><path d="M570 124 570 165.575" stroke="#000000" stroke-width="2" stroke-miterlimit="8" fill="#FBE5D6" fill-rule="evenodd"/><path d="M549 145 590.575 145" stroke="#000000" stroke-width="2" stroke-miterlimit="8" fill="#FBE5D6" fill-rule="evenodd"/><path d="M826 145C826 133.402 835.402 124 847 124 858.598 124 868 133.402 868 145 868 156.598 858.598 166 847 166 835.402 166 826 156.598 826 145Z" stroke="#000000" stroke-width="2" stroke-miterlimit="8" fill="#FBE5D6" fill-rule="evenodd"/><path d="M847 124 847 165.575" stroke="#000000" stroke-width="2" stroke-miterlimit="8" fill="#FBE5D6" fill-rule="evenodd"/><path d="M826 145 867.575 145" stroke="#000000" stroke-width="2" stroke-miterlimit="8" fill="#FBE5D6" fill-rule="evenodd"/><path d="M9.48287e-06-1 37.6182-0.999643 37.6182 1.00036-9.48287e-06 1ZM36.2849-3.99966 44.2848 0.000419947 36.2848 4.00034Z" transform="matrix(1 0 0 -1 782 145)"/><path d="M373 146 386.98 146 386.98 148 373 148ZM385.646 143 393.646 147 385.646 151Z"/><path d="M4.61512e-06-1 16.0818-0.999926 16.0818 1.00007-4.61512e-06 1ZM14.7485-3.99993 22.7485 0.000104987 14.7484 4.00007Z" transform="matrix(1 0 0 -1 308 147)"/><path d="M591 144 609.257 144 609.257 146 591 146ZM607.924 141 615.924 145 607.924 149Z"/><path d="M8.17498e-06-1 19.0183-0.999845 19.0183 1.00016-8.17498e-06 1ZM17.685-3.99986 25.6849 0.000209974 17.6849 4.00014Z" transform="matrix(1 0 0 -1 524 145)"/><path d="M0-1 118.949-1 118.949 72.4292 116.949 72.4292 116.949 0 117.949 1 0 1ZM121.949 71.0958 117.949 79.0958 113.949 71.0958Z" transform="matrix(1 0 0 -1 729 245.096)"/><path d="M353 53 353 119.127 351 119.127 351 53ZM356 117.794 352 125.794 348 117.794Z"/><path d="M571 53 571 119.127 569 119.127 569 53ZM574 117.794 570 125.794 566 117.794Z"/><text font-family="Cambria Math,Cambria Math_MSFontService,sans-serif" font-weight="400" font-size="19" transform="translate(422.779 44)">𝑃<tspan font-size="19" x="11.9533" y="0">(</tspan><tspan font-size="19" x="19.62" y="0">𝑥</tspan><tspan font-size="19" x="30.1866" y="0">)</tspan><tspan font-size="19" x="43.04" y="0">=</tspan><tspan font-size="19" x="62.2267" y="0">𝑋</tspan><tspan font-size="14" x="74.72" y="-7">16</tspan><tspan font-size="19" x="95.3066" y="0">+</tspan><tspan font-size="19" x="113.453" y="0">𝑋</tspan><tspan font-size="14" x="125.947" y="-7">12</tspan><tspan font-size="19" x="146.533" y="0">+</tspan><tspan font-size="19" x="164.68" y="0">𝑋</tspan><tspan font-size="14" x="177.573" y="-7">2</tspan><tspan font-size="19" x="190.327" y="0">+</tspan><tspan font-size="19" x="208.473" y="0">1</tspan></text></g></svg>