<svg width="926" height="155" xmlns="http://www.w3.org/2000/svg" xmlns:xlink="http://www.w3.org/1999/xlink" overflow="hidden"><defs><clipPath id="clip0"><rect x="161" y="483" width="926" height="155"/></clipPath></defs><g clip-path="url(#clip0)" transform="translate(-161 -483)"><path d="M161 542 1084.65 542" stroke="#000000" stroke-width="2" stroke-miterlimit="8" fill="none" fill-rule="evenodd"/><path d="M0 0 67.5839 53.1262" stroke="#000000" stroke-width="2" stroke-miterlimit="8" fill="none" fill-rule="evenodd" transform="matrix(1 0 0 -1 196 541.126)"/><path d="M388.037 594.31 263 488" stroke="#000000" stroke-width="2" stroke-miterlimit="8" fill="none" fill-rule="evenodd"/><path d="M0 0 67.5839 53.1262" stroke="#000000" stroke-width="2" stroke-miterlimit="8" fill="none" fill-rule="evenodd" transform="matrix(1 0 0 -1 387 594.126)"/><path d="M0 0 67.5839 53.1262" stroke="#000000" stroke-width="2" stroke-miterlimit="8" fill="none" fill-rule="evenodd" transform="matrix(1 0 0 -1 496 541.126)"/><path d="M687.037 594.31 562 488" stroke="#000000" stroke-width="2" stroke-miterlimit="8" fill="none" fill-rule="evenodd"/><path d="M0 0 67.5839 53.1262" stroke="#000000" stroke-width="2" stroke-miterlimit="8" fill="none" fill-rule="evenodd" transform="matrix(1 0 0 -1 687 594.126)"/><path d="M0 0 67.5839 53.1262" stroke="#000000" stroke-width="2" stroke-miterlimit="8" fill="none" fill-rule="evenodd" transform="matrix(1 0 0 -1 795 541.126)"/><path d="M987.037 594.31 862 488" stroke="#000000" stroke-width="2" stroke-miterlimit="8" fill="none" fill-rule="evenodd"/><path d="M0 0 67.5839 53.1262" stroke="#000000" stroke-width="2" stroke-miterlimit="8" fill="none" fill-rule="evenodd" transform="matrix(1 0 0 -1 986 594.126)"/><path d="M919.5 542C919.5 538.963 922.186 536.5 925.5 536.5 928.814 536.5 931.5 538.963 931.5 542 931.5 545.038 928.814 547.5 925.5 547.5 922.186 547.5 919.5 545.038 919.5 542Z" stroke="#C55A11" stroke-width="1.33333" stroke-miterlimit="8" fill="#ED7D31" fill-rule="evenodd"/><path d="M633.5 554C633.5 550.963 636.186 548.5 639.5 548.5 642.814 548.5 645.5 550.963 645.5 554 645.5 557.038 642.814 559.5 639.5 559.5 636.186 559.5 633.5 557.038 633.5 554Z" stroke="#C55A11" stroke-width="1.33333" stroke-miterlimit="8" fill="#ED7D31" fill-rule="evenodd"/><path d="M306.5 530C306.5 526.963 309.186 524.5 312.5 524.5 315.814 524.5 318.5 526.963 318.5 530 318.5 533.038 315.814 535.5 312.5 535.5 309.186 535.5 306.5 533.038 306.5 530Z" stroke="#C55A11" stroke-width="1.33333" stroke-miterlimit="8" fill="#ED7D31" fill-rule="evenodd"/><path d="M245.5 498.5C245.5 495.186 248.186 492.5 251.5 492.5 254.814 492.5 257.5 495.186 257.5 498.5 257.5 501.814 254.814 504.5 251.5 504.5 248.186 504.5 245.5 501.814 245.5 498.5Z" stroke="#C00000" stroke-width="1.33333" stroke-miterlimit="8" fill="#FF0000" fill-rule="evenodd"/><path d="M368.5 583.5C368.5 580.186 371.186 577.5 374.5 577.5 377.814 577.5 380.5 580.186 380.5 583.5 380.5 586.814 377.814 589.5 374.5 589.5 371.186 589.5 368.5 586.814 368.5 583.5Z" stroke="#C00000" stroke-width="1.33333" stroke-miterlimit="8" fill="#FF0000" fill-rule="evenodd"/><path d="M569.5 499.5C569.5 496.186 571.963 493.5 575 493.5 578.038 493.5 580.5 496.186 580.5 499.5 580.5 502.814 578.038 505.5 575 505.5 571.963 505.5 569.5 502.814 569.5 499.5Z" stroke="#C00000" stroke-width="1.33333" stroke-miterlimit="8" fill="#FF0000" fill-rule="evenodd"/><path d="M694.5 584.5C694.5 581.186 696.963 578.5 700 578.5 703.038 578.5 705.5 581.186 705.5 584.5 705.5 587.814 703.038 590.5 700 590.5 696.963 590.5 694.5 587.814 694.5 584.5Z" stroke="#C00000" stroke-width="1.33333" stroke-miterlimit="8" fill="#FF0000" fill-rule="evenodd"/><path d="M856.5 490C856.5 486.962 859.186 484.5 862.5 484.5 865.814 484.5 868.5 486.962 868.5 490 868.5 493.038 865.814 495.5 862.5 495.5 859.186 495.5 856.5 493.038 856.5 490Z" stroke="#C00000" stroke-width="1.33333" stroke-miterlimit="8" fill="#FF0000" fill-rule="evenodd"/><path d="M980.5 592C980.5 588.963 982.963 586.5 986 586.5 989.038 586.5 991.5 588.963 991.5 592 991.5 595.038 989.038 597.5 986 597.5 982.963 597.5 980.5 595.038 980.5 592Z" stroke="#C00000" stroke-width="1.33333" stroke-miterlimit="8" fill="#FF0000" fill-rule="evenodd"/><path d="M252.524 613.489C254.33 613.966 255.717 614.994 256.685 616.574 257.652 618.154 258.136 620.061 258.136 622.294 258.136 624.533 257.654 626.439 256.689 628.013 255.724 629.587 254.336 630.612 252.524 631.089L252.301 630.374C253.73 629.898 254.792 628.958 255.488 627.554 256.184 626.15 256.531 624.366 256.531 622.201 256.531 620.11 256.185 618.374 255.492 616.992 254.8 615.609 253.727 614.68 252.273 614.204ZM240.67 613.489 240.921 614.204C239.473 614.68 238.402 615.609 237.706 616.992 237.01 618.374 236.662 620.11 236.662 622.201 236.662 624.366 237.01 626.15 237.706 627.554 238.402 628.958 239.464 629.898 240.893 630.374L240.67 631.089C238.858 630.612 237.469 629.587 236.504 628.013 235.54 626.439 235.057 624.533 235.057 622.294 235.057 620.061 235.541 618.154 236.509 616.574 237.477 614.994 238.864 613.966 240.67 613.489Z" fill-rule="evenodd"/><text font-family="Cambria Math,Cambria Math_MSFontService,sans-serif" font-weight="400" font-size="19" transform="translate(241.134 628)">π‘<tspan font-size="19" x="20.6067" y="0"> </tspan><tspan font-size="19" x="26.8467" y="0">β’</tspan><tspan font-size="19" x="44.9933" y="0">πΈπ‘π‘π‘™π‘¦</tspan><tspan font-size="19" x="92.48" y="0"> </tspan><tspan font-size="19" x="96.6467" y="0">π‘ π‘π‘π‘π‘™π‘–π‘›π‘”</tspan></text><path d="M557.042 609.597C558.848 610.073 560.235 611.101 561.203 612.681 562.171 614.262 562.655 616.168 562.655 618.401 562.655 620.64 562.173 622.546 561.208 624.12 560.243 625.694 558.855 626.72 557.042 627.196L556.82 626.482C558.249 626.005 559.311 625.065 560.007 623.661 560.702 622.257 561.05 620.473 561.05 618.308 561.05 616.218 560.704 614.481 560.011 613.099 559.319 611.717 558.245 610.787 556.792 610.311ZM545.562 609.597 545.813 610.311C544.365 610.787 543.294 611.717 542.598 613.099 541.902 614.481 541.554 616.218 541.554 618.308 541.554 620.473 541.902 622.257 542.598 623.661 543.294 625.065 544.356 626.005 545.785 626.482L545.562 627.196C543.75 626.72 542.362 625.694 541.397 624.12 540.432 622.546 539.949 620.64 539.949 618.401 539.949 616.168 540.433 614.262 541.401 612.681 542.369 611.101 543.756 610.073 545.562 609.597Z" fill-rule="evenodd"/><text font-family="Cambria Math,Cambria Math_MSFontService,sans-serif" font-weight="400" font-size="19" transform="translate(546.026 624)">π‘<tspan font-size="19" x="20.2333" y="0"> </tspan><tspan font-size="19" x="26.4734" y="0">β’</tspan><tspan font-size="19" x="44.6201" y="0">πΏπ‘π‘΅π‘’</tspan><tspan font-size="19" x="82.0334" y="0"> </tspan><tspan font-size="19" x="86.2" y="0">π‘ π‘π‘π‘π‘™π‘–π‘›π‘”</tspan></text><path d="M842.545 609.481C844.351 609.957 845.738 610.985 846.706 612.566 847.674 614.146 848.158 616.052 848.158 618.285 848.158 620.524 847.675 622.43 846.71 624.005 845.746 625.579 844.357 626.604 842.545 627.08L842.322 626.366C843.751 625.889 844.813 624.949 845.509 623.545 846.205 622.141 846.553 620.357 846.553 618.192 846.553 616.102 846.206 614.365 845.514 612.983 844.821 611.601 843.748 610.671 842.294 610.195ZM832.218 609.481 832.468 610.195C831.021 610.671 829.95 611.601 829.254 612.983 828.558 614.365 828.21 616.102 828.21 618.192 828.21 620.357 828.558 622.141 829.254 623.545 829.95 624.949 831.012 625.889 832.441 626.366L832.218 627.08C830.406 626.604 829.017 625.579 828.052 624.005 827.088 622.43 826.605 620.524 826.605 618.285 826.605 616.052 827.089 614.146 828.057 612.566 829.025 610.985 830.412 609.957 832.218 609.481Z" fill-rule="evenodd"/><text font-family="Cambria Math,Cambria Math_MSFontService,sans-serif" font-weight="400" font-size="19" transform="translate(832.682 624)">π‘<tspan font-size="19" x="19.08" y="0"> </tspan><tspan font-size="19" x="25.32" y="0">β’</tspan><tspan font-size="19" x="43.4667" y="0">π¶π‘π‘π‘π‘’π‘π‘΅</tspan><tspan font-size="19" x="108.087" y="0"> </tspan><tspan font-size="19" x="112.253" y="0">π‘ π‘π‘π‘π‘™π‘–π‘›π‘”</tspan></text></g></svg>