<svg width="551" height="341" xmlns="http://www.w3.org/2000/svg" xmlns:xlink="http://www.w3.org/1999/xlink" overflow="hidden"><defs><clipPath id="clip0"><rect x="687" y="71" width="551" height="341"/></clipPath></defs><g clip-path="url(#clip0)" transform="translate(-687 -71)"><path d="M776 181.5C776 170.178 785.626 161 797.5 161 809.374 161 819 170.178 819 181.5 819 192.822 809.374 202 797.5 202 785.626 202 776 192.822 776 181.5Z" stroke="#000000" stroke-width="2" stroke-miterlimit="8" fill="#DEEBF7" fill-rule="evenodd"/><path d="M0 0 30.1464 29.0065" stroke="#000000" stroke-width="2" stroke-miterlimit="8" fill="#DEEBF7" fill-rule="evenodd" transform="matrix(-1 0 0 1 812.146 167)"/><path d="M782 167 812.146 196.007" stroke="#000000" stroke-width="2" stroke-miterlimit="8" fill="#DEEBF7" fill-rule="evenodd"/><path d="M1168 178.5C1168 167.178 1177.4 158 1189 158 1200.6 158 1210 167.178 1210 178.5 1210 189.822 1200.6 199 1189 199 1177.4 199 1168 189.822 1168 178.5Z" stroke="#000000" stroke-width="2" stroke-miterlimit="8" fill="#E2F0D9" fill-rule="evenodd"/><path d="M1177 180.211C1179.33 171.792 1181.65 163.373 1184.35 165.27 1187.04 167.168 1190.39 189.342 1193.16 191.594 1195.94 193.847 1198.47 186.318 1201 178.788" stroke="#000000" stroke-width="2" stroke-miterlimit="8" fill="none" fill-rule="evenodd"/><path d="M0-1 81.6775-1 81.6775 42.7618 80.6775 41.7618 100.689 41.7618 100.689 43.7618 79.6775 43.7618 79.6775 0 80.6775 1 0 1ZM99.3553 38.7618 107.355 42.7618 99.3553 46.7618Z" transform="matrix(1 0 0 -1 819 181.762)"/><path d="M3.33223e-06-1 24.8398-0.999917 24.8398 1.00008-3.33223e-06 1ZM23.5065-3.99992 31.5065 0.000104987 23.5064 4.00008Z" transform="matrix(1 0 0 -1 974 221)"/><text fill="#ED7D31" font-family="Cambria Math,Cambria Math_MSFontService,sans-serif" font-weight="400" font-size="19" transform="translate(971.679 94)">𝐿𝑜𝑜𝑝<tspan font-size="19" x="40.56" y="0"> </tspan><tspan font-size="19" x="44.7267" y="0">𝑓𝑖𝑙𝑡𝑒𝑟</tspan></text><path d="M926 109 974 139 926 169Z" stroke="#000000" stroke-width="2" stroke-miterlimit="8" fill="#FBE5D6" fill-rule="evenodd"/><text font-family="Calibri,Calibri_MSFontService,sans-serif" font-weight="400" font-size="19" transform="translate(928.32 145)">Kp</text><path d="M926 191 974 221 926 251Z" stroke="#000000" stroke-width="2" stroke-miterlimit="8" fill="#FBE5D6" fill-rule="evenodd"/><text font-family="Calibri,Calibri_MSFontService,sans-serif" font-weight="400" font-size="19" transform="translate(930.923 227)">Ki</text><path d="M1005 220.5C1005 209.178 1014.63 200 1026.5 200 1038.37 200 1048 209.178 1048 220.5 1048 231.822 1038.37 241 1026.5 241 1014.63 241 1005 231.822 1005 220.5Z" stroke="#000000" stroke-width="2" stroke-miterlimit="8" fill="#FBE5D6" fill-rule="evenodd"/><path d="M1027 200 1027 241.021" stroke="#000000" stroke-width="2" stroke-miterlimit="8" fill="#FBE5D6" fill-rule="evenodd"/><path d="M1005 221 1047.63 221" stroke="#000000" stroke-width="2" stroke-miterlimit="8" fill="#FBE5D6" fill-rule="evenodd"/><path d="M1088 178.5C1088 167.178 1097.63 158 1109.5 158 1121.37 158 1131 167.178 1131 178.5 1131 189.822 1121.37 199 1109.5 199 1097.63 199 1088 189.822 1088 178.5Z" stroke="#000000" stroke-width="2" stroke-miterlimit="8" fill="#FBE5D6" fill-rule="evenodd"/><path d="M1109 158 1109 199.021" stroke="#000000" stroke-width="2" stroke-miterlimit="8" fill="#FBE5D6" fill-rule="evenodd"/><path d="M1088 179 1130.63 179" stroke="#000000" stroke-width="2" stroke-miterlimit="8" fill="#FBE5D6" fill-rule="evenodd"/><rect x="1083" y="254" width="51" height="41" stroke="#000000" stroke-width="2" stroke-miterlimit="8" fill="#FBE5D6"/><text font-family="Cambria Math,Cambria Math_MSFontService,sans-serif" font-weight="400" font-size="19" transform="translate(1092.54 282)">𝑧<tspan font-size="14" x="9.91333" y="-7">−</tspan><tspan font-size="14" x="19.7467" y="-7">1</tspan></text><path d="M819 181 900.678 181 900.678 221.357 899.678 220.357 919.689 220.357 919.689 222.357 898.678 222.357 898.678 182 899.678 183 819 183ZM918.355 217.357 926.355 221.357 918.355 225.357Z"/><path d="M0.0101968-0.999948 30.2638-0.691444 30.2434 1.30845-0.0101968 0.999948ZM28.9611-3.70488 36.9199 0.376483 28.8795 4.2947Z" transform="matrix(1 0 0 -1 1131 179.376)"/><path d="M0-1 62.2696-1 62.2696 14.7624 60.2696 14.7624 60.2696 0 61.2696 1 0 1ZM65.2696 13.4291 61.2696 21.4291 57.2696 13.4291Z" transform="matrix(1 0 0 -1 1048 220.429)"/><path d="M1046 220 1109.76 220 1109.76 247.909 1107.76 247.909 1107.76 221 1108.76 222 1046 222ZM1112.76 246.576 1108.76 254.576 1104.76 246.576Z"/><path d="M1083.73 275.576 1026 275.576 1026 247.667 1028 247.667 1028 274.576 1027 273.576 1083.73 273.576ZM1023 249 1027 241 1031 249Z"/><path d="M974 138 1110.41 138 1110.41 152.002 1108.41 152.002 1108.41 139 1109.41 140 974 140ZM1113.41 150.668 1109.41 158.668 1105.41 150.668Z"/><text fill="#70AD47" font-family="Cambria Math,Cambria Math_MSFontService,sans-serif" font-weight="400" font-size="19" transform="translate(1169.87 147)">𝑁𝐶𝑂</text><rect x="888" y="105" width="258" height="201" stroke="#000000" stroke-width="2" stroke-miterlimit="8" stroke-dasharray="6 2" fill="none"/><path d="M734 179 760.727 179 760.727 185 734 185ZM757.727 173 775.727 182 757.727 191Z" fill="#C00000"/><path d="M0 3-23.999 3-20.999 0-20.999 156.47-23.999 153.47 412.922 153.47 409.922 156.47 409.922 38.4698 415.922 38.4698 415.922 159.47-26.999 159.47-26.999-3 0-3ZM403.922 41.4699 412.922 23.4699 421.922 41.4699Z" fill="#C00000" transform="matrix(-1 0 0 1 1209.92 179)"/><path d="M784 372 810.727 372 810.727 378 784 378ZM807.727 366 825.727 375 807.727 384Z" fill="#C00000"/><path d="M2.51605e-06-1 35.0602-0.999912 35.0602 1.00009-2.51605e-06 1ZM33.7268-3.99991 41.7268 0.000104987 33.7268 4.00008Z" transform="matrix(1 0 0 -1 784 396)"/><text font-family="Cambria Math,Cambria Math_MSFontService,sans-serif" font-weight="400" font-size="19" transform="translate(696.831 188)">𝑟<tspan font-size="19" x="9.24664" y="0">[</tspan>𝑛<tspan font-size="19" x="26.7333" y="0">]</tspan><tspan font-size="19" x="107.887" y="87">𝐼</tspan><tspan font-size="19" x="115.48" y="87">,</tspan><tspan font-size="19" x="122.427" y="87">𝑄</tspan><tspan font-size="19" x="131.344" y="193">𝐶𝑜𝑚𝑝𝑙𝑒𝑥</tspan><tspan font-size="19" x="204.244" y="193"> </tspan><tspan font-size="19" x="208.411" y="193">𝑑𝑜𝑚𝑎𝑖𝑛</tspan><tspan font-size="19" x="131.344" y="214">𝑅𝑒𝑎𝑙</tspan><tspan font-size="19" x="169.271" y="214"> </tspan><tspan font-size="19" x="173.437" y="214">𝑑𝑜𝑚𝑎𝑖𝑛</tspan><tspan fill="#5B9BD5" font-size="19" x="36.9026" y="-37">𝑃ℎ𝑎𝑠𝑒</tspan><tspan fill="#5B9BD5" font-size="19" x="87.4827" y="-37"> </tspan><tspan fill="#5B9BD5" font-size="19" x="91.6494" y="-37">𝑑𝑒𝑡𝑒𝑐𝑡𝑜𝑟</tspan></text></g></svg>