<svg width="724" height="354" xmlns="http://www.w3.org/2000/svg" xmlns:xlink="http://www.w3.org/1999/xlink" overflow="hidden"><defs><clipPath id="clip0"><rect x="224" y="21" width="724" height="354"/></clipPath><clipPath id="clip1"><rect x="225" y="21" width="397" height="354"/></clipPath><clipPath id="clip2"><rect x="225" y="21" width="397" height="354"/></clipPath><clipPath id="clip3"><rect x="225" y="21" width="397" height="354"/></clipPath></defs><g clip-path="url(#clip0)" transform="translate(-224 -21)"><path d="M1.5-5.20833e-07 1.5001 294.862-1.4999 294.862-1.5 5.20833e-07ZM4.5001 293.362 0.000104987 302.362-4.4999 293.362Z" transform="matrix(6.12323e-17 1 1 -6.12323e-17 626.5 203.5)"/><path d="M1.5-5.20833e-07 1.5001 294.862-1.4999 294.862-1.5 5.20833e-07ZM4.5001 293.362 0.000104987 302.362-4.4999 293.362Z" transform="matrix(1 0 0 -1 773.5 352.862)"/><path d="M659.5 204.5C659.5 140.435 709.644 88.5001 771.5 88.5001 833.356 88.5001 883.5 140.435 883.5 204.5 883.5 268.565 833.356 320.5 771.5 320.5 709.644 320.5 659.5 268.565 659.5 204.5Z" stroke="#7F7F7F" stroke-width="3" stroke-miterlimit="8" fill="none" fill-rule="evenodd"/><path d="M875.5 203C875.5 198.306 879.082 194.5 883.5 194.5 887.918 194.5 891.5 198.306 891.5 203 891.5 207.694 887.918 211.5 883.5 211.5 879.082 211.5 875.5 207.694 875.5 203Z" stroke="#2F5597" stroke-width="1.33333" stroke-miterlimit="8" fill="#5B9BD5" fill-rule="evenodd"/><path d="M651.5 203C651.5 198.306 655.082 194.5 659.5 194.5 663.918 194.5 667.5 198.306 667.5 203 667.5 207.694 663.918 211.5 659.5 211.5 655.082 211.5 651.5 207.694 651.5 203Z" stroke="#2F5597" stroke-width="1.33333" stroke-miterlimit="8" fill="#5B9BD5" fill-rule="evenodd"/><text font-family="Calibri,Calibri_MSFontService,sans-serif" font-weight="400" font-size="24" transform="translate(888.162 194)">+1<tspan font-size="24" x="-256.37" y="0">-</tspan><tspan font-size="24" x="-249.037" y="0">1</tspan><tspan font-size="24" x="36.0761" y="0">I</tspan><tspan font-size="24" x="-107.033" y="-132">Q</tspan></text><path d="M677 215.833 684 215.833 684 218.167 677 218.167ZM686.333 215.833 693.333 215.833 693.333 218.167 686.333 218.167ZM695.667 215.833 702.667 215.833 702.667 218.167 695.667 218.167ZM705 215.833 712 215.833 712 218.167 705 218.167ZM714.333 215.833 721.333 215.833 721.333 218.167 714.333 218.167ZM723.667 215.833 730.667 215.833 730.667 218.167 723.667 218.167ZM733 215.833 740 215.833 740 218.167 733 218.167ZM742.333 215.833 749.333 215.833 749.333 218.167 742.333 218.167ZM751.667 215.833 758.667 215.833 758.667 218.167 751.667 218.167ZM761 215.833 768 215.833 768 218.167 761 218.167ZM770.333 215.833 777.333 215.833 777.333 218.167 770.333 218.167ZM779.667 215.833 786.667 215.833 786.667 218.167 779.667 218.167ZM789 215.833 796 215.833 796 218.167 789 218.167ZM798.333 215.833 805.333 215.833 805.333 218.167 798.333 218.167ZM807.667 215.833 814.667 215.833 814.667 218.167 807.667 218.167ZM817 215.833 824 215.833 824 218.167 817 218.167ZM826.333 215.833 833.333 215.833 833.333 218.167 826.333 218.167ZM835.667 215.833 842.667 215.833 842.667 218.167 835.667 218.167ZM845 215.833 852 215.833 852 218.167 845 218.167ZM854.333 215.833 858.611 215.833 858.611 218.167 854.333 218.167ZM857.277 213 865.277 217 857.277 221Z" fill="#4472C4"/><path d="M6.50554e-07-1.16667 7-1.16666 7 1.16667-6.50554e-07 1.16667ZM9.33333-1.16666 16.3333-1.16666 16.3333 1.16668 9.33333 1.16667ZM18.6667-1.16666 25.6667-1.16665 25.6667 1.16668 18.6667 1.16668ZM28-1.16665 35-1.16665 35 1.16669 28 1.16668ZM37.3333-1.16665 44.3333-1.16664 44.3333 1.16669 37.3333 1.16669ZM46.6667-1.16664 53.6667-1.16664 53.6667 1.1667 46.6667 1.16669ZM56-1.16664 63-1.16663 63 1.1667 56 1.1667ZM65.3333-1.16663 72.3333-1.16663 72.3333 1.16671 65.3333 1.1667ZM74.6667-1.16663 81.6667-1.16662 81.6667 1.16671 74.6667 1.16671ZM84-1.16662 91-1.16662 91 1.16672 84 1.16671ZM93.3333-1.16661 100.333-1.16661 100.333 1.16672 93.3333 1.16672ZM102.667-1.16661 109.667-1.16661 109.667 1.16673 102.667 1.16672ZM112-1.1666 119-1.1666 119 1.16673 112 1.16673ZM121.333-1.1666 128.333-1.1666 128.333 1.16674 121.333 1.16673ZM130.667-1.16659 137.667-1.16659 137.667 1.16674 130.667 1.16674ZM140-1.16659 147-1.16658 147 1.16675 140 1.16674ZM149.333-1.16658 156.333-1.16658 156.333 1.16675 149.333 1.16675ZM158.667-1.16658 165.667-1.16657 165.667 1.16676 158.667 1.16676ZM168-1.16657 175-1.16657 175 1.16676 168 1.16676ZM177.333-1.16657 181.611-1.16657 181.611 1.16677 177.333 1.16677ZM180.277-3.9999 188.277 0.000104987 180.277 4.0001Z" fill="#4472C4" transform="matrix(-1 0 0 1 863.277 190)"/><g clip-path="url(#clip1)"><g clip-path="url(#clip2)"><g clip-path="url(#clip3)"><text font-family="Arial,Arial_MSFontService,sans-serif" font-weight="400" font-size="21" transform="matrix(0.754188 0 0 0.779117 260.181 246)">Carier wave<tspan font-size="21" x="-0.485003" y="-130.917">Binary code PRN</tspan></text><path d="M117.588 129.907 163.923 129.907 163.923 174.839 210.259 174.839 210.259 129.907 256.594 129.907" stroke="#000000" stroke-width="1.87214" fill="none" fill-rule="evenodd" transform="matrix(1 0 0 1.03305 144.672 -54.6548)"/><path d="M256.662 129.937 302.997 129.937 302.997 174.868 349.333 174.868 349.333 129.937 395.668 129.937 395.668 174.868 442.003 174.868" stroke="#000000" stroke-width="1.87214" fill="none" fill-rule="evenodd" transform="matrix(1 0 0 1.03305 144.672 -54.6548)"/><path d="M210.616 257.698C209.459 247.482 208.083 231.336 206.184 235.539 203.786 243.115 202.696 265.614 200.58 276.839 199.327 284.663 197.729 278.877 196.764 270.294 195.141 258.086 193.977 238.832 191.73 234.644 189.911 234.792 188.716 248.726 187.577 259.129 186.449 269.168 185.116 283.798 183.291 279.857 180.823 272.093 179.746 248.45 177.503 237.689 176.05 229.961 174.424 239.241 173.449 248.745 172.058 259.792 170.981 276.138 169.035 280.251 167.221 282.418 165.957 267.744 164.852 257.698M164.852 257.698C163.718 247.482 162.342 284.321 160.444 280.118 158.045 272.541 156.956 249.281 154.839 238.056 153.586 230.231 151.989 236.018 151.023 244.6 149.4 256.808 148.237 276.063 145.99 280.251 144.17 280.103 142.976 266.169 141.837 255.765 140.708 245.727 139.376 231.096 137.55 235.037 135.083 242.801 134.005 266.445 131.762 277.206 130.309 284.933 128.684 275.654 127.709 266.15 126.317 255.102 125.241 238.757 123.295 234.644 121.48 232.476 120.217 247.15 119.088 257.197M302.214 256.658C301.056 266.873 299.611 283.559 297.712 279.356 295.314 271.779 294.224 249.281 292.108 238.056 290.855 230.231 289.257 236.018 288.292 244.6 286.669 256.808 285.505 276.063 283.258 280.251 281.438 280.103 280.244 266.169 279.105 255.765 277.977 245.727 276.644 231.096 274.819 235.037 272.351 242.801 271.274 266.445 269.031 277.206 267.578 284.933 265.952 275.654 264.977 266.15 263.586 255.102 262.509 238.757 260.563 234.644 258.749 232.476 257.485 247.15 256.38 257.197 255.246 267.412 253.87 283.559 251.972 279.356 249.573 271.779 248.484 249.281 246.367 238.056 245.114 230.231 243.517 236.018 242.551 244.6 240.928 256.808 239.765 276.063 237.517 280.251 235.698 280.103 234.504 266.169 233.364 255.765 232.236 245.727 230.904 231.096 229.078 235.037 226.611 242.801 225.533 266.445 223.29 277.206 221.837 284.933 220.212 275.654 219.236 266.15 217.845 255.102 216.768 238.757 214.822 234.644 212.627 234.762 211.744 267.744 210.616 257.698" stroke="#000000" stroke-width="1.85619" stroke-linecap="round" stroke-linejoin="round" fill="none" transform="matrix(1 0 0 1.03305 144.428 38.8618)"/><path d="M440.991 257.698C439.857 247.482 438.481 231.336 436.582 235.539 434.184 243.115 433.094 265.614 430.978 276.839 429.725 284.663 428.128 278.877 427.162 270.294 425.539 258.086 424.376 238.832 422.128 234.644 420.309 234.792 419.114 248.726 417.975 259.129 416.847 269.168 415.515 283.798 413.689 279.857 411.222 272.093 410.144 248.45 407.901 237.689 406.448 229.961 404.823 239.241 403.847 248.745 402.456 259.792 401.379 276.138 399.433 280.251 397.238 280.133 396.355 247.15 395.227 257.197M395.227 257.197C394.07 267.412 392.694 283.559 390.795 279.356 388.397 271.779 387.307 249.281 385.191 238.056 383.938 230.231 382.34 236.018 381.375 244.6 379.752 256.808 378.588 276.063 376.341 280.251 374.522 280.103 373.327 266.169 372.188 255.765 371.06 245.727 369.727 231.096 367.902 235.037 365.434 242.801 364.357 266.445 362.114 277.206 360.661 284.933 359.035 275.654 358.06 266.15 356.669 255.102 355.592 238.757 353.646 234.644 351.832 232.476 350.568 247.15 349.463 257.197M349.463 257.197C348.329 267.412 346.953 230.574 345.055 234.777 342.656 242.353 341.567 265.614 339.45 276.839 338.197 284.663 336.6 278.877 335.634 270.294 334.011 258.086 332.848 238.832 330.601 234.644 328.781 234.792 327.587 248.726 326.447 259.129 325.319 269.168 323.987 283.798 322.161 279.857 319.694 272.093 318.616 248.45 316.373 237.689 314.92 229.961 313.295 239.241 312.32 248.745 310.928 259.792 309.851 276.138 307.905 280.251 306.091 282.418 303.342 266.97 302.214 256.924" stroke="#000000" stroke-width="1.85619" stroke-linecap="round" stroke-linejoin="round" fill="none" transform="matrix(1 0 0 1.03305 144.428 38.8618)"/><text font-family="Arial,Arial_MSFontService,sans-serif" font-weight="400" font-size="21" transform="matrix(0.754188 0 0 0.779117 259.815 345)">BPSK modulated signal</text><path d="M302.692 346.979C301.525 357.193 300.138 373.337 298.224 369.135 295.806 361.56 294.708 339.065 292.574 327.842 291.311 320.018 289.7 325.804 288.726 334.385 287.09 346.591 285.917 365.843 283.652 370.03 281.817 369.882 280.613 355.95 279.465 345.548 278.327 335.512 276.984 320.883 275.143 324.823 272.656 332.586 271.569 356.226 269.308 366.985 267.843 374.711 266.204 365.433 265.221 355.931 263.818 344.885 262.733 328.542 260.771 324.43 258.941 322.263 257.668 336.934 256.554 346.979 255.41 357.193 254.023 373.337 252.109 369.135 249.691 361.56 248.592 339.065 246.459 327.842 245.196 320.018 243.585 325.804 242.611 334.385 240.975 346.591 239.802 365.843 237.536 370.03 235.702 369.882 234.498 355.95 233.349 345.548 232.212 335.512 230.868 320.883 229.028 324.823 226.54 332.586 225.454 356.226 223.193 366.985 221.728 374.711 220.089 365.433 219.106 355.931 217.703 344.885 216.887 328.542 214.925 324.43 213.096 322.263 212.091 336.934 210.954 346.979 209.787 357.193 207.861 373.337 205.947 369.135 203.529 361.56 202.43 339.065 200.296 327.842 199.033 320.018 197.423 325.804 196.449 334.385 194.813 346.591 193.64 365.843 191.374 370.03 189.54 369.882 188.336 355.95 187.187 345.548 186.05 335.512 184.706 320.883 182.866 324.823 180.378 332.586 179.292 356.226 177.031 366.985 175.566 374.711 173.927 365.433 172.943 355.931 171.541 344.885 170.455 328.542 168.493 324.43 166.664 322.263 165.39 336.934 164.276 346.979 163.133 357.193 161.745 373.337 159.831 369.135 157.413 361.56 156.315 339.065 154.181 327.842 152.918 320.018 151.307 325.804 150.334 334.385 148.698 346.591 147.524 365.843 145.259 370.03 143.424 369.882 142.22 355.95 141.072 345.548 139.934 335.512 138.591 320.883 136.75 324.823 134.263 332.586 133.176 356.226 130.915 366.985 129.45 374.711 127.811 365.433 126.828 355.931 125.425 344.885 124.34 328.542 122.378 324.43 120.549 322.263 119.275 336.934 118.137 346.979" stroke="#000000" stroke-width="1.86364" stroke-linecap="round" stroke-linejoin="round" fill="none" transform="matrix(1 0 0 1.03305 144.846 -152.767)"/><path d="M441.105 346.979C439.962 357.193 438.575 373.337 436.661 369.135 434.243 361.56 433.144 339.065 431.01 327.842 429.747 320.018 428.136 325.804 427.163 334.385 425.527 346.591 424.354 365.843 422.088 370.03 420.254 369.882 419.049 355.95 417.901 345.548 416.763 335.512 415.42 320.883 413.579 324.823 411.092 332.586 410.006 356.226 407.744 366.985 406.279 374.711 404.641 365.433 403.657 355.931 402.254 344.885 401.438 328.542 399.476 324.43 397.647 322.263 396.643 336.934 395.505 346.979 394.338 357.193 392.412 373.337 390.498 369.135 388.08 361.56 386.982 339.065 384.848 327.842 383.585 320.018 381.974 325.804 381.001 334.385 379.364 346.591 378.191 365.843 375.926 370.03 374.091 369.882 372.887 355.95 371.739 345.548 370.601 335.512 369.258 320.883 367.417 324.823 364.93 332.586 363.843 356.226 361.582 366.985 360.117 374.711 358.478 365.433 357.495 355.931 356.092 344.885 355.007 328.542 353.045 324.43 351.216 322.263 349.942 336.934 348.828 346.979 347.684 357.193 346.297 373.337 344.383 369.135 341.965 361.56 340.866 339.065 338.733 327.842 337.47 320.018 335.859 325.804 334.885 334.385 333.249 346.591 332.076 365.843 329.811 370.03 327.976 369.882 326.772 355.95 325.623 345.548 324.486 335.512 323.143 320.883 321.302 324.823 318.814 332.586 317.728 356.226 315.467 366.985 314.002 374.711 312.363 365.433 311.38 355.931 309.977 344.885 308.892 328.542 306.93 324.43 305.1 322.263 303.826 336.934 302.689 346.979" stroke="#000000" stroke-width="1.86364" stroke-linecap="round" stroke-linejoin="round" fill="none" transform="matrix(1 0 0 1.03305 144.846 -152.767)"/><text font-family="Arial,Arial_MSFontService,sans-serif" font-weight="400" font-size="21" transform="matrix(0.754188 0 0 0.779117 327.109 63)">0<tspan font-size="21" x="245.332" y="0">1</tspan><tspan font-size="21" x="183.469" y="0">0</tspan><tspan font-size="21" x="61.863" y="0">1</tspan><tspan font-size="21" x="-60.449" y="0">1</tspan><tspan font-size="21" x="306.488" y="0">0</tspan><tspan font-size="21" x="123.019" y="0">1</tspan></text></g></g></g></g></svg>