<svg width="569" height="310" xmlns="http://www.w3.org/2000/svg" xmlns:xlink="http://www.w3.org/1999/xlink" overflow="hidden"><defs><clipPath id="clip0"><rect x="135" y="91" width="569" height="310"/></clipPath></defs><g clip-path="url(#clip0)" transform="translate(-135 -91)"><path d="M298 121.5C298 110.178 307.626 101 319.5 101 331.374 101 341 110.178 341 121.5 341 132.822 331.374 142 319.5 142 307.626 142 298 132.822 298 121.5Z" stroke="#000000" stroke-width="2" stroke-miterlimit="8" fill="#FFFFFF" fill-rule="evenodd"/><path d="M0 0 30.1464 29.0065" stroke="#000000" stroke-width="2" stroke-miterlimit="8" fill="none" fill-rule="evenodd" transform="matrix(-1 0 0 1 335.146 107)"/><path d="M305 107 335.146 136.007" stroke="#000000" stroke-width="2" stroke-miterlimit="8" fill="none" fill-rule="evenodd"/><path d="M298 368.5C298 357.178 307.626 348 319.5 348 331.374 348 341 357.178 341 368.5 341 379.822 331.374 389 319.5 389 307.626 389 298 379.822 298 368.5Z" stroke="#000000" stroke-width="2" stroke-miterlimit="8" fill="#FFFFFF" fill-rule="evenodd"/><path d="M0 0 30.1464 29.0065" stroke="#000000" stroke-width="2" stroke-miterlimit="8" fill="none" fill-rule="evenodd" transform="matrix(-1 0 0 1 335.146 354)"/><path d="M305 354 335.146 383.007" stroke="#000000" stroke-width="2" stroke-miterlimit="8" fill="none" fill-rule="evenodd"/><path d="M660 237.5C660 226.178 669.626 217 681.5 217 693.374 217 703 226.178 703 237.5 703 248.822 693.374 258 681.5 258 669.626 258 660 248.822 660 237.5Z" stroke="#000000" stroke-width="2" stroke-miterlimit="8" fill="#FFFFFF" fill-rule="evenodd"/><path d="M0 0 30.1464 29.0065" stroke="#000000" stroke-width="2" stroke-miterlimit="8" fill="none" fill-rule="evenodd" transform="matrix(-1 0 0 1 696.146 223)"/><path d="M666 223 696.146 252.007" stroke="#000000" stroke-width="2" stroke-miterlimit="8" fill="none" fill-rule="evenodd"/><rect x="467" y="217" width="106" height="41" stroke="#000000" stroke-width="2" stroke-miterlimit="8" fill="none"/><text font-family="Calibri,Calibri_MSFontService,sans-serif" font-weight="400" font-size="19" transform="translate(481.137 243)">Loop <tspan font-size="19" x="41.5" y="0">filter</tspan></text><rect x="501" y="101" width="53" height="41" stroke="#000000" stroke-width="2" stroke-miterlimit="8" fill="none"/><rect x="298" y="275" width="43" height="41" stroke="#000000" stroke-width="2" stroke-miterlimit="8" fill="none"/><text font-family="Cambria Math,Cambria Math_MSFontService,sans-serif" font-weight="400" font-size="19" transform="translate(311.917 289)">𝜋<tspan font-size="19" x="0.533325" y="26">2</tspan></text><path d="M311.951 296.87 317.451 296.87 322.951 296.87 322.951 297.87 317.451 297.87 311.951 297.87Z" fill-rule="evenodd"/><path d="M385 237.5C385 226.178 394.402 217 406 217 417.598 217 427 226.178 427 237.5 427 248.822 417.598 258 406 258 394.402 258 385 248.822 385 237.5Z" stroke="#000000" stroke-width="2" stroke-miterlimit="8" fill="#FFFFFF" fill-rule="evenodd"/><path d="M395 238.774C397.23 230.044 399.459 221.313 402.041 223.28 404.622 225.248 407.83 248.243 410.49 250.579 413.15 252.916 415.575 245.107 418 237.299" stroke="#000000" stroke-width="2" stroke-miterlimit="8" fill="none" fill-rule="evenodd"/><path d="M385.164 238.431 319 238.431 319 148.667 321 148.667 321 237.431 320 236.431 385.164 236.431ZM316 150 320 142 324 150Z"/><path d="M0-1 66.1639-1 66.1639 31.1702 64.1639 31.1702 64.1639 0 65.1639 1 0 1ZM69.1639 29.8368 65.1639 37.8368 61.1639 29.8368Z" transform="matrix(-1 1.22465e-16 1.22465e-16 1 385.164 238)"/><path d="M321 316 321 340.588 319 340.588 319 316ZM324 339.255 320 347.255 316 339.255Z"/><path d="M2.64377e-06-1 33.0444-0.999913 33.0444 1.00009-2.64377e-06 1ZM31.7111-3.99992 39.7111 0.000104987 31.7111 4.00008Z" transform="matrix(-1 0 0 1 466.711 238)"/><path d="M508 114 527.176 114" stroke="#000000" stroke-width="2" stroke-miterlimit="8" fill="none" fill-rule="evenodd"/><path d="M527 114 544.672 136.607" stroke="#000000" stroke-width="2" stroke-miterlimit="8" fill="none" fill-rule="evenodd"/><rect x="501" y="348" width="53" height="41" stroke="#000000" stroke-width="2" stroke-miterlimit="8" fill="none"/><path d="M508 360 527.176 360" stroke="#000000" stroke-width="2" stroke-miterlimit="8" fill="none" fill-rule="evenodd"/><path d="M527 360 544.672 382.607" stroke="#000000" stroke-width="2" stroke-miterlimit="8" fill="none" fill-rule="evenodd"/><path d="M0.000377221-1 153.365-0.942147 153.365 1.05785-0.000377221 1ZM152.033-3.94265 160.032 0.0603675 152.03 4.05735Z" transform="matrix(1 0 0 -1 341 368.06)"/><path d="M341 121 494.365 121 494.365 123 341 123ZM493.032 118 501.032 122 493.032 126Z"/><path d="M554 121 682.725 121 682.725 210.764 680.725 210.764 680.725 122 681.725 123 554 123ZM685.725 209.431 681.725 217.431 677.725 209.431Z"/><path d="M0-1 128.725-1 128.725 103.386 126.725 103.386 126.725 0 127.725 1 0 1ZM131.725 102.053 127.725 110.053 123.725 102.053Z" transform="matrix(1 0 0 -1 554 368.053)"/><path d="M1.20353e-06-1 80.566-0.999903 80.566 1.0001-1.20353e-06 1ZM79.2327-3.9999 87.2327 0.000104987 79.2326 4.0001Z" transform="matrix(-1 0 0 1 660.233 238)"/><path d="M0-1 82.2907-1 82.2907 115.168 81.2907 114.168 155.915 114.168 155.915 116.168 80.2907 116.168 80.2907 0 81.2907 1 0 1ZM154.581 111.168 162.581 115.168 154.581 119.168Z" transform="matrix(1 0 0 -1 136 237.168)"/><path d="M136 237 218.291 237 218.291 368.624 217.291 367.624 291.915 367.624 291.915 369.624 216.291 369.624 216.291 238 217.291 239 136 239ZM290.581 364.624 298.581 368.624 290.581 372.624Z"/><text font-family="Cambria Math,Cambria Math_MSFontService,sans-serif" font-weight="400" font-size="19" transform="translate(160.476 230)">𝑟<tspan font-size="19" x="9.24667" y="0">(</tspan><tspan font-size="19" x="16.9133" y="0">𝑡</tspan><tspan font-size="19" x="24.7" y="0">)</tspan><tspan font-size="19" x="230.195" y="-115">𝑥</tspan><tspan font-size="14" x="240.015" y="-111">𝐼</tspan><tspan font-size="19" x="246.555" y="-115">(</tspan><tspan font-size="19" x="254.221" y="-115">𝑡</tspan><tspan font-size="19" x="262.008" y="-115">)</tspan><tspan font-size="19" x="226.655" y="159">𝑥</tspan><tspan font-size="14" x="236.475" y="163">𝑄</tspan><tspan font-size="19" x="247.115" y="159">(</tspan><tspan font-size="19" x="254.781" y="159">𝑡</tspan><tspan font-size="19" x="262.568" y="159">)</tspan><tspan font-size="19" x="422.415" y="-116">𝑥</tspan><tspan font-size="14" x="432.235" y="-112">𝐿𝑃𝐼</tspan><tspan font-size="19" x="455.108" y="-116">(</tspan><tspan font-size="19" x="462.775" y="-116">𝑡</tspan><tspan font-size="19" x="470.561" y="-116">)</tspan><tspan font-size="19" x="425.088" y="157">𝑥</tspan><tspan font-size="14" x="434.908" y="161">𝐿𝑃𝑄</tspan><tspan font-size="19" x="461.881" y="157">(</tspan><tspan font-size="19" x="469.548" y="157">𝑡</tspan><tspan font-size="19" x="477.334" y="157">)</tspan><tspan font-size="19" x="434.584" y="0">𝑥</tspan><tspan font-size="14" x="444.404" y="4">𝐿𝐹</tspan><tspan font-size="19" x="461.644" y="0">(</tspan><tspan font-size="19" x="469.311" y="0">𝑡</tspan><tspan font-size="19" x="477.097" y="0">)</tspan><tspan font-size="19" x="165.445" y="-55">2cos</tspan><tspan font-size="19" x="201.778" y="-55">⁡</tspan>(<tspan font-size="19" x="209.445" y="-55">𝜔</tspan><tspan font-size="14" x="222.945" y="-51">0</tspan><tspan font-size="19" x="231.552" y="-55">𝑡</tspan><tspan font-size="19" x="243.485" y="-55">+</tspan><tspan font-size="19" x="261.632" y="-55"> </tspan><tspan font-size="19" x="265.798" y="-55">𝜑</tspan><tspan font-size="19" x="278.865" y="-55">)</tspan><tspan font-size="19" x="165.968" y="111">−</tspan>2sin⁡(<tspan font-size="19" x="221.635" y="111">𝜔</tspan><tspan font-size="14" x="235.135" y="115">0</tspan><tspan font-size="19" x="243.741" y="111">𝑡</tspan><tspan font-size="19" x="255.674" y="111">+</tspan><tspan font-size="19" x="273.821" y="111"> </tspan><tspan font-size="19" x="277.988" y="111">𝜑</tspan><tspan font-size="19" x="291.055" y="111">)</tspan></text></g></svg>