<svg width="839" height="285" xmlns="http://www.w3.org/2000/svg" xmlns:xlink="http://www.w3.org/1999/xlink" overflow="hidden"><defs><clipPath id="clip0"><rect x="137" y="148" width="839" height="285"/></clipPath></defs><g clip-path="url(#clip0)" transform="translate(-137 -148)"><path d="M613 181.5C613 170.178 622.402 161 634 161 645.598 161 655 170.178 655 181.5 655 192.822 645.598 202 634 202 622.402 202 613 192.822 613 181.5Z" stroke="#000000" stroke-width="2" stroke-miterlimit="8" fill="#FFFFFF" fill-rule="evenodd"/><path d="M0 0 29.3979 29.3979" stroke="#000000" stroke-width="2" stroke-miterlimit="8" fill="none" fill-rule="evenodd" transform="matrix(-1 0 0 1 648.398 167)"/><path d="M619 167 648.398 196.398" stroke="#000000" stroke-width="2" stroke-miterlimit="8" fill="none" fill-rule="evenodd"/><path d="M613 399C613 387.402 622.402 378 634 378 645.598 378 655 387.402 655 399 655 410.598 645.598 420 634 420 622.402 420 613 410.598 613 399Z" stroke="#000000" stroke-width="2" stroke-miterlimit="8" fill="#FFFFFF" fill-rule="evenodd"/><path d="M0 0 29.3979 29.3979" stroke="#000000" stroke-width="2" stroke-miterlimit="8" fill="none" fill-rule="evenodd" transform="matrix(-1 0 0 1 648.398 384)"/><path d="M619 384 648.398 413.398" stroke="#000000" stroke-width="2" stroke-miterlimit="8" fill="none" fill-rule="evenodd"/><path d="M835 287C835 275.402 844.178 266 855.5 266 866.822 266 876 275.402 876 287 876 298.598 866.822 308 855.5 308 844.178 308 835 298.598 835 287Z" stroke="#000000" stroke-width="2" stroke-miterlimit="8" fill="#FFFFFF" fill-rule="evenodd"/><path d="M856 266 856 307.575" stroke="#000000" stroke-width="2" stroke-miterlimit="8" fill="none" fill-rule="evenodd"/><path d="M835 287 876.575 287" stroke="#000000" stroke-width="2" stroke-miterlimit="8" fill="none" fill-rule="evenodd"/><rect x="612" y="298" width="43" height="41" stroke="#000000" stroke-width="2" stroke-miterlimit="8" fill="none"/><text font-family="Cambria Math,Cambria Math_MSFontService,sans-serif" font-weight="400" font-size="19" transform="translate(625.995 311)">𝜋<tspan font-size="19" x="0.533325" y="27">2</tspan></text><path d="M626.028 319.474 631.528 319.474 637.028 319.474 637.028 320.474 631.528 320.474 626.028 320.474Z" fill-rule="evenodd"/><path d="M700 268.5C700 257.178 709.178 248 720.5 248 731.822 248 741 257.178 741 268.5 741 279.822 731.822 289 720.5 289 709.178 289 700 279.822 700 268.5Z" stroke="#000000" stroke-width="2" stroke-miterlimit="8" fill="#FFFFFF" fill-rule="evenodd"/><path d="M710 269.211C712.23 260.792 714.459 252.373 717.041 254.27 719.622 256.168 722.83 278.342 725.49 280.594 728.15 282.847 730.575 275.318 733 267.788" stroke="#000000" stroke-width="2" stroke-miterlimit="8" fill="none" fill-rule="evenodd"/><path d="M700.096 269.242 633 269.242 633 208.667 635 208.667 635 268.242 634 267.242 700.096 267.242ZM630 210 634 202 638 210Z"/><path d="M0-1 67.0958-1 67.0958 22.7687 65.0958 22.7687 65.0958 0 66.0958 1 0 1ZM70.0958 21.4354 66.0958 29.4354 62.0959 21.4354Z" transform="matrix(-1 1.22465e-16 1.22465e-16 1 700.096 269)"/><path d="M1-2.66602e-06 1.00009 32.713-0.999913 32.713-1 2.66602e-06ZM4.00008 31.3796 0.000104987 39.3796-3.99992 31.3796Z" transform="matrix(-1 0 0 1 634 339)"/><path d="M655 181 857.138 181 857.138 260.217 855.138 260.217 855.138 182 856.138 183 655 183ZM860.138 258.883 856.138 266.883 852.138 258.883Z"/><path d="M0-1 202.138-1 202.138 84.5282 200.138 84.5282 200.138 0 201.138 1 0 1ZM205.138 83.1949 201.138 91.1949 197.138 83.1949Z" transform="matrix(1 0 0 -1 655 399.195)"/><text font-family="Cambria Math,Cambria Math_MSFontService,sans-serif" font-weight="400" font-size="19" transform="translate(541.347 171)">𝑋<tspan font-size="14" x="11.18" y="4">𝐼</tspan><tspan font-size="19" x="17.72" y="0">(</tspan><tspan font-size="19" x="25.3867" y="0">𝑡</tspan><tspan font-size="19" x="33.1733" y="0">)</tspan><tspan font-size="19" x="2.70538" y="248">𝑋</tspan><tspan font-size="14" x="13.8854" y="252">𝑄</tspan><tspan font-size="19" x="24.5254" y="248">(</tspan><tspan font-size="19" x="32.192" y="248">𝑡</tspan><tspan font-size="19" x="39.9787" y="248">)</tspan><tspan font-size="19" x="96.4653" y="63">cos</tspan>⁡(<tspan font-size="19" x="130.132" y="63">𝜔</tspan><tspan font-size="14" x="143.632" y="67">0</tspan><tspan font-size="19" x="152.239" y="63">𝑡</tspan><tspan font-size="19" x="160.025" y="63">)</tspan><tspan font-size="19" x="96.4653" y="192">−</tspan>sin<tspan font-size="19" x="134.132" y="192">⁡</tspan>(<tspan font-size="19" x="141.799" y="192">𝜔</tspan><tspan font-size="14" x="155.299" y="196">0</tspan><tspan font-size="19" x="163.905" y="192">𝑡</tspan><tspan font-size="19" x="171.692" y="192">)</tspan></text><path d="M18.6842 0 0 20.618 18.6842 42 71 42 71 0 18.6842 0Z" stroke="#000000" stroke-width="2" stroke-miterlimit="8" fill="#FFFFFF" fill-rule="evenodd" transform="matrix(-1 0 0 1 432 160)"/><text font-family="Lato,Lato_MSFontService,sans-serif" font-weight="400" font-size="16" transform="translate(379.66 188)">DAC</text><rect x="469" y="161" width="52" height="41" stroke="#000000" stroke-width="2" stroke-miterlimit="8" fill="none"/><path d="M476 173 495.176 173" stroke="#000000" stroke-width="2" stroke-miterlimit="8" fill="none" fill-rule="evenodd"/><path d="M495 173 512.672 195.607" stroke="#000000" stroke-width="2" stroke-miterlimit="8" fill="none" fill-rule="evenodd"/><path d="M432.01 180 461.866 180.312 461.845 182.311 431.99 182ZM460.564 177.298 468.522 181.381 460.481 185.297Z"/><path d="M521.003 180 606.061 180.257 606.055 182.257 520.997 182ZM604.737 177.253 612.725 181.277 604.713 185.253Z"/><path d="M18.6842 0 0 20.618 18.6842 42 71 42 71 0 18.6842 0Z" stroke="#000000" stroke-width="2" stroke-miterlimit="8" fill="#FFFFFF" fill-rule="evenodd" transform="matrix(-1 0 0 1 432 378)"/><text font-family="Lato,Lato_MSFontService,sans-serif" font-weight="400" font-size="16" transform="translate(379.66 405)">DAC</text><rect x="469" y="379" width="52" height="41" stroke="#000000" stroke-width="2" stroke-miterlimit="8" fill="none"/><path d="M476 391 495.176 391" stroke="#000000" stroke-width="2" stroke-miterlimit="8" fill="none" fill-rule="evenodd"/><path d="M495 391 512.672 413.607" stroke="#000000" stroke-width="2" stroke-miterlimit="8" fill="none" fill-rule="evenodd"/><path d="M432.01 398 461.866 398.312 461.845 400.311 431.99 400ZM460.564 395.298 468.522 399.381 460.481 403.297Z"/><path d="M521.002 398 606.059 398.129 606.056 400.129 520.998 400ZM604.731 395.127 612.725 399.139 604.719 403.127Z"/><text font-family="Cambria Math,Cambria Math_MSFontService,sans-serif" font-weight="400" font-size="19" transform="translate(691.916 421)">−𝑋<tspan font-size="14" x="25.18" y="4">𝑄</tspan><tspan font-size="19" x="35.82" y="0">(</tspan><tspan font-size="19" x="43.4867" y="0">t</tspan><tspan font-size="19" x="49.82" y="0">)</tspan><tspan font-size="19" x="57.4867" y="0">sin</tspan><tspan font-size="19" x="81.1533" y="0">⁡</tspan>(<tspan font-size="19" x="88.82" y="0">𝜔</tspan><tspan font-size="14" x="102.32" y="4">0</tspan><tspan font-size="19" x="110.927" y="0">𝑡</tspan><tspan font-size="19" x="118.713" y="0">)</tspan><tspan font-size="19" x="12.6833" y="-249">𝑋</tspan><tspan font-size="14" x="23.8633" y="-246">𝐼</tspan></text><path d="M738.456 157.413C740.262 157.89 741.649 158.918 742.617 160.498 743.585 162.078 744.069 163.985 744.069 166.218 744.069 168.457 743.586 170.363 742.622 171.937 741.657 173.511 740.268 174.536 738.456 175.013L738.233 174.298C739.662 173.822 740.724 172.882 741.42 171.478 742.116 170.074 742.464 168.29 742.464 166.125 742.464 164.034 742.117 162.298 741.425 160.916 740.732 159.533 739.659 158.604 738.206 158.128ZM729.602 157.413 729.853 158.128C728.406 158.604 727.334 159.533 726.638 160.916 725.942 162.298 725.595 164.034 725.595 166.125 725.595 168.29 725.942 170.074 726.638 171.478 727.334 172.882 728.396 173.822 729.825 174.298L729.602 175.013C727.79 174.536 726.402 173.511 725.437 171.937 724.472 170.363 723.99 168.457 723.99 166.218 723.99 163.985 724.474 162.078 725.441 160.498 726.409 158.918 727.796 157.89 729.602 157.413Z" fill-rule="evenodd"/><text font-family="Cambria Math,Cambria Math_MSFontService,sans-serif" font-weight="400" font-size="19" transform="translate(730.066 172)">𝑡<tspan font-size="19" x="15.5333" y="0">cos</tspan>⁡(<tspan font-size="19" x="49.2" y="0">𝜔</tspan><tspan font-size="14" x="62.7" y="3">0</tspan><tspan font-size="19" x="71.3067" y="0">𝑡</tspan><tspan font-size="19" x="79.0933" y="0">)</tspan></text><path d="M3.07781e-06-1 27.4442-0.999915 27.4442 1.00008-3.07781e-06 1ZM26.1109-3.99992 34.1109 0.000104987 26.1109 4.00008Z" transform="matrix(1 0 0 -1 876 287)"/><text font-family="Cambria Math,Cambria Math_MSFontService,sans-serif" font-weight="400" font-size="19" transform="translate(914.256 290)">𝑥<tspan font-size="14" x="9.82001" y="4">𝑅𝐹</tspan><tspan font-size="19" x="28.56" y="0">(</tspan><tspan font-size="19" x="36.2267" y="0">𝑡</tspan><tspan font-size="19" x="44.0134" y="0">)</tspan></text><rect x="139" y="161" width="176" height="259" stroke="#000000" stroke-width="2" stroke-miterlimit="8" fill="none"/><text font-family="Cambria Math,Cambria Math_MSFontService,sans-serif" font-weight="400" font-size="19" transform="translate(183.395 286)">𝐵𝑎𝑠𝑒𝑏𝑎𝑛𝑑<tspan font-size="19" x="-0.91333" y="22">𝑃𝑟𝑜𝑐𝑒𝑠𝑠𝑜𝑟</tspan></text><path d="M315 180 354.196 180 354.196 182 315 182ZM352.862 177 360.862 181 352.862 185Z"/><path d="M315 399 354.196 399 354.196 401 315 401ZM352.862 396 360.862 400 352.862 404Z"/></g></svg>