<svg width="400" height="163" xmlns="http://www.w3.org/2000/svg" xmlns:xlink="http://www.w3.org/1999/xlink" overflow="hidden"><defs><clipPath id="clip0"><rect x="581" y="337" width="400" height="163"/></clipPath></defs><g clip-path="url(#clip0)" transform="translate(-581 -337)"><path d="M0.666667-5.50064e-07 0.666766 120.575-0.666567 120.575-0.666667 5.50064e-07ZM4.0001 119.242 0.000104987 127.242-3.9999 119.242Z" transform="matrix(1 0 0 -1 637.5 473.742)"/><path d="M0.000201101-0.666667 361.56-0.557602 361.56 0.775732-0.000201101 0.666667ZM360.228-3.89134 368.227 0.111076 360.226 4.10866Z" transform="matrix(1 0 0 -1 581.5 473.611)"/><text font-family="Cambria Math,Cambria Math_MSFontService,sans-serif" font-weight="400" font-size="19" transform="translate(966.779 480)">𝑓<tspan font-size="19" x="-349.079" y="14">0</tspan><tspan font-size="19" x="-338.745" y="14"> </tspan><tspan font-size="19" x="-334.579" y="14">𝐻𝑧</tspan><tspan font-size="19" x="-169.525" y="14">𝜔</tspan><tspan font-size="14" x="-156.025" y="18">0</tspan></text><path d="M0.666667-4.3927e-06 0.666728 9.26687-0.666606 9.26688-0.666667 4.3927e-06ZM4.00005 7.93352 0.000104987 15.9335-3.99995 7.93357Z" transform="matrix(1 0 0 -1 807.5 473.434)"/><path d="M773.5 403.1 841.5 385.5 841.5 473.5 773.5 473.5Z" stroke="#2F528F" stroke-width="1.33333" stroke-miterlimit="8" fill="#5B9BD5" fill-rule="evenodd" fill-opacity="0.501961"/></g></svg>