<svg width="456" height="218" xmlns="http://www.w3.org/2000/svg" xmlns:xlink="http://www.w3.org/1999/xlink" overflow="hidden"><defs><clipPath id="clip0"><rect x="686" y="376" width="456" height="218"/></clipPath></defs><g clip-path="url(#clip0)" transform="translate(-686 -376)"><rect x="775" y="468" width="278" height="81" fill="#D9D9D9"/><path d="M0.666667-4.28868e-07 0.666767 156.533-0.666566 156.533-0.666667 4.28868e-07ZM4.0001 155.2 0.000104987 163.2-3.9999 155.2Z" transform="matrix(1 0 0 -1 914.5 548.7)"/><path d="M702.166 548.833 1126.97 548.833 1126.97 550.167 702.166 550.167ZM703.5 553.5 695.5 549.5 703.5 545.5ZM1125.63 545.5 1133.63 549.5 1125.63 553.5Z"/><text font-family="Cambria Math,Cambria Math_MSFontService,sans-serif" font-weight="400" font-size="16" transform="translate(1046.46 570)">𝐹<tspan font-size="12" x="6.70667" y="3">𝑠</tspan><tspan x="2.21997" y="23">2</tspan></text><path d="M1046.6 577.005 1049.85 577.005 1053.1 577.005 1056.35 577.005 1059.6 577.005 1059.6 578.005 1056.35 578.005 1053.1 578.005 1049.85 578.005 1046.6 578.005Z" fill-rule="evenodd"/><text font-family="Cambria Math,Cambria Math_MSFontService,sans-serif" font-weight="400" font-size="16" transform="translate(761.175 582)">−<tspan x="14.6667" y="-12">𝐹</tspan><tspan font-size="12" x="21.3734" y="-9">𝑠</tspan><tspan x="16.8867" y="11">2</tspan></text><path d="M776.235 577.005 782.735 577.005 789.235 577.005 789.235 578.005 782.735 578.005 776.235 578.005Z" fill-rule="evenodd"/><text font-family="Cambria Math,Cambria Math_MSFontService,sans-serif" font-weight="400" font-size="16" transform="translate(924.432 460)">𝑃𝑆<tspan x="18.8133" y="0">𝐷</tspan><tspan font-size="12" x="28.8733" y="3">𝑛𝑜𝑖𝑠𝑒</tspan></text><path d="M901.5 468.5 928.333 468.5" stroke="#000000" stroke-miterlimit="8" fill="none" fill-rule="evenodd"/></g></svg>