<svg width="329" height="182" xmlns="http://www.w3.org/2000/svg" xmlns:xlink="http://www.w3.org/1999/xlink" overflow="hidden"><defs><clipPath id="clip0"><rect x="63" y="360" width="329" height="182"/></clipPath></defs><g clip-path="url(#clip0)" transform="translate(-63 -360)"><path d="M207 414.5C207 403.178 216.178 394 227.5 394 238.822 394 248 403.178 248 414.5 248 425.822 238.822 435 227.5 435 216.178 435 207 425.822 207 414.5Z" stroke="#000000" stroke-width="2" stroke-miterlimit="8" fill="#FFFFFF" fill-rule="evenodd"/><path d="M0 0 29.3979 29.3979" stroke="#000000" stroke-width="2" stroke-miterlimit="8" fill="none" fill-rule="evenodd" transform="matrix(-1 0 0 1 242.398 400)"/><path d="M213 400 242.398 429.398" stroke="#000000" stroke-width="2" stroke-miterlimit="8" fill="none" fill-rule="evenodd"/><path d="M207 490C207 478.402 216.178 469 227.5 469 238.822 469 248 478.402 248 490 248 501.598 238.822 511 227.5 511 216.178 511 207 501.598 207 490Z" stroke="#000000" stroke-width="2" stroke-miterlimit="8" fill="#FFFFFF" fill-rule="evenodd"/><path d="M216 490.774C218.23 482.044 220.459 473.313 223.041 475.28 225.622 477.248 228.83 500.243 231.49 502.579 234.15 504.916 236.575 497.107 239 489.299" stroke="#000000" stroke-width="2" stroke-miterlimit="8" fill="none" fill-rule="evenodd"/><path d="M132 414 199.597 414 199.597 416 132 416ZM198.264 411 206.264 415 198.264 419Z"/><path d="M248 414 312.839 414 312.839 416 248 416ZM311.505 411 319.505 415 311.505 419Z"/><text font-family="Cambria Math,Cambria Math_MSFontService,sans-serif" font-weight="400" font-size="19" transform="translate(202.159 384)">𝑀𝑖𝑥𝑒𝑟<tspan font-size="19" x="-31.0874" y="148">cos</tspan>⁡(<tspan font-size="19" x="2.57921" y="148">𝜔</tspan><tspan font-size="14" x="16.0792" y="152">0</tspan><tspan font-size="19" x="24.6859" y="148">𝑡</tspan><tspan font-size="19" x="36.6192" y="148">+</tspan><tspan font-size="19" x="54.7659" y="148"> </tspan><tspan font-size="19" x="58.9325" y="148">Φ</tspan><tspan font-size="19" x="73.5992" y="148">)</tspan></text><path d="M1-3.11474e-06 1.00008 27.0398-0.999916 27.0398-1 3.11474e-06ZM4.00008 25.7064 0.000104987 33.7065-3.99992 25.7065Z" transform="matrix(1 0 0 -1 227 468.706)"/><text font-family="Cambria Math,Cambria Math_MSFontService,sans-serif" font-weight="400" font-size="19" transform="translate(73.3828 419)">𝑥<tspan font-size="14" x="9.82" y="4">𝐵𝐵</tspan><tspan font-size="19" x="29.2933" y="0">(</tspan><tspan font-size="19" x="36.96" y="0">𝑡</tspan><tspan font-size="19" x="44.7467" y="0">)</tspan><tspan font-size="19" x="255.103" y="0">𝑥</tspan><tspan font-size="14" x="264.923" y="4">𝑅𝐹</tspan><tspan font-size="19" x="283.663" y="0">(</tspan>𝑡<tspan font-size="19" x="299.116" y="0">)</tspan></text></g></svg>