<svg width="305" height="262" xmlns="http://www.w3.org/2000/svg" xmlns:xlink="http://www.w3.org/1999/xlink" overflow="hidden"><defs><clipPath id="clip0"><rect x="426" y="99" width="305" height="262"/></clipPath></defs><g clip-path="url(#clip0)" transform="translate(-426 -99)"><path d="M0.666667-4.362e-07 0.666767 153.79-0.666566 153.79-0.666667 4.362e-07ZM4.0001 152.457 0.000104987 160.457-3.9999 152.457Z" transform="matrix(1 0 0 -1 579.5 268.957)"/><path d="M442.167 268.833 716.389 268.833 716.389 270.167 442.167 270.167ZM443.5 273.5 435.5 269.5 443.5 265.5ZM715.056 265.5 723.056 269.5 715.056 273.5Z"/><text font-family="Cambria Math,Cambria Math_MSFontService,sans-serif" font-weight="400" font-size="16" transform="translate(661.883 289)">ğ‘‡<tspan font-size="16" x="0.506653" y="23">2</tspan></text><path d="M662.063 296.579 665.396 296.579 668.729 296.579 672.063 296.579 672.063 297.579 668.729 297.579 665.396 297.579 662.063 297.579Z" fill-rule="evenodd"/><text font-family="Cambria Math,Cambria Math_MSFontService,sans-serif" font-weight="400" font-size="16" transform="translate(473.852 302)">âˆ’<tspan font-size="16" x="14.6667" y="-13">ğ‘‡</tspan><tspan font-size="16" x="15.1733" y="10">2</tspan></text><path d="M488.946 296.579 493.946 296.579 498.946 296.579 498.946 297.579 493.946 297.579 488.946 297.579Z" fill-rule="evenodd"/><path d="M566.5 156.5 593.333 156.5" stroke="#000000" stroke-miterlimit="8" fill="none" fill-rule="evenodd"/><path d="M454.5 268.5 493.167 268.5" stroke="#4472C4" stroke-width="3" stroke-miterlimit="8" fill="none" fill-rule="evenodd"/><path d="M667.5 268.5 706.167 268.5" stroke="#4472C4" stroke-width="3" stroke-miterlimit="8" fill="none" fill-rule="evenodd"/><path d="M0 0 0.000104987 112.135" stroke="#4472C4" stroke-width="3" stroke-miterlimit="8" fill="none" fill-rule="evenodd" transform="matrix(1 0 0 -1 493.5 268.635)"/><path d="M491.5 156.5 669.389 156.5" stroke="#4472C4" stroke-width="3" stroke-miterlimit="8" fill="none" fill-rule="evenodd"/><path d="M0 0 0.000104987 112.135" stroke="#4472C4" stroke-width="3" stroke-miterlimit="8" fill="none" fill-rule="evenodd" transform="matrix(1 0 0 -1 668.5 269.635)"/><path d="M0 0 86.6669 112.135" stroke="#ED7D31" stroke-width="3" stroke-miterlimit="8" fill="none" fill-rule="evenodd" transform="matrix(1 0 0 -1 493.5 268.635)"/><path d="M666.167 268.747 579.5 157.5" stroke="#ED7D31" stroke-width="3" stroke-miterlimit="8" fill="none" fill-rule="evenodd"/><text font-family="Cambria Math,Cambria Math_MSFontService,sans-serif" font-weight="400" font-size="16" transform="translate(569.266 151)">1<tspan fill="#0070C0" font-family="Calibri,Calibri_MSFontService,sans-serif" font-size="19" x="-82.5265" y="194">Rect</tspan><tspan fill="#0070C0" font-family="Calibri,Calibri_MSFontService,sans-serif" font-size="19" x="-49.1865" y="194">(t) </tspan><tspan font-family="Calibri,Calibri_MSFontService,sans-serif" font-size="19" x="-27.3532" y="194">/</tspan><tspan fill="#ED7D31" font-family="Calibri,Calibri_MSFontService,sans-serif" font-size="19" x="-16.0198" y="194">Rect</tspan><tspan fill="#ED7D31" font-family="Calibri,Calibri_MSFontService,sans-serif" font-size="19" x="17.3201" y="194">(t)</tspan><tspan fill="#ED7D31" font-family="Wingdings,Wingdings_MSFontService,sans-serif" font-size="19" x="34.9868" y="194">ï‚«</tspan><tspan fill="#ED7D31" font-family="Calibri,Calibri_MSFontService,sans-serif" font-size="19" x="51.6534" y="194">Rect</tspan><tspan fill="#ED7D31" font-family="Calibri,Calibri_MSFontService,sans-serif" font-size="19" x="84.9935" y="194">(t)</tspan></text></g></svg>