<svg width="874" height="342" xmlns="http://www.w3.org/2000/svg" xmlns:xlink="http://www.w3.org/1999/xlink" overflow="hidden"><defs><clipPath id="clip0"><rect x="42" y="36" width="874" height="342"/></clipPath></defs><g clip-path="url(#clip0)" transform="translate(-42 -36)"><path d="M71.5001 121.833 429.404 121.833 429.404 123.167 71.5001 123.167ZM428.071 118.5 436.071 122.5 428.071 126.5Z"/><path d="M644.5 271.291C681.643 260.378 718.785 249.465 753.452 249.5 788.119 249.535 820.31 260.518 852.5 271.5" stroke="#C55A11" stroke-width="1.33333" stroke-miterlimit="8" fill="#F8CBAD" fill-rule="evenodd"/><path d="M732.5 270.576C739.464 222.461 746.429 174.346 752.929 174.5 759.429 174.654 765.464 223.077 771.5 271.5" stroke="#2F528F" stroke-width="1.33333" stroke-miterlimit="8" fill="#5B9BD5" fill-rule="evenodd" fill-opacity="0.529412"/><path d="M0.666667-5.50064e-07 0.666766 120.575-0.666567 120.575-0.666667 5.50064e-07ZM4.0001 119.242 0.000104987 127.242-3.9999 119.242Z" transform="matrix(1 0 0 -1 752.5 270.742)"/><path d="M608.5 270.833 889.389 270.833 889.389 272.167 608.5 272.167ZM888.056 267.5 896.056 271.5 888.056 275.5Z"/><text font-family="Cambria Math,Cambria Math_MSFontService,sans-serif" font-weight="400" font-size="19" transform="translate(902.402 277)">𝑓</text><path d="M765.267 179.036 777.475 182.417 783.333 184.307 788.779 186.396 793.747 188.88 798.12 191.71 801.698 195.093 804.455 199.032 806.16 203.622 806.938 208.674 806.938 214.18 806.302 219.964 805.102 226.088 803.592 232.382 803.191 233.758 801.271 233.199 801.665 231.845 801.653 231.892 803.153 225.642 803.144 225.683 804.331 219.62 804.318 219.703 804.943 214.016 804.938 214.125 804.938 208.75 804.949 208.902 804.199 204.027 804.25 204.223 802.625 199.848 802.743 200.073 800.118 196.323 800.25 196.477 796.813 193.227 796.957 193.34 792.707 190.59 792.803 190.644 787.928 188.207 788.017 188.246 782.642 186.184 782.693 186.202 776.88 184.327 776.921 184.339 764.733 180.964ZM806.444 233.317 798.875 245 798.763 231.08Z"/><path d="M71.5001 217.833 429.831 217.833 429.831 219.167 71.5001 219.167ZM428.498 214.5 436.498 218.5 428.498 222.5Z"/><path d="M71.5001 319.833 430.045 319.833 430.045 321.167 71.5001 321.167ZM428.711 316.5 436.711 320.5 428.711 324.5Z"/><path d="M0.666667-2.10382e-07 0.66677 326.02-0.666564 326.02-0.666667 2.10382e-07ZM4.0001 324.687 0.000104987 332.687-3.9999 324.687Z" transform="matrix(1 0 0 -1 71.5001 378.187)"/><path d="M71 96 222.181 96.0001" stroke="#4472C4" stroke-width="2" stroke-miterlimit="8" fill="none" fill-rule="evenodd"/><path d="M223 147 374.181 147" stroke="#4472C4" stroke-width="2" stroke-miterlimit="8" fill="none" fill-rule="evenodd"/><path d="M375 96 405.63 96.0001" stroke="#4472C4" stroke-width="2" stroke-miterlimit="8" fill="none" fill-rule="evenodd"/><path d="M0 0 0.000104987 51.0652" stroke="#4472C4" stroke-width="2" stroke-miterlimit="8" fill="none" fill-rule="evenodd" transform="matrix(1 0 0 -1 223 147.065)"/><path d="M0 0 0.000104987 51.0652" stroke="#4472C4" stroke-width="2" stroke-miterlimit="8" fill="none" fill-rule="evenodd" transform="matrix(1 0 0 -1 375 147.065)"/><path d="M71 193 89.8976 193" stroke="#FFC000" stroke-width="2" stroke-miterlimit="8" fill="none" fill-rule="evenodd"/><path d="M0 0 0.000104987 50.6667" stroke="#FFC000" stroke-width="2" stroke-miterlimit="8" fill="none" fill-rule="evenodd" transform="matrix(1 0 0 -1 124 243.667)"/><path d="M0 0 0.000104987 50.6667" stroke="#FFC000" stroke-width="2" stroke-miterlimit="8" fill="none" fill-rule="evenodd" transform="matrix(1 0 0 -1 90 243.667)"/><path d="M90 244 108.898 244" stroke="#FFC000" stroke-width="2" stroke-miterlimit="8" fill="none" fill-rule="evenodd"/><path d="M105 244 123.898 244" stroke="#FFC000" stroke-width="2" stroke-miterlimit="8" fill="none" fill-rule="evenodd"/><path d="M125 193 143.898 193" stroke="#FFC000" stroke-width="2" stroke-miterlimit="8" fill="none" fill-rule="evenodd"/><path d="M0 0 0.000104987 50.6667" stroke="#FFC000" stroke-width="2" stroke-miterlimit="8" fill="none" fill-rule="evenodd" transform="matrix(1 0 0 -1 144 243.667)"/><path d="M143 244 161.898 244" stroke="#FFC000" stroke-width="2" stroke-miterlimit="8" fill="none" fill-rule="evenodd"/><path d="M0 0 0.000104987 50.6667" stroke="#FFC000" stroke-width="2" stroke-miterlimit="8" fill="none" fill-rule="evenodd" transform="matrix(1 0 0 -1 162 243.667)"/><path d="M162 193 180.898 193" stroke="#FFC000" stroke-width="2" stroke-miterlimit="8" fill="none" fill-rule="evenodd"/><path d="M181 193 199.898 193" stroke="#FFC000" stroke-width="2" stroke-miterlimit="8" fill="none" fill-rule="evenodd"/><path d="M0 0 0.000104987 50.6667" stroke="#FFC000" stroke-width="2" stroke-miterlimit="8" fill="none" fill-rule="evenodd" transform="matrix(1 0 0 -1 200 243.667)"/><path d="M200 244 218.898 244" stroke="#FFC000" stroke-width="2" stroke-miterlimit="8" fill="none" fill-rule="evenodd"/><path d="M0 0 0.000104987 50.6667" stroke="#FFC000" stroke-width="2" stroke-miterlimit="8" fill="none" fill-rule="evenodd" transform="matrix(1 0 0 -1 219 243.667)"/><path d="M219 193 237.898 193" stroke="#FFC000" stroke-width="2" stroke-miterlimit="8" fill="none" fill-rule="evenodd"/><path d="M0 0 0.000104987 50.6667" stroke="#FFC000" stroke-width="2" stroke-miterlimit="8" fill="none" fill-rule="evenodd" transform="matrix(1 0 0 -1 272 243.667)"/><path d="M0 0 0.000104987 50.6667" stroke="#FFC000" stroke-width="2" stroke-miterlimit="8" fill="none" fill-rule="evenodd" transform="matrix(1 0 0 -1 238 243.667)"/><path d="M238 244 256.898 244" stroke="#FFC000" stroke-width="2" stroke-miterlimit="8" fill="none" fill-rule="evenodd"/><path d="M253 244 271.898 244" stroke="#FFC000" stroke-width="2" stroke-miterlimit="8" fill="none" fill-rule="evenodd"/><path d="M273 193 291.898 193" stroke="#FFC000" stroke-width="2" stroke-miterlimit="8" fill="none" fill-rule="evenodd"/><path d="M0 0 0.000104987 50.6667" stroke="#FFC000" stroke-width="2" stroke-miterlimit="8" fill="none" fill-rule="evenodd" transform="matrix(1 0 0 -1 292 243.667)"/><path d="M291 244 309.898 244" stroke="#FFC000" stroke-width="2" stroke-miterlimit="8" fill="none" fill-rule="evenodd"/><path d="M0 0 0.000104987 50.6667" stroke="#FFC000" stroke-width="2" stroke-miterlimit="8" fill="none" fill-rule="evenodd" transform="matrix(1 0 0 -1 310 243.667)"/><path d="M310 193 328.898 193" stroke="#FFC000" stroke-width="2" stroke-miterlimit="8" fill="none" fill-rule="evenodd"/><path d="M329 193 347.898 193" stroke="#FFC000" stroke-width="2" stroke-miterlimit="8" fill="none" fill-rule="evenodd"/><path d="M0 0 0.000104987 50.6667" stroke="#FFC000" stroke-width="2" stroke-miterlimit="8" fill="none" fill-rule="evenodd" transform="matrix(1 0 0 -1 348 243.667)"/><path d="M348 244 366.898 244" stroke="#FFC000" stroke-width="2" stroke-miterlimit="8" fill="none" fill-rule="evenodd"/><path d="M0 0 0.000104987 50.6667" stroke="#FFC000" stroke-width="2" stroke-miterlimit="8" fill="none" fill-rule="evenodd" transform="matrix(1 0 0 -1 367 243.667)"/><text font-family="Calibri,Calibri_MSFontService,sans-serif" font-weight="400" font-size="15" transform="translate(52.9452 101)">+1<tspan font-size="15" x="1.41664" y="46">-</tspan>1<tspan font-size="15" x="0" y="99">+1</tspan><tspan font-size="15" x="1.41664" y="149">-</tspan>1<tspan font-size="48" x="185.361" y="83">×</tspan></text><path d="M71 292 89.8976 292" stroke="#ED7D31" stroke-width="2" stroke-miterlimit="8" fill="none" fill-rule="evenodd"/><path d="M0 0 0.000104987 50.6667" stroke="#ED7D31" stroke-width="2" stroke-miterlimit="8" fill="none" fill-rule="evenodd" transform="matrix(1 0 0 -1 124 342.667)"/><path d="M0 0 0.000104987 50.6667" stroke="#ED7D31" stroke-width="2" stroke-miterlimit="8" fill="none" fill-rule="evenodd" transform="matrix(1 0 0 -1 90 342.667)"/><path d="M90 344 108.898 344" stroke="#ED7D31" stroke-width="2" stroke-miterlimit="8" fill="none" fill-rule="evenodd"/><path d="M105 344 123.898 344" stroke="#ED7D31" stroke-width="2" stroke-miterlimit="8" fill="none" fill-rule="evenodd"/><path d="M125 292 143.898 292" stroke="#ED7D31" stroke-width="2" stroke-miterlimit="8" fill="none" fill-rule="evenodd"/><path d="M0 0 0.000104987 50.6667" stroke="#ED7D31" stroke-width="2" stroke-miterlimit="8" fill="none" fill-rule="evenodd" transform="matrix(1 0 0 -1 144 342.667)"/><path d="M143 344 161.898 344" stroke="#ED7D31" stroke-width="2" stroke-miterlimit="8" fill="none" fill-rule="evenodd"/><path d="M0 0 0.000104987 50.6667" stroke="#ED7D31" stroke-width="2" stroke-miterlimit="8" fill="none" fill-rule="evenodd" transform="matrix(1 0 0 -1 162 342.667)"/><path d="M162 292 180.898 292" stroke="#ED7D31" stroke-width="2" stroke-miterlimit="8" fill="none" fill-rule="evenodd"/><path d="M181 292 199.898 292" stroke="#ED7D31" stroke-width="2" stroke-miterlimit="8" fill="none" fill-rule="evenodd"/><path d="M0 0 0.000104987 50.6667" stroke="#ED7D31" stroke-width="2" stroke-miterlimit="8" fill="none" fill-rule="evenodd" transform="matrix(1 0 0 -1 200 342.667)"/><path d="M200 344 218.898 344" stroke="#ED7D31" stroke-width="2" stroke-miterlimit="8" fill="none" fill-rule="evenodd"/><path d="M219 344 237.898 344" stroke="#ED7D31" stroke-width="2" stroke-miterlimit="8" fill="none" fill-rule="evenodd"/><path d="M0 0 0.000104987 50.6667" stroke="#ED7D31" stroke-width="2" stroke-miterlimit="8" fill="none" fill-rule="evenodd" transform="matrix(1 0 0 -1 272 343.667)"/><path d="M0 0 0.000104987 50.6667" stroke="#ED7D31" stroke-width="2" stroke-miterlimit="8" fill="none" fill-rule="evenodd" transform="matrix(1 0 0 -1 238 343.667)"/><path d="M238 293 256.898 293" stroke="#ED7D31" stroke-width="2" stroke-miterlimit="8" fill="none" fill-rule="evenodd"/><path d="M253 293 271.898 293" stroke="#ED7D31" stroke-width="2" stroke-miterlimit="8" fill="none" fill-rule="evenodd"/><path d="M272 344 290.898 344" stroke="#ED7D31" stroke-width="2" stroke-miterlimit="8" fill="none" fill-rule="evenodd"/><path d="M0 0 0.000104987 50.6667" stroke="#ED7D31" stroke-width="2" stroke-miterlimit="8" fill="none" fill-rule="evenodd" transform="matrix(1 0 0 -1 291 343.667)"/><path d="M291 293 309.898 293" stroke="#ED7D31" stroke-width="2" stroke-miterlimit="8" fill="none" fill-rule="evenodd"/><path d="M0 0 0.000104987 50.6667" stroke="#ED7D31" stroke-width="2" stroke-miterlimit="8" fill="none" fill-rule="evenodd" transform="matrix(1 0 0 -1 309 343.667)"/><path d="M309 344 327.898 344" stroke="#ED7D31" stroke-width="2" stroke-miterlimit="8" fill="none" fill-rule="evenodd"/><path d="M328 344 346.898 344" stroke="#ED7D31" stroke-width="2" stroke-miterlimit="8" fill="none" fill-rule="evenodd"/><path d="M0 0 0.000104987 50.6667" stroke="#ED7D31" stroke-width="2" stroke-miterlimit="8" fill="none" fill-rule="evenodd" transform="matrix(1 0 0 -1 347 343.667)"/><path d="M347 293 365.898 293" stroke="#ED7D31" stroke-width="2" stroke-miterlimit="8" fill="none" fill-rule="evenodd"/><path d="M0 0 0.000104987 50.6667" stroke="#ED7D31" stroke-width="2" stroke-miterlimit="8" fill="none" fill-rule="evenodd" transform="matrix(1 0 0 -1 366 343.667)"/><text font-family="Calibri,Calibri_MSFontService,sans-serif" font-weight="400" font-size="48" transform="translate(237.822 281)">=</text><path d="M500.5 201.174 542.454 201.174 542.454 186.5 567.5 218 542.454 249.5 542.454 234.826 500.5 234.826Z" stroke="#000000" stroke-width="1.33333" stroke-miterlimit="8" fill="none" fill-rule="evenodd"/><text font-family="Cambria Math,Cambria Math_MSFontService,sans-serif" font-weight="400" font-size="19" transform="translate(441.966 129)">𝑡<tspan font-size="19" x="9.15527e-05" y="96">𝑡</tspan><tspan font-size="19" x="-0.850616" y="198">𝑡</tspan><tspan font-family="Calibri,Calibri_MSFontService,sans-serif" font-size="15" x="-389.021" y="171">+1</tspan><tspan font-family="Calibri,Calibri_MSFontService,sans-serif" font-size="15" x="-387.604" y="220">-</tspan><tspan font-family="Calibri,Calibri_MSFontService,sans-serif" font-size="15" x="-383.104" y="220">1</tspan></text><path d="M229.667 109 367.739 109 367.739 111 229.667 111ZM231 114 223 110 231 106ZM366.405 106 374.405 110 366.405 114Z" fill="#4472C4"/><text fill="#4472C4" font-family="Cambria Math,Cambria Math_MSFontService,sans-serif" font-weight="400" font-size="19" transform="translate(292.763 102)">𝑇<tspan font-size="14" x="9.16" y="3">𝑏</tspan></text><path d="M129.667 183 139.035 183 139.035 185 129.667 185ZM131 188 123 184 131 180ZM137.702 180 145.702 184 137.702 188Z" fill="#FFC000"/><text fill="#FFC000" font-family="Cambria Math,Cambria Math_MSFontService,sans-serif" font-weight="400" font-size="19" transform="translate(126.339 172)">𝑇<tspan font-size="14" x="8.61334" y="4">𝑐</tspan></text></g></svg>