<svg width="456" height="213" xmlns="http://www.w3.org/2000/svg" xmlns:xlink="http://www.w3.org/1999/xlink" overflow="hidden"><defs><clipPath id="clip0"><rect x="45" y="20" width="456" height="213"/></clipPath></defs><g clip-path="url(#clip0)" transform="translate(-45 -20)"><path d="M112 192 121.25 115 139.75 115 149 192Z" fill="#F8CBAD" fill-rule="evenodd"/><text font-family="Calibri,Calibri_MSFontService,sans-serif" font-weight="400" font-size="24" transform="translate(123.766 167)">A</text><path d="M366 192 375.25 115 393.75 115 403 192Z" fill="#ED7D31" fill-rule="evenodd"/><text font-family="Calibri,Calibri_MSFontService,sans-serif" font-weight="400" font-size="24" transform="translate(381.816 167)">I</text><path d="M54 192 71.25 115 105.75 115 123 192Z" fill="#5B9BD5" fill-rule="evenodd"/><text font-family="Calibri,Calibri_MSFontService,sans-serif" font-weight="400" font-size="24" transform="translate(77.6826 167)">W</text><path d="M0.666667-4.28868e-07 0.666767 156.533-0.666566 156.533-0.666667 4.28868e-07ZM4.0001 155.2 0.000104987 163.2-3.9999 155.2Z" transform="matrix(1 0 0 -1 54.5001 192.7)"/><path d="M54.5001 191.833 485.967 191.833 485.967 193.167 54.5001 193.167ZM484.633 188.5 492.633 192.5 484.633 196.5Z"/><path d="M54.5001 72.5001 171.745 72.5002" stroke="#000000" stroke-width="1.33333" stroke-miterlimit="8" stroke-dasharray="5.33333 4" fill="none" fill-rule="evenodd"/><path d="M171.5 72.5001 234.967 192.633" stroke="#000000" stroke-width="1.33333" stroke-miterlimit="8" stroke-dasharray="5.33333 4" fill="none" fill-rule="evenodd"/><path d="M372.278 112.129 349.403 104.066 349.42 104.072 337.795 100.322 337.822 100.33 325.884 97.0174 325.913 97.0248 313.663 94.2123 313.699 94.2195 301.012 92.032 301.056 92.0381 287.868 90.6631 287.913 90.6663 274.101 90.1663 274.148 90.1663 259.711 90.6663 259.748 90.664 244.686 92.039 244.718 92.0352 229.155 94.2227 229.178 94.2192 213.178 97.0317 213.195 97.0284 196.883 100.341 196.897 100.338 180.272 104.088 180.28 104.086 153.138 110.594 152.827 109.297 179.974 102.788 196.61 99.0356 212.938 95.72 228.958 92.904 244.548 90.7126 259.646 89.3344 274.126 88.833 287.984 89.3346 301.216 90.7143 313.944 92.9087 326.226 95.7287 338.192 99.0488 349.838 102.806 372.722 110.871ZM155.212 113.524 146.5 111.5 153.347 105.745Z" fill="#7F7F7F"/><text font-family="Cambria Math,Cambria Math_MSFontService,sans-serif" font-weight="400" font-size="16" transform="translate(164.267 208)">𝐹<tspan font-size="12" x="6.70667" y="3">𝑠</tspan><tspan font-size="16" x="-3.50667" y="23">2𝐷</tspan></text><path d="M160.827 215.248 165.827 215.248 170.827 215.248 175.827 215.248 180.827 215.248 180.827 216.248 175.827 216.248 170.827 216.248 165.827 216.248 160.827 216.248Z" fill-rule="evenodd"/><text font-family="Cambria Math,Cambria Math_MSFontService,sans-serif" font-weight="400" font-size="16" transform="translate(429.576 209)">𝐹<tspan font-size="12" x="6.70667" y="4">𝑠</tspan><tspan font-size="16" x="2.22" y="23">2</tspan></text><path d="M429.716 216.563 432.966 216.563 436.216 216.563 439.466 216.563 442.716 216.563 442.716 217.563 439.466 217.563 436.216 217.563 432.966 217.563 429.716 217.563Z" fill-rule="evenodd"/><path d="M436.5 188.5 436.5 196.863" stroke="#000000" stroke-width="0.666667" stroke-miterlimit="8" fill="none" fill-rule="evenodd"/><path d="M171.5 188.5 171.5 196.863" stroke="#000000" stroke-width="0.666667" stroke-miterlimit="8" fill="none" fill-rule="evenodd"/></g></svg>