<?xml version="1.0" encoding="utf-8" standalone="no"?>
<!DOCTYPE svg PUBLIC "-//W3C//DTD SVG 1.1//EN"
  "http://www.w3.org/Graphics/SVG/1.1/DTD/svg11.dtd">
<!-- Created with matplotlib (https://matplotlib.org/) -->
<svg height="330.48pt" version="1.1" viewBox="0 0 691.2 330.48" width="691.2pt" xmlns="http://www.w3.org/2000/svg" xmlns:xlink="http://www.w3.org/1999/xlink">
 <metadata>
  <rdf:RDF xmlns:cc="http://creativecommons.org/ns#" xmlns:dc="http://purl.org/dc/elements/1.1/" xmlns:rdf="http://www.w3.org/1999/02/22-rdf-syntax-ns#">
   <cc:Work>
    <dc:type rdf:resource="http://purl.org/dc/dcmitype/StillImage"/>
    <dc:date>2021-01-09T16:04:07.024174</dc:date>
    <dc:format>image/svg+xml</dc:format>
    <dc:creator>
     <cc:Agent>
      <dc:title>Matplotlib v3.3.3, https://matplotlib.org/</dc:title>
     </cc:Agent>
    </dc:creator>
   </cc:Work>
  </rdf:RDF>
 </metadata>
 <defs>
  <style type="text/css">*{stroke-linecap:butt;stroke-linejoin:round;}</style>
 </defs>
 <g id="figure_1">
  <g id="patch_1">
   <path d="M 0 330.48 
L 691.2 330.48 
L 691.2 0 
L 0 0 
z
" style="fill:#ffffff;"/>
  </g>
  <g id="axes_1">
   <g id="patch_2">
    <path d="M 55.92 138.5415 
L 340.74 138.5415 
L 340.74 17.442 
L 55.92 17.442 
z
" style="fill:#ffffff;"/>
   </g>
   <g id="matplotlib.axis_1">
    <g id="xtick_1">
     <g id="line2d_1">
      <defs>
       <path d="M 0 0 
L 0 3.5 
" id="m3dfaed9667" style="stroke:#000000;stroke-width:0.8;"/>
      </defs>
      <g>
       <use style="stroke:#000000;stroke-width:0.8;" x="68.866364" xlink:href="#m3dfaed9667" y="138.5415"/>
      </g>
     </g>
     <g id="text_1">
      <!-- 0.00 -->
      <g transform="translate(62.186676 150.100563)scale(0.06 -0.06)">
       <defs>
        <path d="M 31.78125 66.40625 
Q 24.171875 66.40625 20.328125 58.90625 
Q 16.5 51.421875 16.5 36.375 
Q 16.5 21.390625 20.328125 13.890625 
Q 24.171875 6.390625 31.78125 6.390625 
Q 39.453125 6.390625 43.28125 13.890625 
Q 47.125 21.390625 47.125 36.375 
Q 47.125 51.421875 43.28125 58.90625 
Q 39.453125 66.40625 31.78125 66.40625 
z
M 31.78125 74.21875 
Q 44.046875 74.21875 50.515625 64.515625 
Q 56.984375 54.828125 56.984375 36.375 
Q 56.984375 17.96875 50.515625 8.265625 
Q 44.046875 -1.421875 31.78125 -1.421875 
Q 19.53125 -1.421875 13.0625 8.265625 
Q 6.59375 17.96875 6.59375 36.375 
Q 6.59375 54.828125 13.0625 64.515625 
Q 19.53125 74.21875 31.78125 74.21875 
z
" id="DejaVuSans-48"/>
        <path d="M 10.6875 12.40625 
L 21 12.40625 
L 21 0 
L 10.6875 0 
z
" id="DejaVuSans-46"/>
       </defs>
       <use xlink:href="#DejaVuSans-48"/>
       <use x="63.623047" xlink:href="#DejaVuSans-46"/>
       <use x="95.410156" xlink:href="#DejaVuSans-48"/>
       <use x="159.033203" xlink:href="#DejaVuSans-48"/>
      </g>
     </g>
    </g>
    <g id="xtick_2">
     <g id="line2d_2">
      <g>
       <use style="stroke:#000000;stroke-width:0.8;" x="120.703655" xlink:href="#m3dfaed9667" y="138.5415"/>
      </g>
     </g>
     <g id="text_2">
      <!-- 0.02 -->
      <g transform="translate(114.023968 150.100563)scale(0.06 -0.06)">
       <defs>
        <path d="M 19.1875 8.296875 
L 53.609375 8.296875 
L 53.609375 0 
L 7.328125 0 
L 7.328125 8.296875 
Q 12.9375 14.109375 22.625 23.890625 
Q 32.328125 33.6875 34.8125 36.53125 
Q 39.546875 41.84375 41.421875 45.53125 
Q 43.3125 49.21875 43.3125 52.78125 
Q 43.3125 58.59375 39.234375 62.25 
Q 35.15625 65.921875 28.609375 65.921875 
Q 23.96875 65.921875 18.8125 64.3125 
Q 13.671875 62.703125 7.8125 59.421875 
L 7.8125 69.390625 
Q 13.765625 71.78125 18.9375 73 
Q 24.125 74.21875 28.421875 74.21875 
Q 39.75 74.21875 46.484375 68.546875 
Q 53.21875 62.890625 53.21875 53.421875 
Q 53.21875 48.921875 51.53125 44.890625 
Q 49.859375 40.875 45.40625 35.40625 
Q 44.1875 33.984375 37.640625 27.21875 
Q 31.109375 20.453125 19.1875 8.296875 
z
" id="DejaVuSans-50"/>
       </defs>
       <use xlink:href="#DejaVuSans-48"/>
       <use x="63.623047" xlink:href="#DejaVuSans-46"/>
       <use x="95.410156" xlink:href="#DejaVuSans-48"/>
       <use x="159.033203" xlink:href="#DejaVuSans-50"/>
      </g>
     </g>
    </g>
    <g id="xtick_3">
     <g id="line2d_3">
      <g>
       <use style="stroke:#000000;stroke-width:0.8;" x="172.540947" xlink:href="#m3dfaed9667" y="138.5415"/>
      </g>
     </g>
     <g id="text_3">
      <!-- 0.04 -->
      <g transform="translate(165.86126 150.100563)scale(0.06 -0.06)">
       <defs>
        <path d="M 37.796875 64.3125 
L 12.890625 25.390625 
L 37.796875 25.390625 
z
M 35.203125 72.90625 
L 47.609375 72.90625 
L 47.609375 25.390625 
L 58.015625 25.390625 
L 58.015625 17.1875 
L 47.609375 17.1875 
L 47.609375 0 
L 37.796875 0 
L 37.796875 17.1875 
L 4.890625 17.1875 
L 4.890625 26.703125 
z
" id="DejaVuSans-52"/>
       </defs>
       <use xlink:href="#DejaVuSans-48"/>
       <use x="63.623047" xlink:href="#DejaVuSans-46"/>
       <use x="95.410156" xlink:href="#DejaVuSans-48"/>
       <use x="159.033203" xlink:href="#DejaVuSans-52"/>
      </g>
     </g>
    </g>
    <g id="xtick_4">
     <g id="line2d_4">
      <g>
       <use style="stroke:#000000;stroke-width:0.8;" x="224.378239" xlink:href="#m3dfaed9667" y="138.5415"/>
      </g>
     </g>
     <g id="text_4">
      <!-- 0.06 -->
      <g transform="translate(217.698552 150.100563)scale(0.06 -0.06)">
       <defs>
        <path d="M 33.015625 40.375 
Q 26.375 40.375 22.484375 35.828125 
Q 18.609375 31.296875 18.609375 23.390625 
Q 18.609375 15.53125 22.484375 10.953125 
Q 26.375 6.390625 33.015625 6.390625 
Q 39.65625 6.390625 43.53125 10.953125 
Q 47.40625 15.53125 47.40625 23.390625 
Q 47.40625 31.296875 43.53125 35.828125 
Q 39.65625 40.375 33.015625 40.375 
z
M 52.59375 71.296875 
L 52.59375 62.3125 
Q 48.875 64.0625 45.09375 64.984375 
Q 41.3125 65.921875 37.59375 65.921875 
Q 27.828125 65.921875 22.671875 59.328125 
Q 17.53125 52.734375 16.796875 39.40625 
Q 19.671875 43.65625 24.015625 45.921875 
Q 28.375 48.1875 33.59375 48.1875 
Q 44.578125 48.1875 50.953125 41.515625 
Q 57.328125 34.859375 57.328125 23.390625 
Q 57.328125 12.15625 50.6875 5.359375 
Q 44.046875 -1.421875 33.015625 -1.421875 
Q 20.359375 -1.421875 13.671875 8.265625 
Q 6.984375 17.96875 6.984375 36.375 
Q 6.984375 53.65625 15.1875 63.9375 
Q 23.390625 74.21875 37.203125 74.21875 
Q 40.921875 74.21875 44.703125 73.484375 
Q 48.484375 72.75 52.59375 71.296875 
z
" id="DejaVuSans-54"/>
       </defs>
       <use xlink:href="#DejaVuSans-48"/>
       <use x="63.623047" xlink:href="#DejaVuSans-46"/>
       <use x="95.410156" xlink:href="#DejaVuSans-48"/>
       <use x="159.033203" xlink:href="#DejaVuSans-54"/>
      </g>
     </g>
    </g>
    <g id="xtick_5">
     <g id="line2d_5">
      <g>
       <use style="stroke:#000000;stroke-width:0.8;" x="276.215531" xlink:href="#m3dfaed9667" y="138.5415"/>
      </g>
     </g>
     <g id="text_5">
      <!-- 0.08 -->
      <g transform="translate(269.535843 150.100563)scale(0.06 -0.06)">
       <defs>
        <path d="M 31.78125 34.625 
Q 24.75 34.625 20.71875 30.859375 
Q 16.703125 27.09375 16.703125 20.515625 
Q 16.703125 13.921875 20.71875 10.15625 
Q 24.75 6.390625 31.78125 6.390625 
Q 38.8125 6.390625 42.859375 10.171875 
Q 46.921875 13.96875 46.921875 20.515625 
Q 46.921875 27.09375 42.890625 30.859375 
Q 38.875 34.625 31.78125 34.625 
z
M 21.921875 38.8125 
Q 15.578125 40.375 12.03125 44.71875 
Q 8.5 49.078125 8.5 55.328125 
Q 8.5 64.0625 14.71875 69.140625 
Q 20.953125 74.21875 31.78125 74.21875 
Q 42.671875 74.21875 48.875 69.140625 
Q 55.078125 64.0625 55.078125 55.328125 
Q 55.078125 49.078125 51.53125 44.71875 
Q 48 40.375 41.703125 38.8125 
Q 48.828125 37.15625 52.796875 32.3125 
Q 56.78125 27.484375 56.78125 20.515625 
Q 56.78125 9.90625 50.3125 4.234375 
Q 43.84375 -1.421875 31.78125 -1.421875 
Q 19.734375 -1.421875 13.25 4.234375 
Q 6.78125 9.90625 6.78125 20.515625 
Q 6.78125 27.484375 10.78125 32.3125 
Q 14.796875 37.15625 21.921875 38.8125 
z
M 18.3125 54.390625 
Q 18.3125 48.734375 21.84375 45.5625 
Q 25.390625 42.390625 31.78125 42.390625 
Q 38.140625 42.390625 41.71875 45.5625 
Q 45.3125 48.734375 45.3125 54.390625 
Q 45.3125 60.0625 41.71875 63.234375 
Q 38.140625 66.40625 31.78125 66.40625 
Q 25.390625 66.40625 21.84375 63.234375 
Q 18.3125 60.0625 18.3125 54.390625 
z
" id="DejaVuSans-56"/>
       </defs>
       <use xlink:href="#DejaVuSans-48"/>
       <use x="63.623047" xlink:href="#DejaVuSans-46"/>
       <use x="95.410156" xlink:href="#DejaVuSans-48"/>
       <use x="159.033203" xlink:href="#DejaVuSans-56"/>
      </g>
     </g>
    </g>
    <g id="xtick_6">
     <g id="line2d_6">
      <g>
       <use style="stroke:#000000;stroke-width:0.8;" x="328.052823" xlink:href="#m3dfaed9667" y="138.5415"/>
      </g>
     </g>
     <g id="text_6">
      <!-- 0.10 -->
      <g transform="translate(321.373135 150.100563)scale(0.06 -0.06)">
       <defs>
        <path d="M 12.40625 8.296875 
L 28.515625 8.296875 
L 28.515625 63.921875 
L 10.984375 60.40625 
L 10.984375 69.390625 
L 28.421875 72.90625 
L 38.28125 72.90625 
L 38.28125 8.296875 
L 54.390625 8.296875 
L 54.390625 0 
L 12.40625 0 
z
" id="DejaVuSans-49"/>
       </defs>
       <use xlink:href="#DejaVuSans-48"/>
       <use x="63.623047" xlink:href="#DejaVuSans-46"/>
       <use x="95.410156" xlink:href="#DejaVuSans-49"/>
       <use x="159.033203" xlink:href="#DejaVuSans-48"/>
      </g>
     </g>
    </g>
    <g id="text_7">
     <!-- time [s] -->
     <g transform="translate(182.816875 161.427125)scale(0.08 -0.08)">
      <defs>
       <path d="M 18.3125 70.21875 
L 18.3125 54.6875 
L 36.8125 54.6875 
L 36.8125 47.703125 
L 18.3125 47.703125 
L 18.3125 18.015625 
Q 18.3125 11.328125 20.140625 9.421875 
Q 21.96875 7.515625 27.59375 7.515625 
L 36.8125 7.515625 
L 36.8125 0 
L 27.59375 0 
Q 17.1875 0 13.234375 3.875 
Q 9.28125 7.765625 9.28125 18.015625 
L 9.28125 47.703125 
L 2.6875 47.703125 
L 2.6875 54.6875 
L 9.28125 54.6875 
L 9.28125 70.21875 
z
" id="DejaVuSans-116"/>
       <path d="M 9.421875 54.6875 
L 18.40625 54.6875 
L 18.40625 0 
L 9.421875 0 
z
M 9.421875 75.984375 
L 18.40625 75.984375 
L 18.40625 64.59375 
L 9.421875 64.59375 
z
" id="DejaVuSans-105"/>
       <path d="M 52 44.1875 
Q 55.375 50.25 60.0625 53.125 
Q 64.75 56 71.09375 56 
Q 79.640625 56 84.28125 50.015625 
Q 88.921875 44.046875 88.921875 33.015625 
L 88.921875 0 
L 79.890625 0 
L 79.890625 32.71875 
Q 79.890625 40.578125 77.09375 44.375 
Q 74.3125 48.1875 68.609375 48.1875 
Q 61.625 48.1875 57.5625 43.546875 
Q 53.515625 38.921875 53.515625 30.90625 
L 53.515625 0 
L 44.484375 0 
L 44.484375 32.71875 
Q 44.484375 40.625 41.703125 44.40625 
Q 38.921875 48.1875 33.109375 48.1875 
Q 26.21875 48.1875 22.15625 43.53125 
Q 18.109375 38.875 18.109375 30.90625 
L 18.109375 0 
L 9.078125 0 
L 9.078125 54.6875 
L 18.109375 54.6875 
L 18.109375 46.1875 
Q 21.1875 51.21875 25.484375 53.609375 
Q 29.78125 56 35.6875 56 
Q 41.65625 56 45.828125 52.96875 
Q 50 49.953125 52 44.1875 
z
" id="DejaVuSans-109"/>
       <path d="M 56.203125 29.59375 
L 56.203125 25.203125 
L 14.890625 25.203125 
Q 15.484375 15.921875 20.484375 11.0625 
Q 25.484375 6.203125 34.421875 6.203125 
Q 39.59375 6.203125 44.453125 7.46875 
Q 49.3125 8.734375 54.109375 11.28125 
L 54.109375 2.78125 
Q 49.265625 0.734375 44.1875 -0.34375 
Q 39.109375 -1.421875 33.890625 -1.421875 
Q 20.796875 -1.421875 13.15625 6.1875 
Q 5.515625 13.8125 5.515625 26.8125 
Q 5.515625 40.234375 12.765625 48.109375 
Q 20.015625 56 32.328125 56 
Q 43.359375 56 49.78125 48.890625 
Q 56.203125 41.796875 56.203125 29.59375 
z
M 47.21875 32.234375 
Q 47.125 39.59375 43.09375 43.984375 
Q 39.0625 48.390625 32.421875 48.390625 
Q 24.90625 48.390625 20.390625 44.140625 
Q 15.875 39.890625 15.1875 32.171875 
z
" id="DejaVuSans-101"/>
       <path id="DejaVuSans-32"/>
       <path d="M 8.59375 75.984375 
L 29.296875 75.984375 
L 29.296875 69 
L 17.578125 69 
L 17.578125 -6.203125 
L 29.296875 -6.203125 
L 29.296875 -13.1875 
L 8.59375 -13.1875 
z
" id="DejaVuSans-91"/>
       <path d="M 44.28125 53.078125 
L 44.28125 44.578125 
Q 40.484375 46.53125 36.375 47.5 
Q 32.28125 48.484375 27.875 48.484375 
Q 21.1875 48.484375 17.84375 46.4375 
Q 14.5 44.390625 14.5 40.28125 
Q 14.5 37.15625 16.890625 35.375 
Q 19.28125 33.59375 26.515625 31.984375 
L 29.59375 31.296875 
Q 39.15625 29.25 43.1875 25.515625 
Q 47.21875 21.78125 47.21875 15.09375 
Q 47.21875 7.46875 41.1875 3.015625 
Q 35.15625 -1.421875 24.609375 -1.421875 
Q 20.21875 -1.421875 15.453125 -0.5625 
Q 10.6875 0.296875 5.421875 2 
L 5.421875 11.28125 
Q 10.40625 8.6875 15.234375 7.390625 
Q 20.0625 6.109375 24.8125 6.109375 
Q 31.15625 6.109375 34.5625 8.28125 
Q 37.984375 10.453125 37.984375 14.40625 
Q 37.984375 18.0625 35.515625 20.015625 
Q 33.0625 21.96875 24.703125 23.78125 
L 21.578125 24.515625 
Q 13.234375 26.265625 9.515625 29.90625 
Q 5.8125 33.546875 5.8125 39.890625 
Q 5.8125 47.609375 11.28125 51.796875 
Q 16.75 56 26.8125 56 
Q 31.78125 56 36.171875 55.265625 
Q 40.578125 54.546875 44.28125 53.078125 
z
" id="DejaVuSans-115"/>
       <path d="M 30.421875 75.984375 
L 30.421875 -13.1875 
L 9.71875 -13.1875 
L 9.71875 -6.203125 
L 21.390625 -6.203125 
L 21.390625 69 
L 9.71875 69 
L 9.71875 75.984375 
z
" id="DejaVuSans-93"/>
      </defs>
      <use xlink:href="#DejaVuSans-116"/>
      <use x="39.208984" xlink:href="#DejaVuSans-105"/>
      <use x="66.992188" xlink:href="#DejaVuSans-109"/>
      <use x="164.404297" xlink:href="#DejaVuSans-101"/>
      <use x="225.927734" xlink:href="#DejaVuSans-32"/>
      <use x="257.714844" xlink:href="#DejaVuSans-91"/>
      <use x="296.728516" xlink:href="#DejaVuSans-115"/>
      <use x="348.828125" xlink:href="#DejaVuSans-93"/>
     </g>
    </g>
   </g>
   <g id="matplotlib.axis_2">
    <g id="ytick_1">
     <g id="line2d_7">
      <defs>
       <path d="M 0 0 
L -3.5 0 
" id="mf88a5d361e" style="stroke:#000000;stroke-width:0.8;"/>
      </defs>
      <g>
       <use style="stroke:#000000;stroke-width:0.8;" x="55.92" xlink:href="#mf88a5d361e" y="131.778093"/>
      </g>
     </g>
     <g id="text_8">
      <!-- −2 -->
      <g transform="translate(40.074688 134.057624)scale(0.06 -0.06)">
       <defs>
        <path d="M 10.59375 35.5 
L 73.1875 35.5 
L 73.1875 27.203125 
L 10.59375 27.203125 
z
" id="DejaVuSans-8722"/>
       </defs>
       <use xlink:href="#DejaVuSans-8722"/>
       <use x="83.789062" xlink:href="#DejaVuSans-50"/>
      </g>
     </g>
    </g>
    <g id="ytick_2">
     <g id="line2d_8">
      <g>
       <use style="stroke:#000000;stroke-width:0.8;" x="55.92" xlink:href="#mf88a5d361e" y="104.883148"/>
      </g>
     </g>
     <g id="text_9">
      <!-- −1 -->
      <g transform="translate(40.074688 107.162679)scale(0.06 -0.06)">
       <use xlink:href="#DejaVuSans-8722"/>
       <use x="83.789062" xlink:href="#DejaVuSans-49"/>
      </g>
     </g>
    </g>
    <g id="ytick_3">
     <g id="line2d_9">
      <g>
       <use style="stroke:#000000;stroke-width:0.8;" x="55.92" xlink:href="#mf88a5d361e" y="77.988203"/>
      </g>
     </g>
     <g id="text_10">
      <!-- 0 -->
      <g transform="translate(45.1025 80.267734)scale(0.06 -0.06)">
       <use xlink:href="#DejaVuSans-48"/>
      </g>
     </g>
    </g>
    <g id="ytick_4">
     <g id="line2d_10">
      <g>
       <use style="stroke:#000000;stroke-width:0.8;" x="55.92" xlink:href="#mf88a5d361e" y="51.093258"/>
      </g>
     </g>
     <g id="text_11">
      <!-- 1 -->
      <g transform="translate(45.1025 53.372789)scale(0.06 -0.06)">
       <use xlink:href="#DejaVuSans-49"/>
      </g>
     </g>
    </g>
    <g id="ytick_5">
     <g id="line2d_11">
      <g>
       <use style="stroke:#000000;stroke-width:0.8;" x="55.92" xlink:href="#mf88a5d361e" y="24.198313"/>
      </g>
     </g>
     <g id="text_12">
      <!-- 2 -->
      <g transform="translate(45.1025 26.477844)scale(0.06 -0.06)">
       <use xlink:href="#DejaVuSans-50"/>
      </g>
     </g>
    </g>
    <g id="text_13">
     <!-- Amplitude -->
     <g transform="translate(34.410938 98.489875)rotate(-90)scale(0.08 -0.08)">
      <defs>
       <path d="M 34.1875 63.1875 
L 20.796875 26.90625 
L 47.609375 26.90625 
z
M 28.609375 72.90625 
L 39.796875 72.90625 
L 67.578125 0 
L 57.328125 0 
L 50.6875 18.703125 
L 17.828125 18.703125 
L 11.1875 0 
L 0.78125 0 
z
" id="DejaVuSans-65"/>
       <path d="M 18.109375 8.203125 
L 18.109375 -20.796875 
L 9.078125 -20.796875 
L 9.078125 54.6875 
L 18.109375 54.6875 
L 18.109375 46.390625 
Q 20.953125 51.265625 25.265625 53.625 
Q 29.59375 56 35.59375 56 
Q 45.5625 56 51.78125 48.09375 
Q 58.015625 40.1875 58.015625 27.296875 
Q 58.015625 14.40625 51.78125 6.484375 
Q 45.5625 -1.421875 35.59375 -1.421875 
Q 29.59375 -1.421875 25.265625 0.953125 
Q 20.953125 3.328125 18.109375 8.203125 
z
M 48.6875 27.296875 
Q 48.6875 37.203125 44.609375 42.84375 
Q 40.53125 48.484375 33.40625 48.484375 
Q 26.265625 48.484375 22.1875 42.84375 
Q 18.109375 37.203125 18.109375 27.296875 
Q 18.109375 17.390625 22.1875 11.75 
Q 26.265625 6.109375 33.40625 6.109375 
Q 40.53125 6.109375 44.609375 11.75 
Q 48.6875 17.390625 48.6875 27.296875 
z
" id="DejaVuSans-112"/>
       <path d="M 9.421875 75.984375 
L 18.40625 75.984375 
L 18.40625 0 
L 9.421875 0 
z
" id="DejaVuSans-108"/>
       <path d="M 8.5 21.578125 
L 8.5 54.6875 
L 17.484375 54.6875 
L 17.484375 21.921875 
Q 17.484375 14.15625 20.5 10.265625 
Q 23.53125 6.390625 29.59375 6.390625 
Q 36.859375 6.390625 41.078125 11.03125 
Q 45.3125 15.671875 45.3125 23.6875 
L 45.3125 54.6875 
L 54.296875 54.6875 
L 54.296875 0 
L 45.3125 0 
L 45.3125 8.40625 
Q 42.046875 3.421875 37.71875 1 
Q 33.40625 -1.421875 27.6875 -1.421875 
Q 18.265625 -1.421875 13.375 4.4375 
Q 8.5 10.296875 8.5 21.578125 
z
M 31.109375 56 
z
" id="DejaVuSans-117"/>
       <path d="M 45.40625 46.390625 
L 45.40625 75.984375 
L 54.390625 75.984375 
L 54.390625 0 
L 45.40625 0 
L 45.40625 8.203125 
Q 42.578125 3.328125 38.25 0.953125 
Q 33.9375 -1.421875 27.875 -1.421875 
Q 17.96875 -1.421875 11.734375 6.484375 
Q 5.515625 14.40625 5.515625 27.296875 
Q 5.515625 40.1875 11.734375 48.09375 
Q 17.96875 56 27.875 56 
Q 33.9375 56 38.25 53.625 
Q 42.578125 51.265625 45.40625 46.390625 
z
M 14.796875 27.296875 
Q 14.796875 17.390625 18.875 11.75 
Q 22.953125 6.109375 30.078125 6.109375 
Q 37.203125 6.109375 41.296875 11.75 
Q 45.40625 17.390625 45.40625 27.296875 
Q 45.40625 37.203125 41.296875 42.84375 
Q 37.203125 48.484375 30.078125 48.484375 
Q 22.953125 48.484375 18.875 42.84375 
Q 14.796875 37.203125 14.796875 27.296875 
z
" id="DejaVuSans-100"/>
      </defs>
      <use xlink:href="#DejaVuSans-65"/>
      <use x="68.408203" xlink:href="#DejaVuSans-109"/>
      <use x="165.820312" xlink:href="#DejaVuSans-112"/>
      <use x="229.296875" xlink:href="#DejaVuSans-108"/>
      <use x="257.080078" xlink:href="#DejaVuSans-105"/>
      <use x="284.863281" xlink:href="#DejaVuSans-116"/>
      <use x="324.072266" xlink:href="#DejaVuSans-117"/>
      <use x="387.451172" xlink:href="#DejaVuSans-100"/>
      <use x="450.927734" xlink:href="#DejaVuSans-101"/>
     </g>
    </g>
   </g>
   <g id="line2d_12">
    <path clip-path="url(#p7967513697)" d="M 68.866364 26.247936 
L 69.12555 26.513726 
L 69.643923 45.466793 
L 70.421482 76.434212 
L 70.680669 79.948988 
L 70.939855 79.161996 
L 71.199042 73.324701 
L 72.235788 36.550368 
L 72.494974 35.942661 
L 72.754161 36.322641 
L 73.013347 43.193087 
L 74.050093 91.075639 
L 74.309279 97.386352 
L 74.568466 99.467309 
L 74.827652 97.493262 
L 75.864398 60.036057 
L 76.123584 57.203576 
L 76.382771 59.229677 
L 76.641957 63.129697 
L 77.93789 118.599155 
L 78.197076 120.476044 
L 78.456263 119.302834 
L 79.752195 76.935311 
L 80.011381 75.467762 
L 80.270568 77.878188 
L 80.788941 98.56382 
L 81.307314 120.890145 
L 81.5665 129.511149 
L 81.825687 131.678565 
L 82.084873 128.987628 
L 82.603246 110.5511 
L 83.380805 80.447439 
L 83.639992 75.71526 
L 83.899178 77.349856 
L 84.417551 91.110833 
L 85.195111 118.455534 
L 85.454297 122.640819 
L 85.713483 120.041681 
L 86.231856 101.180008 
L 86.750229 75.650292 
L 87.268602 57.987465 
L 87.527789 56.278007 
L 87.786975 58.26642 
L 88.564535 89.01735 
L 88.823721 95.006138 
L 89.082907 97.871906 
L 89.342094 97.66013 
L 89.60128 91.950371 
L 90.119653 66.9165 
L 90.638026 43.879059 
L 90.897213 36.213549 
L 91.156399 32.839638 
L 91.415586 36.075865 
L 91.933959 51.101465 
L 92.452331 74.786673 
L 92.711518 80.019747 
L 92.970704 81.458262 
L 93.489077 68.691038 
L 94.266637 33.880705 
L 94.525823 27.398577 
L 94.78501 24.713325 
L 95.044196 28.090707 
L 95.303382 34.50149 
L 96.340128 75.427241 
L 96.599315 81.056754 
L 96.858501 78.953278 
L 97.117688 74.730534 
L 98.154434 37.125832 
L 98.41362 34.257413 
L 98.672806 35.858066 
L 99.191179 55.953925 
L 99.968739 91.692393 
L 100.227925 98.683315 
L 100.487112 99.86381 
L 100.746298 96.478265 
L 102.04223 56.685652 
L 102.301417 59.57701 
L 102.560603 65.008008 
L 103.078976 86.751307 
L 103.597349 112.015923 
L 103.856536 118.786558 
L 104.115722 121.687388 
L 104.374909 118.547021 
L 104.634095 112.289259 
L 105.152468 91.55556 
L 105.670841 76.146494 
L 105.930027 74.51726 
L 106.4484 89.565854 
L 107.485146 129.393588 
L 107.744333 131.6235 
L 108.003519 128.766092 
L 108.521892 110.379374 
L 109.299451 79.041773 
L 109.558638 76.345867 
L 109.817824 75.520755 
L 110.336197 91.770159 
L 110.85457 113.206133 
L 111.113756 118.697863 
L 111.372943 121.465412 
L 111.632129 118.624532 
L 112.150502 101.240067 
L 112.928062 63.901321 
L 113.187248 58.175087 
L 113.446435 57.09388 
L 113.705621 60.168334 
L 115.001553 99.482131 
L 115.26074 99.121686 
L 116.038299 69.10921 
L 116.556672 44.814588 
L 116.815859 37.169007 
L 117.075045 34.157075 
L 117.334232 35.602944 
L 117.852604 53.016533 
L 118.370977 73.504399 
L 118.630164 79.255927 
L 118.88935 80.183605 
L 119.148537 76.865585 
L 120.444469 26.210633 
L 120.703655 24.071256 
L 121.222028 34.505312 
L 122.258774 76.193033 
L 122.517961 80.680607 
L 122.777147 79.332346 
L 123.036334 75.089199 
L 123.813893 43.227757 
L 124.073079 36.711632 
L 124.332266 35.029582 
L 124.591452 37.141491 
L 124.850639 43.581913 
L 126.146571 98.503365 
L 126.405758 99.882514 
L 126.664944 95.442519 
L 127.70169 61.014256 
L 127.960876 56.625308 
L 128.220063 58.216606 
L 128.738436 73.391402 
L 129.515995 112.732087 
L 129.775182 120.511653 
L 130.034368 122.244731 
L 130.293554 119.832376 
L 130.552741 112.018351 
L 131.3303 81.625036 
L 131.848673 74.091273 
L 132.10786 79.655703 
L 132.626233 97.766326 
L 133.144606 121.477753 
L 133.403792 128.340317 
L 133.662978 131.611972 
L 133.922165 128.914541 
L 134.181351 122.53609 
L 135.218097 78.276725 
L 135.477284 75.22534 
L 135.73647 76.255408 
L 136.254843 91.607423 
L 137.032402 118.430217 
L 137.291589 121.31611 
L 137.550775 118.156516 
L 138.069148 101.42344 
L 138.587521 74.499584 
L 138.846708 63.778835 
L 139.105894 58.259255 
L 139.365081 58.932817 
L 139.624267 62.982028 
L 139.883453 69.304687 
L 140.661013 95.150204 
L 140.920199 98.980418 
L 141.179386 98.749736 
L 141.438572 92.328192 
L 142.734505 36.410703 
L 142.993691 33.866688 
L 143.252877 35.662951 
L 143.512064 43.711351 
L 144.289623 73.687619 
L 144.54881 79.68746 
L 144.807996 79.528169 
L 145.067183 75.991587 
L 145.844742 46.221224 
L 146.103928 33.7138 
L 146.363115 26.929354 
L 146.622301 25.340779 
L 146.881488 27.728459 
L 147.140674 33.797087 
L 148.17742 75.660136 
L 148.436607 80.162019 
L 148.695793 80.2384 
L 149.214166 65.31792 
L 149.732539 44.424386 
L 149.991725 36.746992 
L 150.250912 34.482805 
L 150.510098 36.434882 
L 150.769285 43.287526 
L 151.806031 92.085939 
L 152.065217 97.803757 
L 152.324403 98.017714 
L 152.58359 95.078566 
L 153.620336 61.000851 
L 153.879522 56.756897 
L 154.138709 57.744142 
L 154.657082 74.84121 
L 155.693827 118.922398 
L 155.953014 121.6063 
L 156.2122 118.26031 
L 156.471387 112.816281 
L 157.248946 80.861525 
L 157.508133 77.017022 
L 157.767319 76.909911 
L 158.026506 78.530526 
L 159.322438 129.418852 
L 159.581624 131.049707 
L 159.840811 128.551245 
L 160.359184 112.020718 
L 160.877557 87.849922 
L 161.39593 73.269172 
L 161.914302 80.828365 
L 162.951048 118.909766 
L 163.210235 123.14249 
L 163.469421 119.609773 
L 163.728608 112.885446 
L 164.246981 89.216945 
L 164.765354 65.024399 
L 165.02454 57.342713 
L 165.283726 58.230416 
L 165.542913 60.840765 
L 165.802099 67.696615 
L 166.579659 94.654906 
L 166.838845 99.427233 
L 167.098032 97.245437 
L 167.616405 82.424676 
L 168.393964 43.289914 
L 168.65315 36.596759 
L 168.912337 33.630959 
L 169.171523 36.964413 
L 170.208269 74.075666 
L 170.467456 79.452895 
L 170.726642 81.658725 
L 170.985829 76.66803 
L 171.504201 57.799209 
L 172.022574 35.177988 
L 172.281761 27.145859 
L 172.540947 22.946523 
L 173.05932 31.623258 
L 174.096066 77.204193 
L 174.355253 79.743654 
L 174.614439 78.583474 
L 174.873625 73.693978 
L 175.910371 36.727869 
L 176.169558 34.443829 
L 176.428744 36.986726 
L 176.947117 55.740847 
L 177.724676 91.176127 
L 177.983863 98.322569 
L 178.243049 97.894464 
L 178.502236 93.977308 
L 179.020609 77.15417 
L 179.538982 60.451785 
L 179.798168 56.534475 
L 180.057355 58.921092 
L 180.316541 64.857859 
L 180.575728 73.674824 
L 181.353287 110.780915 
L 181.87166 123.434998 
L 182.390033 112.595555 
L 183.167592 82.769803 
L 183.426779 76.931012 
L 183.685965 76.049048 
L 183.945152 80.384963 
L 184.463524 98.677289 
L 184.981897 121.941444 
L 185.241084 130.225698 
L 185.50027 131.353789 
L 185.759457 130.14727 
L 186.537016 99.038842 
L 187.055389 78.872298 
L 187.314575 78.000352 
L 187.573762 76.493139 
L 188.092135 91.661991 
L 188.869694 118.532376 
L 189.128881 122.24738 
L 189.388067 120.08951 
L 189.647254 112.8378 
L 190.683999 64.301859 
L 190.943186 57.920292 
L 191.202372 57.256482 
L 191.461559 60.099474 
L 192.498305 95.772736 
L 192.757491 99.664194 
L 193.016678 98.211786 
L 193.275864 91.874686 
L 194.053423 55.019216 
L 194.571796 36.753615 
L 194.830983 33.882828 
L 195.090169 36.275984 
L 196.386102 79.932433 
L 196.645288 81.115125 
L 197.163661 68.804532 
L 198.200407 27.732658 
L 198.459593 24.034416 
L 198.71878 27.474544 
L 199.237153 43.811627 
L 199.755526 67.833218 
L 200.014712 76.863267 
L 200.273898 80.820125 
L 200.533085 78.168886 
L 200.792271 74.246763 
L 201.569831 45.280487 
L 201.829017 36.885358 
L 202.088204 34.04505 
L 202.34739 37.066131 
L 202.865763 53.733461 
L 203.643322 92.878133 
L 204.161695 99.596253 
L 204.420882 96.353167 
L 205.716814 56.239154 
L 205.976001 57.853634 
L 206.235187 63.323252 
L 207.531119 118.623327 
L 207.790306 121.262302 
L 208.049492 118.672537 
L 208.308679 112.005718 
L 209.345425 74.681992 
L 209.604611 75.598802 
L 210.122984 86.046139 
L 210.900543 122.803118 
L 211.15973 130.771665 
L 211.418916 131.611083 
L 211.678103 129.127847 
L 211.937289 122.183246 
L 212.714848 88.078865 
L 212.974035 80.539079 
L 213.233221 76.884986 
L 213.492408 77.397027 
L 213.751594 83.18629 
L 214.78834 119.633449 
L 215.047527 122.867192 
L 215.306713 118.955671 
L 215.5659 112.108796 
L 216.084272 88.514339 
L 216.602645 63.477684 
L 216.861832 58.395819 
L 217.121018 56.901654 
L 217.380205 61.000088 
L 217.898578 76.742169 
L 218.416951 96.297722 
L 218.676137 101.025395 
L 218.935324 98.588593 
L 219.19451 92.683965 
L 220.490442 36.532016 
L 220.749629 34.365536 
L 221.008815 36.798933 
L 221.527188 52.629372 
L 222.045561 73.783751 
L 222.304747 78.337284 
L 222.563934 80.654487 
L 222.82312 77.921603 
L 224.119053 26.895504 
L 224.378239 24.960744 
L 224.637426 27.401143 
L 225.155799 44.917728 
L 225.933358 77.160539 
L 226.192544 81.065824 
L 226.451731 79.699451 
L 226.710917 75.048397 
L 227.488477 42.207429 
L 228.00685 34.162459 
L 228.266036 37.302607 
L 228.525222 42.952234 
L 229.561968 91.16857 
L 229.821155 96.972477 
L 230.080341 97.951725 
L 230.339528 95.752973 
L 230.857901 78.558569 
L 231.117087 66.822011 
L 231.376274 61.1094 
L 231.63546 58.60782 
L 231.894646 57.749815 
L 232.413019 74.067136 
L 233.190579 112.843514 
L 233.449765 120.213694 
L 233.708952 122.722594 
L 233.968138 119.249299 
L 235.26407 77.479059 
L 235.523257 74.23737 
L 235.782443 78.675552 
L 236.300816 99.138934 
L 236.819189 122.224047 
L 237.078376 128.572845 
L 237.337562 131.946181 
L 237.596749 129.191531 
L 237.855935 121.354276 
L 238.892681 80.271857 
L 239.151867 74.913552 
L 239.411054 76.366756 
L 239.929427 91.582439 
L 240.706986 119.557868 
L 240.966173 122.159399 
L 241.225359 120.174912 
L 242.262105 75.688503 
L 242.521291 64.025373 
L 242.780478 58.175085 
L 243.039664 55.967489 
L 243.298851 60.057273 
L 244.335597 94.662817 
L 244.594783 97.796977 
L 244.853969 96.070387 
L 245.113156 91.297525 
L 245.631529 69.170208 
L 246.149902 43.139277 
L 246.409088 36.386485 
L 246.668275 34.218599 
L 246.927461 37.28026 
L 247.186648 43.259913 
L 247.964207 73.619052 
L 248.223393 79.021597 
L 248.48258 81.425661 
L 249.000953 68.229727 
L 250.037699 27.130635 
L 250.296885 23.585617 
L 250.556072 26.856643 
L 250.815258 34.002444 
L 251.852004 76.474051 
L 252.11119 79.827075 
L 252.370377 77.95612 
L 252.629563 74.084386 
L 253.666309 36.795631 
L 253.925495 33.042635 
L 254.184682 36.243039 
L 254.443868 42.718132 
L 255.739801 98.785234 
L 255.998987 98.378442 
L 256.258174 93.899043 
L 256.51736 87.414669 
L 257.035733 67.819974 
L 257.554106 56.483833 
L 257.813292 58.335478 
L 258.072479 64.140644 
L 258.590852 86.913038 
L 259.109225 110.836256 
L 259.368411 120.591895 
L 259.627598 121.723293 
L 259.886784 119.151936 
L 260.405157 102.456619 
L 260.92353 79.693008 
L 261.441903 75.995972 
L 261.701089 80.018499 
L 262.219462 98.900055 
L 262.737835 122.139666 
L 262.997022 129.518898 
L 263.256208 131.70341 
L 263.515394 130.009603 
L 263.774581 122.052633 
L 264.811327 79.931195 
L 265.070513 76.910647 
L 265.3297 76.196421 
L 265.848073 91.362351 
L 266.625632 119.168405 
L 266.884818 120.883662 
L 267.144005 118.259394 
L 267.403191 111.674425 
L 267.921564 87.599751 
L 268.439937 64.124027 
L 268.95831 55.586501 
L 269.217497 59.737819 
L 270.254242 96.958277 
L 270.513429 99.002452 
L 270.772615 96.780107 
L 271.290988 81.459006 
L 272.068548 43.792971 
L 272.327734 37.330363 
L 272.586921 36.242908 
L 272.846107 36.570621 
L 273.105293 43.13573 
L 274.142039 80.050465 
L 274.401226 81.893287 
L 274.919599 67.865302 
L 275.697158 35.333575 
L 275.956345 27.039194 
L 276.215531 24.094185 
L 276.474717 26.135334 
L 276.99309 45.059963 
L 277.77065 76.504235 
L 278.029836 81.137836 
L 278.289023 80.557717 
L 278.807396 65.016756 
L 279.325768 44.16377 
L 279.584955 37.026489 
L 279.844141 33.954135 
L 280.103328 35.841894 
L 280.621701 54.775207 
L 281.39926 91.042039 
L 281.658447 97.595759 
L 281.917633 98.794501 
L 282.17682 94.099366 
L 283.472752 57.062319 
L 283.991125 62.16649 
L 285.027871 112.909685 
L 285.546244 122.737855 
L 286.064616 112.585534 
L 287.101362 77.470333 
L 287.360549 75.844463 
L 287.619735 79.334653 
L 288.138108 99.528155 
L 288.656481 121.369023 
L 288.915667 129.872004 
L 289.174854 133.036977 
L 289.43404 129.643592 
L 289.952413 111.300183 
L 290.729973 79.528274 
L 290.989159 75.09304 
L 291.248346 76.540073 
L 291.766719 90.243078 
L 292.285091 112.877036 
L 292.803464 122.466241 
L 293.062651 119.547809 
L 293.581024 100.279169 
L 294.099397 75.333138 
L 294.358583 64.636986 
L 294.61777 58.936694 
L 294.876956 57.347076 
L 295.136143 59.271735 
L 296.172888 94.582401 
L 296.432075 100.522488 
L 296.691261 99.251792 
L 297.209634 80.454198 
L 297.987194 44.048904 
L 298.24638 36.558005 
L 298.505566 34.188905 
L 298.764753 35.4483 
L 299.801499 74.3077 
L 300.060685 79.204978 
L 300.319872 79.239125 
L 300.579058 76.550448 
L 301.097431 55.688562 
L 301.87499 26.42135 
L 302.134177 25.019649 
L 302.393363 27.501447 
L 302.65255 34.135106 
L 303.689296 77.854986 
L 303.948482 80.925069 
L 304.207669 78.722533 
L 304.466855 73.102566 
L 305.503601 37.037124 
L 305.762787 33.421657 
L 306.021974 35.795767 
L 306.540347 55.066006 
L 307.317906 91.105232 
L 307.577093 98.324966 
L 307.836279 98.837077 
L 308.095465 94.455825 
L 308.613838 79.1578 
L 308.873025 67.45197 
L 309.391398 56.878874 
L 309.650584 58.294417 
L 309.909771 64.473278 
L 310.428144 86.918633 
L 310.946517 112.096784 
L 311.205703 119.515531 
L 311.464889 122.719345 
L 311.983262 112.119307 
L 313.020008 75.749128 
L 313.279195 75.273895 
L 313.538381 79.857828 
L 313.797568 87.399005 
L 314.575127 121.815396 
L 314.834313 129.455608 
L 315.0935 132.608981 
L 315.352686 128.189139 
L 315.611873 121.800344 
L 315.871059 111.858619 
L 316.389432 88.145893 
L 316.907805 75.408456 
L 317.166992 75.314144 
L 317.685364 90.369043 
L 318.203737 111.596802 
L 318.72211 121.84187 
L 318.981297 119.835532 
L 319.49967 100.447916 
L 320.277229 64.95764 
L 320.536416 58.722381 
L 320.795602 57.61781 
L 321.054788 60.884536 
L 322.350721 98.893905 
L 322.609907 97.413231 
L 322.869094 91.380578 
L 323.387467 68.231249 
L 323.905839 43.285812 
L 324.165026 37.193979 
L 324.424212 34.583077 
L 324.683399 36.862564 
L 324.942585 43.231034 
L 325.720145 73.599834 
L 325.979331 79.074587 
L 326.238518 79.970398 
L 326.497704 76.328035 
L 326.756891 70.103843 
L 327.53445 34.531256 
L 327.793636 26.112798 
L 327.793636 26.112798 
" style="fill:none;stroke:#1f77b4;stroke-linecap:square;"/>
   </g>
   <g id="patch_3">
    <path d="M 55.92 138.5415 
L 55.92 17.442 
" style="fill:none;stroke:#000000;stroke-linecap:square;stroke-linejoin:miter;stroke-width:0.8;"/>
   </g>
   <g id="patch_4">
    <path d="M 340.74 138.5415 
L 340.74 17.442 
" style="fill:none;stroke:#000000;stroke-linecap:square;stroke-linejoin:miter;stroke-width:0.8;"/>
   </g>
   <g id="patch_5">
    <path d="M 55.92 138.5415 
L 340.74 138.5415 
" style="fill:none;stroke:#000000;stroke-linecap:square;stroke-linejoin:miter;stroke-width:0.8;"/>
   </g>
   <g id="patch_6">
    <path d="M 55.92 17.442 
L 340.74 17.442 
" style="fill:none;stroke:#000000;stroke-linecap:square;stroke-linejoin:miter;stroke-width:0.8;"/>
   </g>
   <g id="text_14">
    <!-- Plot 1 - Signal -->
    <g style="fill:#0000ff;" transform="translate(170.701875 11.442)scale(0.08 -0.08)">
     <defs>
      <path d="M 19.671875 64.796875 
L 19.671875 37.40625 
L 32.078125 37.40625 
Q 38.96875 37.40625 42.71875 40.96875 
Q 46.484375 44.53125 46.484375 51.125 
Q 46.484375 57.671875 42.71875 61.234375 
Q 38.96875 64.796875 32.078125 64.796875 
z
M 9.8125 72.90625 
L 32.078125 72.90625 
Q 44.34375 72.90625 50.609375 67.359375 
Q 56.890625 61.8125 56.890625 51.125 
Q 56.890625 40.328125 50.609375 34.8125 
Q 44.34375 29.296875 32.078125 29.296875 
L 19.671875 29.296875 
L 19.671875 0 
L 9.8125 0 
z
" id="DejaVuSans-80"/>
      <path d="M 30.609375 48.390625 
Q 23.390625 48.390625 19.1875 42.75 
Q 14.984375 37.109375 14.984375 27.296875 
Q 14.984375 17.484375 19.15625 11.84375 
Q 23.34375 6.203125 30.609375 6.203125 
Q 37.796875 6.203125 41.984375 11.859375 
Q 46.1875 17.53125 46.1875 27.296875 
Q 46.1875 37.015625 41.984375 42.703125 
Q 37.796875 48.390625 30.609375 48.390625 
z
M 30.609375 56 
Q 42.328125 56 49.015625 48.375 
Q 55.71875 40.765625 55.71875 27.296875 
Q 55.71875 13.875 49.015625 6.21875 
Q 42.328125 -1.421875 30.609375 -1.421875 
Q 18.84375 -1.421875 12.171875 6.21875 
Q 5.515625 13.875 5.515625 27.296875 
Q 5.515625 40.765625 12.171875 48.375 
Q 18.84375 56 30.609375 56 
z
" id="DejaVuSans-111"/>
      <path d="M 4.890625 31.390625 
L 31.203125 31.390625 
L 31.203125 23.390625 
L 4.890625 23.390625 
z
" id="DejaVuSans-45"/>
      <path d="M 53.515625 70.515625 
L 53.515625 60.890625 
Q 47.90625 63.578125 42.921875 64.890625 
Q 37.9375 66.21875 33.296875 66.21875 
Q 25.25 66.21875 20.875 63.09375 
Q 16.5 59.96875 16.5 54.203125 
Q 16.5 49.359375 19.40625 46.890625 
Q 22.3125 44.4375 30.421875 42.921875 
L 36.375 41.703125 
Q 47.40625 39.59375 52.65625 34.296875 
Q 57.90625 29 57.90625 20.125 
Q 57.90625 9.515625 50.796875 4.046875 
Q 43.703125 -1.421875 29.984375 -1.421875 
Q 24.8125 -1.421875 18.96875 -0.25 
Q 13.140625 0.921875 6.890625 3.21875 
L 6.890625 13.375 
Q 12.890625 10.015625 18.65625 8.296875 
Q 24.421875 6.59375 29.984375 6.59375 
Q 38.421875 6.59375 43.015625 9.90625 
Q 47.609375 13.234375 47.609375 19.390625 
Q 47.609375 24.75 44.3125 27.78125 
Q 41.015625 30.8125 33.5 32.328125 
L 27.484375 33.5 
Q 16.453125 35.6875 11.515625 40.375 
Q 6.59375 45.0625 6.59375 53.421875 
Q 6.59375 63.09375 13.40625 68.65625 
Q 20.21875 74.21875 32.171875 74.21875 
Q 37.3125 74.21875 42.625 73.28125 
Q 47.953125 72.359375 53.515625 70.515625 
z
" id="DejaVuSans-83"/>
      <path d="M 45.40625 27.984375 
Q 45.40625 37.75 41.375 43.109375 
Q 37.359375 48.484375 30.078125 48.484375 
Q 22.859375 48.484375 18.828125 43.109375 
Q 14.796875 37.75 14.796875 27.984375 
Q 14.796875 18.265625 18.828125 12.890625 
Q 22.859375 7.515625 30.078125 7.515625 
Q 37.359375 7.515625 41.375 12.890625 
Q 45.40625 18.265625 45.40625 27.984375 
z
M 54.390625 6.78125 
Q 54.390625 -7.171875 48.1875 -13.984375 
Q 42 -20.796875 29.203125 -20.796875 
Q 24.46875 -20.796875 20.265625 -20.09375 
Q 16.0625 -19.390625 12.109375 -17.921875 
L 12.109375 -9.1875 
Q 16.0625 -11.328125 19.921875 -12.34375 
Q 23.78125 -13.375 27.78125 -13.375 
Q 36.625 -13.375 41.015625 -8.765625 
Q 45.40625 -4.15625 45.40625 5.171875 
L 45.40625 9.625 
Q 42.625 4.78125 38.28125 2.390625 
Q 33.9375 0 27.875 0 
Q 17.828125 0 11.671875 7.65625 
Q 5.515625 15.328125 5.515625 27.984375 
Q 5.515625 40.671875 11.671875 48.328125 
Q 17.828125 56 27.875 56 
Q 33.9375 56 38.28125 53.609375 
Q 42.625 51.21875 45.40625 46.390625 
L 45.40625 54.6875 
L 54.390625 54.6875 
z
" id="DejaVuSans-103"/>
      <path d="M 54.890625 33.015625 
L 54.890625 0 
L 45.90625 0 
L 45.90625 32.71875 
Q 45.90625 40.484375 42.875 44.328125 
Q 39.84375 48.1875 33.796875 48.1875 
Q 26.515625 48.1875 22.3125 43.546875 
Q 18.109375 38.921875 18.109375 30.90625 
L 18.109375 0 
L 9.078125 0 
L 9.078125 54.6875 
L 18.109375 54.6875 
L 18.109375 46.1875 
Q 21.34375 51.125 25.703125 53.5625 
Q 30.078125 56 35.796875 56 
Q 45.21875 56 50.046875 50.171875 
Q 54.890625 44.34375 54.890625 33.015625 
z
" id="DejaVuSans-110"/>
      <path d="M 34.28125 27.484375 
Q 23.390625 27.484375 19.1875 25 
Q 14.984375 22.515625 14.984375 16.5 
Q 14.984375 11.71875 18.140625 8.90625 
Q 21.296875 6.109375 26.703125 6.109375 
Q 34.1875 6.109375 38.703125 11.40625 
Q 43.21875 16.703125 43.21875 25.484375 
L 43.21875 27.484375 
z
M 52.203125 31.203125 
L 52.203125 0 
L 43.21875 0 
L 43.21875 8.296875 
Q 40.140625 3.328125 35.546875 0.953125 
Q 30.953125 -1.421875 24.3125 -1.421875 
Q 15.921875 -1.421875 10.953125 3.296875 
Q 6 8.015625 6 15.921875 
Q 6 25.140625 12.171875 29.828125 
Q 18.359375 34.515625 30.609375 34.515625 
L 43.21875 34.515625 
L 43.21875 35.40625 
Q 43.21875 41.609375 39.140625 45 
Q 35.0625 48.390625 27.6875 48.390625 
Q 23 48.390625 18.546875 47.265625 
Q 14.109375 46.140625 10.015625 43.890625 
L 10.015625 52.203125 
Q 14.9375 54.109375 19.578125 55.046875 
Q 24.21875 56 28.609375 56 
Q 40.484375 56 46.34375 49.84375 
Q 52.203125 43.703125 52.203125 31.203125 
z
" id="DejaVuSans-97"/>
     </defs>
     <use xlink:href="#DejaVuSans-80"/>
     <use x="60.302734" xlink:href="#DejaVuSans-108"/>
     <use x="88.085938" xlink:href="#DejaVuSans-111"/>
     <use x="149.267578" xlink:href="#DejaVuSans-116"/>
     <use x="188.476562" xlink:href="#DejaVuSans-32"/>
     <use x="220.263672" xlink:href="#DejaVuSans-49"/>
     <use x="283.886719" xlink:href="#DejaVuSans-32"/>
     <use x="315.673828" xlink:href="#DejaVuSans-45"/>
     <use x="351.757812" xlink:href="#DejaVuSans-32"/>
     <use x="383.544922" xlink:href="#DejaVuSans-83"/>
     <use x="447.021484" xlink:href="#DejaVuSans-105"/>
     <use x="474.804688" xlink:href="#DejaVuSans-103"/>
     <use x="538.28125" xlink:href="#DejaVuSans-110"/>
     <use x="601.660156" xlink:href="#DejaVuSans-97"/>
     <use x="662.939453" xlink:href="#DejaVuSans-108"/>
    </g>
   </g>
  </g>
  <g id="axes_2">
   <g id="patch_7">
    <path d="M 396.66 138.5415 
L 681.48 138.5415 
L 681.48 17.442 
L 396.66 17.442 
z
" style="fill:#ffffff;"/>
   </g>
   <g id="matplotlib.axis_3">
    <g id="xtick_7">
     <g id="line2d_13">
      <g>
       <use style="stroke:#000000;stroke-width:0.8;" x="409.606364" xlink:href="#m3dfaed9667" y="138.5415"/>
      </g>
     </g>
     <g id="text_15">
      <!-- 0 -->
      <g transform="translate(407.697614 150.100563)scale(0.06 -0.06)">
       <use xlink:href="#DejaVuSans-48"/>
      </g>
     </g>
    </g>
    <g id="xtick_8">
     <g id="line2d_14">
      <g>
       <use style="stroke:#000000;stroke-width:0.8;" x="461.391818" xlink:href="#m3dfaed9667" y="138.5415"/>
      </g>
     </g>
     <g id="text_16">
      <!-- 1 -->
      <g transform="translate(459.483068 150.100563)scale(0.06 -0.06)">
       <use xlink:href="#DejaVuSans-49"/>
      </g>
     </g>
    </g>
    <g id="xtick_9">
     <g id="line2d_15">
      <g>
       <use style="stroke:#000000;stroke-width:0.8;" x="513.177273" xlink:href="#m3dfaed9667" y="138.5415"/>
      </g>
     </g>
     <g id="text_17">
      <!-- 2 -->
      <g transform="translate(511.268523 150.100563)scale(0.06 -0.06)">
       <use xlink:href="#DejaVuSans-50"/>
      </g>
     </g>
    </g>
    <g id="xtick_10">
     <g id="line2d_16">
      <g>
       <use style="stroke:#000000;stroke-width:0.8;" x="564.962727" xlink:href="#m3dfaed9667" y="138.5415"/>
      </g>
     </g>
     <g id="text_18">
      <!-- 3 -->
      <g transform="translate(563.053977 150.100563)scale(0.06 -0.06)">
       <defs>
        <path d="M 40.578125 39.3125 
Q 47.65625 37.796875 51.625 33 
Q 55.609375 28.21875 55.609375 21.1875 
Q 55.609375 10.40625 48.1875 4.484375 
Q 40.765625 -1.421875 27.09375 -1.421875 
Q 22.515625 -1.421875 17.65625 -0.515625 
Q 12.796875 0.390625 7.625 2.203125 
L 7.625 11.71875 
Q 11.71875 9.328125 16.59375 8.109375 
Q 21.484375 6.890625 26.8125 6.890625 
Q 36.078125 6.890625 40.9375 10.546875 
Q 45.796875 14.203125 45.796875 21.1875 
Q 45.796875 27.640625 41.28125 31.265625 
Q 36.765625 34.90625 28.71875 34.90625 
L 20.21875 34.90625 
L 20.21875 43.015625 
L 29.109375 43.015625 
Q 36.375 43.015625 40.234375 45.921875 
Q 44.09375 48.828125 44.09375 54.296875 
Q 44.09375 59.90625 40.109375 62.90625 
Q 36.140625 65.921875 28.71875 65.921875 
Q 24.65625 65.921875 20.015625 65.03125 
Q 15.375 64.15625 9.8125 62.3125 
L 9.8125 71.09375 
Q 15.4375 72.65625 20.34375 73.4375 
Q 25.25 74.21875 29.59375 74.21875 
Q 40.828125 74.21875 47.359375 69.109375 
Q 53.90625 64.015625 53.90625 55.328125 
Q 53.90625 49.265625 50.4375 45.09375 
Q 46.96875 40.921875 40.578125 39.3125 
z
" id="DejaVuSans-51"/>
       </defs>
       <use xlink:href="#DejaVuSans-51"/>
      </g>
     </g>
    </g>
    <g id="xtick_11">
     <g id="line2d_17">
      <g>
       <use style="stroke:#000000;stroke-width:0.8;" x="616.748182" xlink:href="#m3dfaed9667" y="138.5415"/>
      </g>
     </g>
     <g id="text_19">
      <!-- 4 -->
      <g transform="translate(614.839432 150.100563)scale(0.06 -0.06)">
       <use xlink:href="#DejaVuSans-52"/>
      </g>
     </g>
    </g>
    <g id="xtick_12">
     <g id="line2d_18">
      <g>
       <use style="stroke:#000000;stroke-width:0.8;" x="668.533636" xlink:href="#m3dfaed9667" y="138.5415"/>
      </g>
     </g>
     <g id="text_20">
      <!-- 5 -->
      <g transform="translate(666.624886 150.100563)scale(0.06 -0.06)">
       <defs>
        <path d="M 10.796875 72.90625 
L 49.515625 72.90625 
L 49.515625 64.59375 
L 19.828125 64.59375 
L 19.828125 46.734375 
Q 21.96875 47.46875 24.109375 47.828125 
Q 26.265625 48.1875 28.421875 48.1875 
Q 40.625 48.1875 47.75 41.5 
Q 54.890625 34.8125 54.890625 23.390625 
Q 54.890625 11.625 47.5625 5.09375 
Q 40.234375 -1.421875 26.90625 -1.421875 
Q 22.3125 -1.421875 17.546875 -0.640625 
Q 12.796875 0.140625 7.71875 1.703125 
L 7.71875 11.625 
Q 12.109375 9.234375 16.796875 8.0625 
Q 21.484375 6.890625 26.703125 6.890625 
Q 35.15625 6.890625 40.078125 11.328125 
Q 45.015625 15.765625 45.015625 23.390625 
Q 45.015625 31 40.078125 35.4375 
Q 35.15625 39.890625 26.703125 39.890625 
Q 22.75 39.890625 18.8125 39.015625 
Q 14.890625 38.140625 10.796875 36.28125 
z
" id="DejaVuSans-53"/>
       </defs>
       <use xlink:href="#DejaVuSans-53"/>
      </g>
     </g>
    </g>
    <g id="text_21">
     <!-- Frequency [kHz] -->
     <g transform="translate(506.59 161.427125)scale(0.08 -0.08)">
      <defs>
       <path d="M 9.8125 72.90625 
L 51.703125 72.90625 
L 51.703125 64.59375 
L 19.671875 64.59375 
L 19.671875 43.109375 
L 48.578125 43.109375 
L 48.578125 34.8125 
L 19.671875 34.8125 
L 19.671875 0 
L 9.8125 0 
z
" id="DejaVuSans-70"/>
       <path d="M 41.109375 46.296875 
Q 39.59375 47.171875 37.8125 47.578125 
Q 36.03125 48 33.890625 48 
Q 26.265625 48 22.1875 43.046875 
Q 18.109375 38.09375 18.109375 28.8125 
L 18.109375 0 
L 9.078125 0 
L 9.078125 54.6875 
L 18.109375 54.6875 
L 18.109375 46.1875 
Q 20.953125 51.171875 25.484375 53.578125 
Q 30.03125 56 36.53125 56 
Q 37.453125 56 38.578125 55.875 
Q 39.703125 55.765625 41.0625 55.515625 
z
" id="DejaVuSans-114"/>
       <path d="M 14.796875 27.296875 
Q 14.796875 17.390625 18.875 11.75 
Q 22.953125 6.109375 30.078125 6.109375 
Q 37.203125 6.109375 41.296875 11.75 
Q 45.40625 17.390625 45.40625 27.296875 
Q 45.40625 37.203125 41.296875 42.84375 
Q 37.203125 48.484375 30.078125 48.484375 
Q 22.953125 48.484375 18.875 42.84375 
Q 14.796875 37.203125 14.796875 27.296875 
z
M 45.40625 8.203125 
Q 42.578125 3.328125 38.25 0.953125 
Q 33.9375 -1.421875 27.875 -1.421875 
Q 17.96875 -1.421875 11.734375 6.484375 
Q 5.515625 14.40625 5.515625 27.296875 
Q 5.515625 40.1875 11.734375 48.09375 
Q 17.96875 56 27.875 56 
Q 33.9375 56 38.25 53.625 
Q 42.578125 51.265625 45.40625 46.390625 
L 45.40625 54.6875 
L 54.390625 54.6875 
L 54.390625 -20.796875 
L 45.40625 -20.796875 
z
" id="DejaVuSans-113"/>
       <path d="M 48.78125 52.59375 
L 48.78125 44.1875 
Q 44.96875 46.296875 41.140625 47.34375 
Q 37.3125 48.390625 33.40625 48.390625 
Q 24.65625 48.390625 19.8125 42.84375 
Q 14.984375 37.3125 14.984375 27.296875 
Q 14.984375 17.28125 19.8125 11.734375 
Q 24.65625 6.203125 33.40625 6.203125 
Q 37.3125 6.203125 41.140625 7.25 
Q 44.96875 8.296875 48.78125 10.40625 
L 48.78125 2.09375 
Q 45.015625 0.34375 40.984375 -0.53125 
Q 36.96875 -1.421875 32.421875 -1.421875 
Q 20.0625 -1.421875 12.78125 6.34375 
Q 5.515625 14.109375 5.515625 27.296875 
Q 5.515625 40.671875 12.859375 48.328125 
Q 20.21875 56 33.015625 56 
Q 37.15625 56 41.109375 55.140625 
Q 45.0625 54.296875 48.78125 52.59375 
z
" id="DejaVuSans-99"/>
       <path d="M 32.171875 -5.078125 
Q 28.375 -14.84375 24.75 -17.8125 
Q 21.140625 -20.796875 15.09375 -20.796875 
L 7.90625 -20.796875 
L 7.90625 -13.28125 
L 13.1875 -13.28125 
Q 16.890625 -13.28125 18.9375 -11.515625 
Q 21 -9.765625 23.484375 -3.21875 
L 25.09375 0.875 
L 2.984375 54.6875 
L 12.5 54.6875 
L 29.59375 11.921875 
L 46.6875 54.6875 
L 56.203125 54.6875 
z
" id="DejaVuSans-121"/>
       <path d="M 9.078125 75.984375 
L 18.109375 75.984375 
L 18.109375 31.109375 
L 44.921875 54.6875 
L 56.390625 54.6875 
L 27.390625 29.109375 
L 57.625 0 
L 45.90625 0 
L 18.109375 26.703125 
L 18.109375 0 
L 9.078125 0 
z
" id="DejaVuSans-107"/>
       <path d="M 9.8125 72.90625 
L 19.671875 72.90625 
L 19.671875 43.015625 
L 55.515625 43.015625 
L 55.515625 72.90625 
L 65.375 72.90625 
L 65.375 0 
L 55.515625 0 
L 55.515625 34.71875 
L 19.671875 34.71875 
L 19.671875 0 
L 9.8125 0 
z
" id="DejaVuSans-72"/>
       <path d="M 5.515625 54.6875 
L 48.1875 54.6875 
L 48.1875 46.484375 
L 14.40625 7.171875 
L 48.1875 7.171875 
L 48.1875 0 
L 4.296875 0 
L 4.296875 8.203125 
L 38.09375 47.515625 
L 5.515625 47.515625 
z
" id="DejaVuSans-122"/>
      </defs>
      <use xlink:href="#DejaVuSans-70"/>
      <use x="50.269531" xlink:href="#DejaVuSans-114"/>
      <use x="89.132812" xlink:href="#DejaVuSans-101"/>
      <use x="150.65625" xlink:href="#DejaVuSans-113"/>
      <use x="214.132812" xlink:href="#DejaVuSans-117"/>
      <use x="277.511719" xlink:href="#DejaVuSans-101"/>
      <use x="339.035156" xlink:href="#DejaVuSans-110"/>
      <use x="402.414062" xlink:href="#DejaVuSans-99"/>
      <use x="457.394531" xlink:href="#DejaVuSans-121"/>
      <use x="516.574219" xlink:href="#DejaVuSans-32"/>
      <use x="548.361328" xlink:href="#DejaVuSans-91"/>
      <use x="587.375" xlink:href="#DejaVuSans-107"/>
      <use x="645.285156" xlink:href="#DejaVuSans-72"/>
      <use x="720.480469" xlink:href="#DejaVuSans-122"/>
      <use x="772.970703" xlink:href="#DejaVuSans-93"/>
     </g>
    </g>
   </g>
   <g id="matplotlib.axis_4">
    <g id="ytick_6">
     <g id="line2d_19">
      <g>
       <use style="stroke:#000000;stroke-width:0.8;" x="396.66" xlink:href="#mf88a5d361e" y="125.135257"/>
      </g>
     </g>
     <g id="text_22">
      <!-- −80 -->
      <g transform="translate(376.997188 127.414789)scale(0.06 -0.06)">
       <use xlink:href="#DejaVuSans-8722"/>
       <use x="83.789062" xlink:href="#DejaVuSans-56"/>
       <use x="147.412109" xlink:href="#DejaVuSans-48"/>
      </g>
     </g>
    </g>
    <g id="ytick_7">
     <g id="line2d_20">
      <g>
       <use style="stroke:#000000;stroke-width:0.8;" x="396.66" xlink:href="#mf88a5d361e" y="98.590834"/>
      </g>
     </g>
     <g id="text_23">
      <!-- −60 -->
      <g transform="translate(376.997188 100.870365)scale(0.06 -0.06)">
       <use xlink:href="#DejaVuSans-8722"/>
       <use x="83.789062" xlink:href="#DejaVuSans-54"/>
       <use x="147.412109" xlink:href="#DejaVuSans-48"/>
      </g>
     </g>
    </g>
    <g id="ytick_8">
     <g id="line2d_21">
      <g>
       <use style="stroke:#000000;stroke-width:0.8;" x="396.66" xlink:href="#mf88a5d361e" y="72.04641"/>
      </g>
     </g>
     <g id="text_24">
      <!-- −40 -->
      <g transform="translate(376.997188 74.325942)scale(0.06 -0.06)">
       <use xlink:href="#DejaVuSans-8722"/>
       <use x="83.789062" xlink:href="#DejaVuSans-52"/>
       <use x="147.412109" xlink:href="#DejaVuSans-48"/>
      </g>
     </g>
    </g>
    <g id="ytick_9">
     <g id="line2d_22">
      <g>
       <use style="stroke:#000000;stroke-width:0.8;" x="396.66" xlink:href="#mf88a5d361e" y="45.501987"/>
      </g>
     </g>
     <g id="text_25">
      <!-- −20 -->
      <g transform="translate(376.997188 47.781518)scale(0.06 -0.06)">
       <use xlink:href="#DejaVuSans-8722"/>
       <use x="83.789062" xlink:href="#DejaVuSans-50"/>
       <use x="147.412109" xlink:href="#DejaVuSans-48"/>
      </g>
     </g>
    </g>
    <g id="ytick_10">
     <g id="line2d_23">
      <g>
       <use style="stroke:#000000;stroke-width:0.8;" x="396.66" xlink:href="#mf88a5d361e" y="18.957563"/>
      </g>
     </g>
     <g id="text_26">
      <!-- 0 -->
      <g transform="translate(385.8425 21.237095)scale(0.06 -0.06)">
       <use xlink:href="#DejaVuSans-48"/>
      </g>
     </g>
    </g>
    <g id="text_27">
     <!-- Amplitude (dB) -->
     <g transform="translate(371.333438 108.166125)rotate(-90)scale(0.08 -0.08)">
      <defs>
       <path d="M 31 75.875 
Q 24.46875 64.65625 21.28125 53.65625 
Q 18.109375 42.671875 18.109375 31.390625 
Q 18.109375 20.125 21.3125 9.0625 
Q 24.515625 -2 31 -13.1875 
L 23.1875 -13.1875 
Q 15.875 -1.703125 12.234375 9.375 
Q 8.59375 20.453125 8.59375 31.390625 
Q 8.59375 42.28125 12.203125 53.3125 
Q 15.828125 64.359375 23.1875 75.875 
z
" id="DejaVuSans-40"/>
       <path d="M 19.671875 34.8125 
L 19.671875 8.109375 
L 35.5 8.109375 
Q 43.453125 8.109375 47.28125 11.40625 
Q 51.125 14.703125 51.125 21.484375 
Q 51.125 28.328125 47.28125 31.5625 
Q 43.453125 34.8125 35.5 34.8125 
z
M 19.671875 64.796875 
L 19.671875 42.828125 
L 34.28125 42.828125 
Q 41.5 42.828125 45.03125 45.53125 
Q 48.578125 48.25 48.578125 53.8125 
Q 48.578125 59.328125 45.03125 62.0625 
Q 41.5 64.796875 34.28125 64.796875 
z
M 9.8125 72.90625 
L 35.015625 72.90625 
Q 46.296875 72.90625 52.390625 68.21875 
Q 58.5 63.53125 58.5 54.890625 
Q 58.5 48.1875 55.375 44.234375 
Q 52.25 40.28125 46.1875 39.3125 
Q 53.46875 37.75 57.5 32.78125 
Q 61.53125 27.828125 61.53125 20.40625 
Q 61.53125 10.640625 54.890625 5.3125 
Q 48.25 0 35.984375 0 
L 9.8125 0 
z
" id="DejaVuSans-66"/>
       <path d="M 8.015625 75.875 
L 15.828125 75.875 
Q 23.140625 64.359375 26.78125 53.3125 
Q 30.421875 42.28125 30.421875 31.390625 
Q 30.421875 20.453125 26.78125 9.375 
Q 23.140625 -1.703125 15.828125 -13.1875 
L 8.015625 -13.1875 
Q 14.5 -2 17.703125 9.0625 
Q 20.90625 20.125 20.90625 31.390625 
Q 20.90625 42.671875 17.703125 53.65625 
Q 14.5 64.65625 8.015625 75.875 
z
" id="DejaVuSans-41"/>
      </defs>
      <use xlink:href="#DejaVuSans-65"/>
      <use x="68.408203" xlink:href="#DejaVuSans-109"/>
      <use x="165.820312" xlink:href="#DejaVuSans-112"/>
      <use x="229.296875" xlink:href="#DejaVuSans-108"/>
      <use x="257.080078" xlink:href="#DejaVuSans-105"/>
      <use x="284.863281" xlink:href="#DejaVuSans-116"/>
      <use x="324.072266" xlink:href="#DejaVuSans-117"/>
      <use x="387.451172" xlink:href="#DejaVuSans-100"/>
      <use x="450.927734" xlink:href="#DejaVuSans-101"/>
      <use x="512.451172" xlink:href="#DejaVuSans-32"/>
      <use x="544.238281" xlink:href="#DejaVuSans-40"/>
      <use x="583.251953" xlink:href="#DejaVuSans-100"/>
      <use x="646.728516" xlink:href="#DejaVuSans-66"/>
      <use x="715.332031" xlink:href="#DejaVuSans-41"/>
     </g>
    </g>
   </g>
   <g id="line2d_24">
    <path clip-path="url(#p86843e8410)" d="M 409.606364 106.784236 
L 410.124218 94.51187 
L 410.642073 91.213768 
L 411.159927 98.645291 
L 411.677782 96.25677 
L 412.195636 108.411374 
L 412.713491 100.478235 
L 413.231345 106.374175 
L 413.7492 110.236398 
L 414.267055 30.93784 
L 414.784909 22.946523 
L 415.302764 30.932702 
L 415.820618 91.392724 
L 416.338473 93.708424 
L 416.856327 105.681199 
L 417.374182 95.01682 
L 418.409891 88.098687 
L 418.927745 89.116678 
L 419.4456 107.893265 
L 420.481309 87.544597 
L 420.999164 95.228213 
L 421.517018 109.930807 
L 422.034873 116.480478 
L 422.552727 108.752768 
L 423.070582 105.426089 
L 424.106291 90.24229 
L 424.624145 100.271994 
L 425.142 97.766056 
L 425.659855 91.647778 
L 426.177709 91.477825 
L 426.695564 94.724812 
L 427.213418 89.607746 
L 427.731273 85.625428 
L 428.249127 83.231245 
L 428.766982 82.081084 
L 429.802691 94.181253 
L 430.320545 102.632038 
L 430.8384 87.662221 
L 431.356255 82.872069 
L 431.874109 82.685323 
L 432.391964 94.320613 
L 432.909818 88.172976 
L 433.427673 86.374055 
L 433.945527 93.363771 
L 434.463382 97.291104 
L 434.981236 97.708078 
L 435.499091 104.046723 
L 436.016945 101.312472 
L 436.5348 97.318231 
L 437.052655 95.173676 
L 437.570509 94.852519 
L 438.088364 107.575531 
L 438.606218 91.905756 
L 439.124073 97.194097 
L 439.641927 95.050419 
L 440.159782 93.590526 
L 440.677636 92.89773 
L 441.195491 91.661 
L 441.713345 93.162107 
L 442.2312 88.053718 
L 442.749055 87.978483 
L 443.266909 89.85735 
L 443.784764 93.405616 
L 444.302618 100.719068 
L 444.820473 103.281645 
L 445.338327 30.970411 
L 445.856182 22.959025 
L 446.374036 30.918013 
L 446.891891 92.344973 
L 447.409745 99.691835 
L 447.9276 109.795877 
L 448.445455 99.435088 
L 448.963309 85.391581 
L 449.481164 87.929348 
L 449.999018 91.688444 
L 450.516873 91.924887 
L 451.034727 98.317183 
L 451.552582 101.719118 
L 452.070436 95.210051 
L 452.588291 102.318272 
L 453.106145 95.875028 
L 453.624 91.318908 
L 454.141855 93.466355 
L 454.659709 88.72412 
L 455.177564 88.19228 
L 456.213273 93.631025 
L 456.731127 98.795332 
L 457.248982 91.926217 
L 457.766836 90.736372 
L 458.284691 92.772494 
L 458.802545 92.500988 
L 459.3204 101.700899 
L 459.838255 100.013794 
L 460.356109 109.722982 
L 460.873964 93.228364 
L 461.391818 88.75176 
L 461.909673 90.504864 
L 462.945382 86.599713 
L 463.463236 99.29429 
L 463.981091 95.667618 
L 464.498945 114.779912 
L 465.0168 87.933719 
L 465.534655 86.758879 
L 466.052509 90.73863 
L 466.570364 99.406613 
L 467.088218 89.97792 
L 467.606073 84.935667 
L 468.641782 93.222934 
L 469.159636 100.942662 
L 469.677491 106.638313 
L 470.195345 107.717517 
L 470.7132 89.861853 
L 471.231055 90.266526 
L 471.748909 92.71518 
L 472.266764 109.963577 
L 473.302473 100.38023 
L 473.820327 106.320306 
L 474.338182 91.955948 
L 474.856036 96.188756 
L 475.373891 84.508593 
L 475.891745 88.777987 
L 476.4096 103.83409 
L 476.927455 95.664215 
L 477.963164 86.623478 
L 478.481018 89.809589 
L 478.998873 88.485623 
L 479.516727 93.342123 
L 480.034582 93.897357 
L 480.552436 82.67442 
L 481.070291 88.00837 
L 481.588145 98.698627 
L 482.106 88.172156 
L 482.623855 87.289789 
L 483.659564 95.743556 
L 484.177418 116.275016 
L 484.695273 88.281371 
L 485.213127 85.241608 
L 485.730982 88.50476 
L 486.766691 104.065748 
L 487.284545 101.351141 
L 487.8024 97.899631 
L 488.320255 87.600564 
L 488.838109 102.575267 
L 489.355964 90.169237 
L 489.873818 92.16308 
L 490.391673 98.60391 
L 490.909527 92.376727 
L 491.427382 104.807164 
L 491.945236 92.619559 
L 492.463091 104.573957 
L 492.980945 96.913189 
L 493.4988 108.830067 
L 494.016655 98.220158 
L 494.534509 94.422461 
L 495.052364 88.845735 
L 495.570218 92.743879 
L 496.088073 95.425539 
L 496.605927 98.889384 
L 497.123782 94.432567 
L 497.641636 97.536842 
L 498.159491 95.66374 
L 498.677345 107.235918 
L 499.1952 86.713932 
L 499.713055 86.420188 
L 500.748764 101.82262 
L 501.266618 82.673051 
L 501.784473 80.802831 
L 502.302327 87.481188 
L 502.820182 96.812292 
L 503.338036 98.952901 
L 503.855891 106.036398 
L 504.373745 106.78563 
L 504.8916 100.24105 
L 505.409455 90.716786 
L 505.927309 90.834446 
L 506.445164 97.216458 
L 506.963018 98.62378 
L 507.480873 102.474353 
L 507.998727 101.318171 
L 508.516582 97.473927 
L 509.034436 111.236018 
L 509.552291 99.335586 
L 510.070145 104.682101 
L 510.588 101.131649 
L 511.105855 90.088207 
L 511.623709 87.317327 
L 512.659418 91.721833 
L 513.695127 90.171861 
L 514.212982 102.50033 
L 514.730836 94.77112 
L 515.248691 89.40256 
L 515.766545 85.668716 
L 516.2844 94.82974 
L 516.802255 100.031096 
L 517.320109 97.733936 
L 517.837964 93.898144 
L 518.355818 85.643606 
L 518.873673 85.774822 
L 519.391527 95.617795 
L 520.945091 91.657099 
L 521.462945 87.080763 
L 521.9808 86.107171 
L 522.498655 97.137592 
L 523.016509 94.06336 
L 523.534364 97.411341 
L 524.052218 94.649902 
L 524.570073 91.252183 
L 525.087927 104.098636 
L 525.605782 104.78914 
L 526.123636 101.575167 
L 526.641491 108.037483 
L 527.159345 96.948655 
L 527.6772 96.009815 
L 528.195055 114.00315 
L 528.712909 122.200376 
L 529.230764 107.980887 
L 529.748618 106.328011 
L 530.266473 109.953905 
L 530.784327 104.420629 
L 531.302182 93.75279 
L 531.820036 102.111161 
L 532.337891 97.467156 
L 532.855745 112.957758 
L 533.3736 87.346393 
L 533.891455 91.733188 
L 534.409309 103.237281 
L 534.927164 89.050495 
L 535.445018 89.720713 
L 535.962873 100.741135 
L 536.480727 103.321722 
L 536.998582 95.405279 
L 537.516436 99.463713 
L 538.034291 94.706301 
L 538.552145 93.276897 
L 539.07 92.348737 
L 539.587855 85.683868 
L 540.105709 87.721441 
L 540.623564 95.03899 
L 541.659273 92.028074 
L 542.177127 100.990202 
L 542.694982 113.08712 
L 543.212836 99.205501 
L 544.248545 90.344988 
L 544.7664 94.216424 
L 545.284255 86.711855 
L 545.802109 95.430096 
L 546.319964 99.015833 
L 546.837818 87.622587 
L 547.355673 85.760662 
L 547.873527 93.359771 
L 548.909236 95.863647 
L 549.427091 133.036977 
L 549.944945 103.935224 
L 550.4628 97.399103 
L 550.980655 125.909528 
L 551.498509 103.232025 
L 552.016364 97.334502 
L 552.534218 94.88645 
L 553.569927 87.015837 
L 554.605636 99.756647 
L 555.123491 94.193874 
L 555.641345 101.778725 
L 556.1592 97.053588 
L 556.677055 115.260041 
L 557.194909 97.296553 
L 557.712764 97.913788 
L 558.230618 91.196824 
L 558.748473 96.625839 
L 559.266327 104.357556 
L 559.784182 91.489918 
L 560.302036 91.340317 
L 560.819891 95.631864 
L 561.337745 93.865232 
L 561.8556 91.338026 
L 562.373455 89.956651 
L 562.891309 90.623131 
L 563.409164 98.207009 
L 563.927018 97.869904 
L 564.444873 101.547434 
L 564.962727 101.675983 
L 565.480582 111.579011 
L 565.998436 96.335052 
L 566.516291 95.405678 
L 567.034145 111.176936 
L 567.552 97.078942 
L 568.069855 97.674532 
L 568.587709 101.910425 
L 569.105564 101.725949 
L 569.623418 115.39485 
L 570.141273 106.86851 
L 570.659127 112.424939 
L 571.694836 92.381242 
L 572.212691 91.834115 
L 572.730545 95.585885 
L 573.2484 97.321629 
L 573.766255 107.036579 
L 574.284109 89.60594 
L 574.801964 83.367182 
L 575.319818 93.492756 
L 575.837673 95.326517 
L 576.355527 89.468473 
L 576.873382 89.758259 
L 577.391236 99.301216 
L 577.909091 100.16514 
L 578.426945 103.458512 
L 578.9448 111.239193 
L 579.462655 101.538513 
L 580.498364 90.05768 
L 581.016218 89.856588 
L 581.534073 104.735339 
L 582.051927 88.619795 
L 582.569782 86.918435 
L 583.087636 86.610723 
L 583.605491 83.474833 
L 584.123345 91.683618 
L 584.6412 109.152583 
L 585.159055 94.674324 
L 585.676909 97.022833 
L 586.194764 101.224688 
L 586.712618 132.578464 
L 587.230473 96.610218 
L 588.266182 98.982464 
L 588.784036 94.064925 
L 589.301891 91.437259 
L 589.819745 97.198844 
L 590.3376 98.908933 
L 590.855455 103.369498 
L 591.373309 93.889004 
L 591.891164 87.87105 
L 592.409018 85.096406 
L 592.926873 89.781048 
L 593.444727 97.95876 
L 593.962582 87.501667 
L 594.480436 89.31561 
L 594.998291 101.854491 
L 595.516145 109.895655 
L 596.551855 84.993351 
L 597.069709 82.325114 
L 597.587564 83.421317 
L 598.105418 86.066232 
L 598.623273 96.771824 
L 599.141127 91.496522 
L 599.658982 91.850645 
L 600.176836 94.342045 
L 600.694691 93.454022 
L 601.212545 96.799859 
L 601.7304 94.250244 
L 602.248255 88.351536 
L 602.766109 91.575432 
L 603.283964 95.94189 
L 603.801818 110.011238 
L 604.319673 90.504117 
L 604.837527 89.11702 
L 605.355382 89.405426 
L 606.391091 86.930954 
L 606.908945 88.698393 
L 607.4268 93.824478 
L 607.944655 96.35641 
L 608.980364 127.095993 
L 609.498218 107.688157 
L 610.016073 97.082027 
L 610.533927 99.855163 
L 611.051782 95.251749 
L 611.569636 107.878053 
L 612.087491 104.959854 
L 612.605345 92.932155 
L 613.1232 85.273847 
L 613.641055 87.622122 
L 614.676764 90.759008 
L 615.194618 85.087076 
L 615.712473 83.904451 
L 616.748182 100.423956 
L 617.266036 122.808158 
L 617.783891 95.730363 
L 618.301745 99.968153 
L 618.8196 91.237364 
L 619.337455 87.737357 
L 619.855309 90.837845 
L 620.373164 104.512458 
L 620.891018 99.541983 
L 621.408873 104.916165 
L 621.926727 87.719293 
L 622.444582 94.742064 
L 622.962436 96.372345 
L 623.480291 104.309731 
L 623.998145 103.802711 
L 624.516 102.34251 
L 625.551709 95.297288 
L 626.069564 93.630155 
L 626.587418 114.913056 
L 627.105273 90.388664 
L 627.623127 87.597107 
L 628.140982 91.621077 
L 628.658836 93.983579 
L 629.176691 101.497051 
L 629.694545 102.093014 
L 630.2124 107.885243 
L 630.730255 89.46983 
L 631.248109 86.049667 
L 631.765964 92.837925 
L 632.283818 101.813199 
L 632.801673 96.337206 
L 633.319527 93.167368 
L 633.837382 95.972761 
L 634.355236 103.149353 
L 635.390945 101.46932 
L 635.9088 87.687378 
L 636.426655 88.206152 
L 636.944509 96.605205 
L 637.462364 94.85515 
L 637.980218 101.644142 
L 638.498073 101.488949 
L 639.015927 102.294429 
L 639.533782 109.059752 
L 640.051636 103.625447 
L 640.569491 90.696756 
L 641.087345 94.814657 
L 641.6052 93.598147 
L 642.123055 94.798327 
L 643.158764 83.20502 
L 643.676618 85.683175 
L 644.194473 90.895115 
L 644.712327 89.875721 
L 645.230182 95.608759 
L 645.748036 94.977541 
L 646.265891 98.855341 
L 646.783745 100.98691 
L 647.3016 96.249044 
L 647.819455 96.935947 
L 648.337309 89.238983 
L 648.855164 84.745345 
L 649.373018 84.823806 
L 649.890873 97.651132 
L 650.408727 97.203997 
L 650.926582 93.350335 
L 651.444436 101.009747 
L 651.962291 104.542069 
L 652.480145 117.021475 
L 652.998 91.952515 
L 653.515855 88.404428 
L 654.033709 89.770142 
L 654.551564 90.034326 
L 655.069418 90.006572 
L 655.587273 89.088426 
L 656.622982 91.616949 
L 657.140836 97.610278 
L 657.658691 105.195507 
L 658.176545 89.290517 
L 659.212255 84.872983 
L 660.247964 94.477921 
L 660.765818 93.342677 
L 661.283673 97.51635 
L 661.801527 95.248561 
L 662.319382 86.873398 
L 663.355091 96.473399 
L 663.872945 111.049979 
L 664.3908 96.014197 
L 664.908655 96.968611 
L 665.426509 113.190062 
L 666.462218 96.437769 
L 666.980073 84.554175 
L 667.497927 86.671836 
L 668.015782 95.512263 
L 668.533636 109.865847 
L 668.533636 109.865847 
" style="fill:none;stroke:#1f77b4;stroke-linecap:square;"/>
   </g>
   <g id="patch_8">
    <path d="M 396.66 138.5415 
L 396.66 17.442 
" style="fill:none;stroke:#000000;stroke-linecap:square;stroke-linejoin:miter;stroke-width:0.8;"/>
   </g>
   <g id="patch_9">
    <path d="M 681.48 138.5415 
L 681.48 17.442 
" style="fill:none;stroke:#000000;stroke-linecap:square;stroke-linejoin:miter;stroke-width:0.8;"/>
   </g>
   <g id="patch_10">
    <path d="M 396.66 138.5415 
L 681.48 138.5415 
" style="fill:none;stroke:#000000;stroke-linecap:square;stroke-linejoin:miter;stroke-width:0.8;"/>
   </g>
   <g id="patch_11">
    <path d="M 396.66 17.442 
L 681.48 17.442 
" style="fill:none;stroke:#000000;stroke-linecap:square;stroke-linejoin:miter;stroke-width:0.8;"/>
   </g>
   <g id="text_28">
    <!-- Plot 2 - Signal FFT -->
    <g style="fill:#0000ff;" transform="translate(503.19625 11.442)scale(0.08 -0.08)">
     <defs>
      <path d="M -0.296875 72.90625 
L 61.375 72.90625 
L 61.375 64.59375 
L 35.5 64.59375 
L 35.5 0 
L 25.59375 0 
L 25.59375 64.59375 
L -0.296875 64.59375 
z
" id="DejaVuSans-84"/>
     </defs>
     <use xlink:href="#DejaVuSans-80"/>
     <use x="60.302734" xlink:href="#DejaVuSans-108"/>
     <use x="88.085938" xlink:href="#DejaVuSans-111"/>
     <use x="149.267578" xlink:href="#DejaVuSans-116"/>
     <use x="188.476562" xlink:href="#DejaVuSans-32"/>
     <use x="220.263672" xlink:href="#DejaVuSans-50"/>
     <use x="283.886719" xlink:href="#DejaVuSans-32"/>
     <use x="315.673828" xlink:href="#DejaVuSans-45"/>
     <use x="351.757812" xlink:href="#DejaVuSans-32"/>
     <use x="383.544922" xlink:href="#DejaVuSans-83"/>
     <use x="447.021484" xlink:href="#DejaVuSans-105"/>
     <use x="474.804688" xlink:href="#DejaVuSans-103"/>
     <use x="538.28125" xlink:href="#DejaVuSans-110"/>
     <use x="601.660156" xlink:href="#DejaVuSans-97"/>
     <use x="662.939453" xlink:href="#DejaVuSans-108"/>
     <use x="690.722656" xlink:href="#DejaVuSans-32"/>
     <use x="722.509766" xlink:href="#DejaVuSans-70"/>
     <use x="780.029297" xlink:href="#DejaVuSans-70"/>
     <use x="835.798828" xlink:href="#DejaVuSans-84"/>
    </g>
   </g>
  </g>
  <g id="axes_3">
   <g id="patch_12">
    <path d="M 55.92 300.68325 
L 340.74 300.68325 
L 340.74 179.58375 
L 55.92 179.58375 
z
" style="fill:#ffffff;"/>
   </g>
   <g id="matplotlib.axis_5">
    <g id="xtick_13">
     <g id="line2d_25">
      <g>
       <use style="stroke:#000000;stroke-width:0.8;" x="68.866364" xlink:href="#m3dfaed9667" y="300.68325"/>
      </g>
     </g>
     <g id="text_29">
      <!-- 0.0 -->
      <g transform="translate(64.095426 312.242313)scale(0.06 -0.06)">
       <use xlink:href="#DejaVuSans-48"/>
       <use x="63.623047" xlink:href="#DejaVuSans-46"/>
       <use x="95.410156" xlink:href="#DejaVuSans-48"/>
      </g>
     </g>
    </g>
    <g id="xtick_14">
     <g id="line2d_26">
      <g>
       <use style="stroke:#000000;stroke-width:0.8;" x="120.651818" xlink:href="#m3dfaed9667" y="300.68325"/>
      </g>
     </g>
     <g id="text_30">
      <!-- 0.1 -->
      <g transform="translate(115.880881 312.242313)scale(0.06 -0.06)">
       <use xlink:href="#DejaVuSans-48"/>
       <use x="63.623047" xlink:href="#DejaVuSans-46"/>
       <use x="95.410156" xlink:href="#DejaVuSans-49"/>
      </g>
     </g>
    </g>
    <g id="xtick_15">
     <g id="line2d_27">
      <g>
       <use style="stroke:#000000;stroke-width:0.8;" x="172.437273" xlink:href="#m3dfaed9667" y="300.68325"/>
      </g>
     </g>
     <g id="text_31">
      <!-- 0.2 -->
      <g transform="translate(167.666335 312.242313)scale(0.06 -0.06)">
       <use xlink:href="#DejaVuSans-48"/>
       <use x="63.623047" xlink:href="#DejaVuSans-46"/>
       <use x="95.410156" xlink:href="#DejaVuSans-50"/>
      </g>
     </g>
    </g>
    <g id="xtick_16">
     <g id="line2d_28">
      <g>
       <use style="stroke:#000000;stroke-width:0.8;" x="224.222727" xlink:href="#m3dfaed9667" y="300.68325"/>
      </g>
     </g>
     <g id="text_32">
      <!-- 0.3 -->
      <g transform="translate(219.45179 312.242313)scale(0.06 -0.06)">
       <use xlink:href="#DejaVuSans-48"/>
       <use x="63.623047" xlink:href="#DejaVuSans-46"/>
       <use x="95.410156" xlink:href="#DejaVuSans-51"/>
      </g>
     </g>
    </g>
    <g id="xtick_17">
     <g id="line2d_29">
      <g>
       <use style="stroke:#000000;stroke-width:0.8;" x="276.008182" xlink:href="#m3dfaed9667" y="300.68325"/>
      </g>
     </g>
     <g id="text_33">
      <!-- 0.4 -->
      <g transform="translate(271.237244 312.242313)scale(0.06 -0.06)">
       <use xlink:href="#DejaVuSans-48"/>
       <use x="63.623047" xlink:href="#DejaVuSans-46"/>
       <use x="95.410156" xlink:href="#DejaVuSans-52"/>
      </g>
     </g>
    </g>
    <g id="xtick_18">
     <g id="line2d_30">
      <g>
       <use style="stroke:#000000;stroke-width:0.8;" x="327.793636" xlink:href="#m3dfaed9667" y="300.68325"/>
      </g>
     </g>
     <g id="text_34">
      <!-- 0.5 -->
      <g transform="translate(323.022699 312.242313)scale(0.06 -0.06)">
       <use xlink:href="#DejaVuSans-48"/>
       <use x="63.623047" xlink:href="#DejaVuSans-46"/>
       <use x="95.410156" xlink:href="#DejaVuSans-53"/>
      </g>
     </g>
    </g>
    <g id="text_35">
     <!-- Frequency [kHz] -->
     <g transform="translate(165.85 323.568875)scale(0.08 -0.08)">
      <use xlink:href="#DejaVuSans-70"/>
      <use x="50.269531" xlink:href="#DejaVuSans-114"/>
      <use x="89.132812" xlink:href="#DejaVuSans-101"/>
      <use x="150.65625" xlink:href="#DejaVuSans-113"/>
      <use x="214.132812" xlink:href="#DejaVuSans-117"/>
      <use x="277.511719" xlink:href="#DejaVuSans-101"/>
      <use x="339.035156" xlink:href="#DejaVuSans-110"/>
      <use x="402.414062" xlink:href="#DejaVuSans-99"/>
      <use x="457.394531" xlink:href="#DejaVuSans-121"/>
      <use x="516.574219" xlink:href="#DejaVuSans-32"/>
      <use x="548.361328" xlink:href="#DejaVuSans-91"/>
      <use x="587.375" xlink:href="#DejaVuSans-107"/>
      <use x="645.285156" xlink:href="#DejaVuSans-72"/>
      <use x="720.480469" xlink:href="#DejaVuSans-122"/>
      <use x="772.970703" xlink:href="#DejaVuSans-93"/>
     </g>
    </g>
   </g>
   <g id="matplotlib.axis_6">
    <g id="ytick_11">
     <g id="line2d_31">
      <g>
       <use style="stroke:#000000;stroke-width:0.8;" x="55.92" xlink:href="#mf88a5d361e" y="292.394852"/>
      </g>
     </g>
     <g id="text_36">
      <!-- −70 -->
      <g transform="translate(36.257188 294.674383)scale(0.06 -0.06)">
       <defs>
        <path d="M 8.203125 72.90625 
L 55.078125 72.90625 
L 55.078125 68.703125 
L 28.609375 0 
L 18.3125 0 
L 43.21875 64.59375 
L 8.203125 64.59375 
z
" id="DejaVuSans-55"/>
       </defs>
       <use xlink:href="#DejaVuSans-8722"/>
       <use x="83.789062" xlink:href="#DejaVuSans-55"/>
       <use x="147.412109" xlink:href="#DejaVuSans-48"/>
      </g>
     </g>
    </g>
    <g id="ytick_12">
     <g id="line2d_32">
      <g>
       <use style="stroke:#000000;stroke-width:0.8;" x="55.92" xlink:href="#mf88a5d361e" y="276.381974"/>
      </g>
     </g>
     <g id="text_37">
      <!-- −60 -->
      <g transform="translate(36.257188 278.661505)scale(0.06 -0.06)">
       <use xlink:href="#DejaVuSans-8722"/>
       <use x="83.789062" xlink:href="#DejaVuSans-54"/>
       <use x="147.412109" xlink:href="#DejaVuSans-48"/>
      </g>
     </g>
    </g>
    <g id="ytick_13">
     <g id="line2d_33">
      <g>
       <use style="stroke:#000000;stroke-width:0.8;" x="55.92" xlink:href="#mf88a5d361e" y="260.369097"/>
      </g>
     </g>
     <g id="text_38">
      <!-- −50 -->
      <g transform="translate(36.257188 262.648628)scale(0.06 -0.06)">
       <use xlink:href="#DejaVuSans-8722"/>
       <use x="83.789062" xlink:href="#DejaVuSans-53"/>
       <use x="147.412109" xlink:href="#DejaVuSans-48"/>
      </g>
     </g>
    </g>
    <g id="ytick_14">
     <g id="line2d_34">
      <g>
       <use style="stroke:#000000;stroke-width:0.8;" x="55.92" xlink:href="#mf88a5d361e" y="244.356219"/>
      </g>
     </g>
     <g id="text_39">
      <!-- −40 -->
      <g transform="translate(36.257188 246.635751)scale(0.06 -0.06)">
       <use xlink:href="#DejaVuSans-8722"/>
       <use x="83.789062" xlink:href="#DejaVuSans-52"/>
       <use x="147.412109" xlink:href="#DejaVuSans-48"/>
      </g>
     </g>
    </g>
    <g id="ytick_15">
     <g id="line2d_35">
      <g>
       <use style="stroke:#000000;stroke-width:0.8;" x="55.92" xlink:href="#mf88a5d361e" y="228.343342"/>
      </g>
     </g>
     <g id="text_40">
      <!-- −30 -->
      <g transform="translate(36.257188 230.622873)scale(0.06 -0.06)">
       <use xlink:href="#DejaVuSans-8722"/>
       <use x="83.789062" xlink:href="#DejaVuSans-51"/>
       <use x="147.412109" xlink:href="#DejaVuSans-48"/>
      </g>
     </g>
    </g>
    <g id="ytick_16">
     <g id="line2d_36">
      <g>
       <use style="stroke:#000000;stroke-width:0.8;" x="55.92" xlink:href="#mf88a5d361e" y="212.330465"/>
      </g>
     </g>
     <g id="text_41">
      <!-- −20 -->
      <g transform="translate(36.257188 214.609996)scale(0.06 -0.06)">
       <use xlink:href="#DejaVuSans-8722"/>
       <use x="83.789062" xlink:href="#DejaVuSans-50"/>
       <use x="147.412109" xlink:href="#DejaVuSans-48"/>
      </g>
     </g>
    </g>
    <g id="ytick_17">
     <g id="line2d_37">
      <g>
       <use style="stroke:#000000;stroke-width:0.8;" x="55.92" xlink:href="#mf88a5d361e" y="196.317587"/>
      </g>
     </g>
     <g id="text_42">
      <!-- −10 -->
      <g transform="translate(36.257188 198.597119)scale(0.06 -0.06)">
       <use xlink:href="#DejaVuSans-8722"/>
       <use x="83.789062" xlink:href="#DejaVuSans-49"/>
       <use x="147.412109" xlink:href="#DejaVuSans-48"/>
      </g>
     </g>
    </g>
    <g id="ytick_18">
     <g id="line2d_38">
      <g>
       <use style="stroke:#000000;stroke-width:0.8;" x="55.92" xlink:href="#mf88a5d361e" y="180.30471"/>
      </g>
     </g>
     <g id="text_43">
      <!-- 0 -->
      <g transform="translate(45.1025 182.584241)scale(0.06 -0.06)">
       <use xlink:href="#DejaVuSans-48"/>
      </g>
     </g>
    </g>
    <g id="text_44">
     <!-- Amplitude (dB) -->
     <g transform="translate(30.593438 270.307875)rotate(-90)scale(0.08 -0.08)">
      <use xlink:href="#DejaVuSans-65"/>
      <use x="68.408203" xlink:href="#DejaVuSans-109"/>
      <use x="165.820312" xlink:href="#DejaVuSans-112"/>
      <use x="229.296875" xlink:href="#DejaVuSans-108"/>
      <use x="257.080078" xlink:href="#DejaVuSans-105"/>
      <use x="284.863281" xlink:href="#DejaVuSans-116"/>
      <use x="324.072266" xlink:href="#DejaVuSans-117"/>
      <use x="387.451172" xlink:href="#DejaVuSans-100"/>
      <use x="450.927734" xlink:href="#DejaVuSans-101"/>
      <use x="512.451172" xlink:href="#DejaVuSans-32"/>
      <use x="544.238281" xlink:href="#DejaVuSans-40"/>
      <use x="583.251953" xlink:href="#DejaVuSans-100"/>
      <use x="646.728516" xlink:href="#DejaVuSans-66"/>
      <use x="715.332031" xlink:href="#DejaVuSans-41"/>
     </g>
    </g>
   </g>
   <g id="line2d_39">
    <path clip-path="url(#pa60811d3da)" d="M 68.866364 274.684648 
L 74.044909 268.839884 
L 79.223455 255.981193 
L 84.402 247.494115 
L 89.580545 256.802815 
L 94.759091 254.980777 
L 99.937636 253.066782 
L 105.116182 257.493434 
L 110.294727 262.645037 
L 115.473273 194.652645 
L 120.651818 185.088273 
L 125.830364 194.724055 
L 131.008909 255.113531 
L 136.187455 265.764547 
L 141.366 266.492399 
L 146.544545 269.507716 
L 151.723091 287.097264 
L 156.901636 264.810052 
L 162.080182 251.913753 
L 167.258727 251.478107 
L 172.437273 263.616786 
L 177.615818 257.88716 
L 182.794364 265.628923 
L 187.972909 248.177614 
L 193.151455 256.400054 
L 198.33 260.81175 
L 203.508545 260.567713 
L 208.687091 257.86155 
L 213.865636 254.812762 
L 219.044182 194.709049 
L 224.222727 185.101062 
L 229.401273 194.740133 
L 234.579818 266.688471 
L 239.758364 258.807993 
L 244.936909 247.836761 
L 250.115455 258.092518 
L 255.294 253.243003 
L 260.472545 251.102734 
L 265.651091 257.919482 
L 270.829636 264.753737 
L 276.008182 295.178727 
L 281.186727 262.404838 
L 286.365273 269.656052 
L 291.543818 261.604971 
L 296.722364 265.000608 
L 301.900909 253.020538 
L 307.079455 244.384085 
L 312.258 242.18152 
L 317.436545 246.258438 
L 322.615091 246.36692 
L 327.793636 249.524331 
" style="fill:none;stroke:#1f77b4;stroke-linecap:square;"/>
   </g>
   <g id="patch_13">
    <path d="M 55.92 300.68325 
L 55.92 179.58375 
" style="fill:none;stroke:#000000;stroke-linecap:square;stroke-linejoin:miter;stroke-width:0.8;"/>
   </g>
   <g id="patch_14">
    <path d="M 340.74 300.68325 
L 340.74 179.58375 
" style="fill:none;stroke:#000000;stroke-linecap:square;stroke-linejoin:miter;stroke-width:0.8;"/>
   </g>
   <g id="patch_15">
    <path d="M 55.92 300.68325 
L 340.74 300.68325 
" style="fill:none;stroke:#000000;stroke-linecap:square;stroke-linejoin:miter;stroke-width:0.8;"/>
   </g>
   <g id="patch_16">
    <path d="M 55.92 179.58375 
L 340.74 179.58375 
" style="fill:none;stroke:#000000;stroke-linecap:square;stroke-linejoin:miter;stroke-width:0.8;"/>
   </g>
   <g id="text_45">
    <!-- Plot 3 - Signal FFT after downsampling only -->
    <g style="fill:#0000ff;" transform="translate(111.6575 173.58375)scale(0.08 -0.08)">
     <defs>
      <path d="M 37.109375 75.984375 
L 37.109375 68.5 
L 28.515625 68.5 
Q 23.6875 68.5 21.796875 66.546875 
Q 19.921875 64.59375 19.921875 59.515625 
L 19.921875 54.6875 
L 34.71875 54.6875 
L 34.71875 47.703125 
L 19.921875 47.703125 
L 19.921875 0 
L 10.890625 0 
L 10.890625 47.703125 
L 2.296875 47.703125 
L 2.296875 54.6875 
L 10.890625 54.6875 
L 10.890625 58.5 
Q 10.890625 67.625 15.140625 71.796875 
Q 19.390625 75.984375 28.609375 75.984375 
z
" id="DejaVuSans-102"/>
      <path d="M 4.203125 54.6875 
L 13.1875 54.6875 
L 24.421875 12.015625 
L 35.59375 54.6875 
L 46.1875 54.6875 
L 57.421875 12.015625 
L 68.609375 54.6875 
L 77.59375 54.6875 
L 63.28125 0 
L 52.6875 0 
L 40.921875 44.828125 
L 29.109375 0 
L 18.5 0 
z
" id="DejaVuSans-119"/>
     </defs>
     <use xlink:href="#DejaVuSans-80"/>
     <use x="60.302734" xlink:href="#DejaVuSans-108"/>
     <use x="88.085938" xlink:href="#DejaVuSans-111"/>
     <use x="149.267578" xlink:href="#DejaVuSans-116"/>
     <use x="188.476562" xlink:href="#DejaVuSans-32"/>
     <use x="220.263672" xlink:href="#DejaVuSans-51"/>
     <use x="283.886719" xlink:href="#DejaVuSans-32"/>
     <use x="315.673828" xlink:href="#DejaVuSans-45"/>
     <use x="351.757812" xlink:href="#DejaVuSans-32"/>
     <use x="383.544922" xlink:href="#DejaVuSans-83"/>
     <use x="447.021484" xlink:href="#DejaVuSans-105"/>
     <use x="474.804688" xlink:href="#DejaVuSans-103"/>
     <use x="538.28125" xlink:href="#DejaVuSans-110"/>
     <use x="601.660156" xlink:href="#DejaVuSans-97"/>
     <use x="662.939453" xlink:href="#DejaVuSans-108"/>
     <use x="690.722656" xlink:href="#DejaVuSans-32"/>
     <use x="722.509766" xlink:href="#DejaVuSans-70"/>
     <use x="780.029297" xlink:href="#DejaVuSans-70"/>
     <use x="835.798828" xlink:href="#DejaVuSans-84"/>
     <use x="896.882812" xlink:href="#DejaVuSans-32"/>
     <use x="928.669922" xlink:href="#DejaVuSans-97"/>
     <use x="989.949219" xlink:href="#DejaVuSans-102"/>
     <use x="1023.404297" xlink:href="#DejaVuSans-116"/>
     <use x="1062.613281" xlink:href="#DejaVuSans-101"/>
     <use x="1124.136719" xlink:href="#DejaVuSans-114"/>
     <use x="1165.25" xlink:href="#DejaVuSans-32"/>
     <use x="1197.037109" xlink:href="#DejaVuSans-100"/>
     <use x="1260.513672" xlink:href="#DejaVuSans-111"/>
     <use x="1321.695312" xlink:href="#DejaVuSans-119"/>
     <use x="1403.482422" xlink:href="#DejaVuSans-110"/>
     <use x="1466.861328" xlink:href="#DejaVuSans-115"/>
     <use x="1518.960938" xlink:href="#DejaVuSans-97"/>
     <use x="1580.240234" xlink:href="#DejaVuSans-109"/>
     <use x="1677.652344" xlink:href="#DejaVuSans-112"/>
     <use x="1741.128906" xlink:href="#DejaVuSans-108"/>
     <use x="1768.912109" xlink:href="#DejaVuSans-105"/>
     <use x="1796.695312" xlink:href="#DejaVuSans-110"/>
     <use x="1860.074219" xlink:href="#DejaVuSans-103"/>
     <use x="1923.550781" xlink:href="#DejaVuSans-32"/>
     <use x="1955.337891" xlink:href="#DejaVuSans-111"/>
     <use x="2016.519531" xlink:href="#DejaVuSans-110"/>
     <use x="2079.898438" xlink:href="#DejaVuSans-108"/>
     <use x="2107.681641" xlink:href="#DejaVuSans-121"/>
    </g>
   </g>
  </g>
  <g id="axes_4">
   <g id="patch_17">
    <path d="M 396.66 300.68325 
L 681.48 300.68325 
L 681.48 179.58375 
L 396.66 179.58375 
z
" style="fill:#ffffff;"/>
   </g>
   <g id="matplotlib.axis_7">
    <g id="xtick_19">
     <g id="line2d_40">
      <g>
       <use style="stroke:#000000;stroke-width:0.8;" x="409.606364" xlink:href="#m3dfaed9667" y="300.68325"/>
      </g>
     </g>
     <g id="text_46">
      <!-- 0.0 -->
      <g transform="translate(404.835426 312.242313)scale(0.06 -0.06)">
       <use xlink:href="#DejaVuSans-48"/>
       <use x="63.623047" xlink:href="#DejaVuSans-46"/>
       <use x="95.410156" xlink:href="#DejaVuSans-48"/>
      </g>
     </g>
    </g>
    <g id="xtick_20">
     <g id="line2d_41">
      <g>
       <use style="stroke:#000000;stroke-width:0.8;" x="461.391818" xlink:href="#m3dfaed9667" y="300.68325"/>
      </g>
     </g>
     <g id="text_47">
      <!-- 0.1 -->
      <g transform="translate(456.620881 312.242313)scale(0.06 -0.06)">
       <use xlink:href="#DejaVuSans-48"/>
       <use x="63.623047" xlink:href="#DejaVuSans-46"/>
       <use x="95.410156" xlink:href="#DejaVuSans-49"/>
      </g>
     </g>
    </g>
    <g id="xtick_21">
     <g id="line2d_42">
      <g>
       <use style="stroke:#000000;stroke-width:0.8;" x="513.177273" xlink:href="#m3dfaed9667" y="300.68325"/>
      </g>
     </g>
     <g id="text_48">
      <!-- 0.2 -->
      <g transform="translate(508.406335 312.242313)scale(0.06 -0.06)">
       <use xlink:href="#DejaVuSans-48"/>
       <use x="63.623047" xlink:href="#DejaVuSans-46"/>
       <use x="95.410156" xlink:href="#DejaVuSans-50"/>
      </g>
     </g>
    </g>
    <g id="xtick_22">
     <g id="line2d_43">
      <g>
       <use style="stroke:#000000;stroke-width:0.8;" x="564.962727" xlink:href="#m3dfaed9667" y="300.68325"/>
      </g>
     </g>
     <g id="text_49">
      <!-- 0.3 -->
      <g transform="translate(560.19179 312.242313)scale(0.06 -0.06)">
       <use xlink:href="#DejaVuSans-48"/>
       <use x="63.623047" xlink:href="#DejaVuSans-46"/>
       <use x="95.410156" xlink:href="#DejaVuSans-51"/>
      </g>
     </g>
    </g>
    <g id="xtick_23">
     <g id="line2d_44">
      <g>
       <use style="stroke:#000000;stroke-width:0.8;" x="616.748182" xlink:href="#m3dfaed9667" y="300.68325"/>
      </g>
     </g>
     <g id="text_50">
      <!-- 0.4 -->
      <g transform="translate(611.977244 312.242313)scale(0.06 -0.06)">
       <use xlink:href="#DejaVuSans-48"/>
       <use x="63.623047" xlink:href="#DejaVuSans-46"/>
       <use x="95.410156" xlink:href="#DejaVuSans-52"/>
      </g>
     </g>
    </g>
    <g id="xtick_24">
     <g id="line2d_45">
      <g>
       <use style="stroke:#000000;stroke-width:0.8;" x="668.533636" xlink:href="#m3dfaed9667" y="300.68325"/>
      </g>
     </g>
     <g id="text_51">
      <!-- 0.5 -->
      <g transform="translate(663.762699 312.242313)scale(0.06 -0.06)">
       <use xlink:href="#DejaVuSans-48"/>
       <use x="63.623047" xlink:href="#DejaVuSans-46"/>
       <use x="95.410156" xlink:href="#DejaVuSans-53"/>
      </g>
     </g>
    </g>
    <g id="text_52">
     <!-- Frequency [kHz] -->
     <g transform="translate(506.59 323.568875)scale(0.08 -0.08)">
      <use xlink:href="#DejaVuSans-70"/>
      <use x="50.269531" xlink:href="#DejaVuSans-114"/>
      <use x="89.132812" xlink:href="#DejaVuSans-101"/>
      <use x="150.65625" xlink:href="#DejaVuSans-113"/>
      <use x="214.132812" xlink:href="#DejaVuSans-117"/>
      <use x="277.511719" xlink:href="#DejaVuSans-101"/>
      <use x="339.035156" xlink:href="#DejaVuSans-110"/>
      <use x="402.414062" xlink:href="#DejaVuSans-99"/>
      <use x="457.394531" xlink:href="#DejaVuSans-121"/>
      <use x="516.574219" xlink:href="#DejaVuSans-32"/>
      <use x="548.361328" xlink:href="#DejaVuSans-91"/>
      <use x="587.375" xlink:href="#DejaVuSans-107"/>
      <use x="645.285156" xlink:href="#DejaVuSans-72"/>
      <use x="720.480469" xlink:href="#DejaVuSans-122"/>
      <use x="772.970703" xlink:href="#DejaVuSans-93"/>
     </g>
    </g>
   </g>
   <g id="matplotlib.axis_8">
    <g id="ytick_19">
     <g id="line2d_46">
      <g>
       <use style="stroke:#000000;stroke-width:0.8;" x="396.66" xlink:href="#mf88a5d361e" y="290.059791"/>
      </g>
     </g>
     <g id="text_53">
      <!-- −70 -->
      <g transform="translate(376.997188 292.339322)scale(0.06 -0.06)">
       <use xlink:href="#DejaVuSans-8722"/>
       <use x="83.789062" xlink:href="#DejaVuSans-55"/>
       <use x="147.412109" xlink:href="#DejaVuSans-48"/>
      </g>
     </g>
    </g>
    <g id="ytick_20">
     <g id="line2d_47">
      <g>
       <use style="stroke:#000000;stroke-width:0.8;" x="396.66" xlink:href="#mf88a5d361e" y="274.391049"/>
      </g>
     </g>
     <g id="text_54">
      <!-- −60 -->
      <g transform="translate(376.997188 276.670581)scale(0.06 -0.06)">
       <use xlink:href="#DejaVuSans-8722"/>
       <use x="83.789062" xlink:href="#DejaVuSans-54"/>
       <use x="147.412109" xlink:href="#DejaVuSans-48"/>
      </g>
     </g>
    </g>
    <g id="ytick_21">
     <g id="line2d_48">
      <g>
       <use style="stroke:#000000;stroke-width:0.8;" x="396.66" xlink:href="#mf88a5d361e" y="258.722308"/>
      </g>
     </g>
     <g id="text_55">
      <!-- −50 -->
      <g transform="translate(376.997188 261.001839)scale(0.06 -0.06)">
       <use xlink:href="#DejaVuSans-8722"/>
       <use x="83.789062" xlink:href="#DejaVuSans-53"/>
       <use x="147.412109" xlink:href="#DejaVuSans-48"/>
      </g>
     </g>
    </g>
    <g id="ytick_22">
     <g id="line2d_49">
      <g>
       <use style="stroke:#000000;stroke-width:0.8;" x="396.66" xlink:href="#mf88a5d361e" y="243.053567"/>
      </g>
     </g>
     <g id="text_56">
      <!-- −40 -->
      <g transform="translate(376.997188 245.333098)scale(0.06 -0.06)">
       <use xlink:href="#DejaVuSans-8722"/>
       <use x="83.789062" xlink:href="#DejaVuSans-52"/>
       <use x="147.412109" xlink:href="#DejaVuSans-48"/>
      </g>
     </g>
    </g>
    <g id="ytick_23">
     <g id="line2d_50">
      <g>
       <use style="stroke:#000000;stroke-width:0.8;" x="396.66" xlink:href="#mf88a5d361e" y="227.384825"/>
      </g>
     </g>
     <g id="text_57">
      <!-- −30 -->
      <g transform="translate(376.997188 229.664356)scale(0.06 -0.06)">
       <use xlink:href="#DejaVuSans-8722"/>
       <use x="83.789062" xlink:href="#DejaVuSans-51"/>
       <use x="147.412109" xlink:href="#DejaVuSans-48"/>
      </g>
     </g>
    </g>
    <g id="ytick_24">
     <g id="line2d_51">
      <g>
       <use style="stroke:#000000;stroke-width:0.8;" x="396.66" xlink:href="#mf88a5d361e" y="211.716084"/>
      </g>
     </g>
     <g id="text_58">
      <!-- −20 -->
      <g transform="translate(376.997188 213.995615)scale(0.06 -0.06)">
       <use xlink:href="#DejaVuSans-8722"/>
       <use x="83.789062" xlink:href="#DejaVuSans-50"/>
       <use x="147.412109" xlink:href="#DejaVuSans-48"/>
      </g>
     </g>
    </g>
    <g id="ytick_25">
     <g id="line2d_52">
      <g>
       <use style="stroke:#000000;stroke-width:0.8;" x="396.66" xlink:href="#mf88a5d361e" y="196.047342"/>
      </g>
     </g>
     <g id="text_59">
      <!-- −10 -->
      <g transform="translate(376.997188 198.326874)scale(0.06 -0.06)">
       <use xlink:href="#DejaVuSans-8722"/>
       <use x="83.789062" xlink:href="#DejaVuSans-49"/>
       <use x="147.412109" xlink:href="#DejaVuSans-48"/>
      </g>
     </g>
    </g>
    <g id="ytick_26">
     <g id="line2d_53">
      <g>
       <use style="stroke:#000000;stroke-width:0.8;" x="396.66" xlink:href="#mf88a5d361e" y="180.378601"/>
      </g>
     </g>
     <g id="text_60">
      <!-- 0 -->
      <g transform="translate(385.8425 182.658132)scale(0.06 -0.06)">
       <use xlink:href="#DejaVuSans-48"/>
      </g>
     </g>
    </g>
    <g id="text_61">
     <!-- Amplitude (dB) -->
     <g transform="translate(371.333438 270.307875)rotate(-90)scale(0.08 -0.08)">
      <use xlink:href="#DejaVuSans-65"/>
      <use x="68.408203" xlink:href="#DejaVuSans-109"/>
      <use x="165.820312" xlink:href="#DejaVuSans-112"/>
      <use x="229.296875" xlink:href="#DejaVuSans-108"/>
      <use x="257.080078" xlink:href="#DejaVuSans-105"/>
      <use x="284.863281" xlink:href="#DejaVuSans-116"/>
      <use x="324.072266" xlink:href="#DejaVuSans-117"/>
      <use x="387.451172" xlink:href="#DejaVuSans-100"/>
      <use x="450.927734" xlink:href="#DejaVuSans-101"/>
      <use x="512.451172" xlink:href="#DejaVuSans-32"/>
      <use x="544.238281" xlink:href="#DejaVuSans-40"/>
      <use x="583.251953" xlink:href="#DejaVuSans-100"/>
      <use x="646.728516" xlink:href="#DejaVuSans-66"/>
      <use x="715.332031" xlink:href="#DejaVuSans-41"/>
     </g>
    </g>
   </g>
   <g id="line2d_54">
    <path clip-path="url(#p960ef4632f)" d="M 409.606364 258.943501 
L 414.784909 270.864 
L 419.963455 265.673252 
L 425.142 274.454984 
L 430.320545 271.609917 
L 435.499091 285.771857 
L 440.677636 276.597473 
L 445.856182 283.544586 
L 451.034727 288.184042 
L 456.213273 194.522937 
L 461.391818 185.088273 
L 466.570364 194.516951 
L 471.748909 265.847712 
L 476.927455 268.633084 
L 482.106 282.730178 
L 487.284545 270.162046 
L 492.463091 266.235332 
L 497.641636 262.011034 
L 502.820182 263.16728 
L 507.998727 285.419927 
L 513.177273 273.034096 
L 518.355818 261.345299 
L 523.534364 270.395614 
L 528.712909 287.672286 
L 533.891455 295.178727 
L 539.07 286.238748 
L 544.248545 282.40435 
L 549.427091 272.475577 
L 554.605636 264.546255 
L 559.784182 272.054466 
L 564.962727 270.790539 
L 570.141273 268.123635 
L 575.319818 265.998685 
L 580.498364 269.816925 
L 585.676909 263.739196 
L 590.855455 259.04747 
L 596.034 256.223875 
L 601.212545 254.863445 
L 606.391091 261.536914 
L 611.569636 269.179252 
L 616.748182 279.063957 
L 621.926727 261.478923 
L 627.105273 255.933086 
L 632.283818 255.921332 
L 637.462364 270.115795 
L 642.640909 263.400908 
L 647.819455 261.734005 
L 652.998 268.032648 
L 658.176545 275.350777 
L 663.355091 288.591567 
L 668.533636 283.351244 
" style="fill:none;stroke:#1f77b4;stroke-linecap:square;"/>
   </g>
   <g id="patch_18">
    <path d="M 396.66 300.68325 
L 396.66 179.58375 
" style="fill:none;stroke:#000000;stroke-linecap:square;stroke-linejoin:miter;stroke-width:0.8;"/>
   </g>
   <g id="patch_19">
    <path d="M 681.48 300.68325 
L 681.48 179.58375 
" style="fill:none;stroke:#000000;stroke-linecap:square;stroke-linejoin:miter;stroke-width:0.8;"/>
   </g>
   <g id="patch_20">
    <path d="M 396.66 300.68325 
L 681.48 300.68325 
" style="fill:none;stroke:#000000;stroke-linecap:square;stroke-linejoin:miter;stroke-width:0.8;"/>
   </g>
   <g id="patch_21">
    <path d="M 396.66 179.58375 
L 681.48 179.58375 
" style="fill:none;stroke:#000000;stroke-linecap:square;stroke-linejoin:miter;stroke-width:0.8;"/>
   </g>
   <g id="text_62">
    <!-- Plot 4 - Signal FFT after LPF + downsampling -->
    <g style="fill:#0000ff;" transform="translate(449.294375 173.58375)scale(0.08 -0.08)">
     <defs>
      <path d="M 9.8125 72.90625 
L 19.671875 72.90625 
L 19.671875 8.296875 
L 55.171875 8.296875 
L 55.171875 0 
L 9.8125 0 
z
" id="DejaVuSans-76"/>
      <path d="M 46 62.703125 
L 46 35.5 
L 73.1875 35.5 
L 73.1875 27.203125 
L 46 27.203125 
L 46 0 
L 37.796875 0 
L 37.796875 27.203125 
L 10.59375 27.203125 
L 10.59375 35.5 
L 37.796875 35.5 
L 37.796875 62.703125 
z
" id="DejaVuSans-43"/>
     </defs>
     <use xlink:href="#DejaVuSans-80"/>
     <use x="60.302734" xlink:href="#DejaVuSans-108"/>
     <use x="88.085938" xlink:href="#DejaVuSans-111"/>
     <use x="149.267578" xlink:href="#DejaVuSans-116"/>
     <use x="188.476562" xlink:href="#DejaVuSans-32"/>
     <use x="220.263672" xlink:href="#DejaVuSans-52"/>
     <use x="283.886719" xlink:href="#DejaVuSans-32"/>
     <use x="315.673828" xlink:href="#DejaVuSans-45"/>
     <use x="351.757812" xlink:href="#DejaVuSans-32"/>
     <use x="383.544922" xlink:href="#DejaVuSans-83"/>
     <use x="447.021484" xlink:href="#DejaVuSans-105"/>
     <use x="474.804688" xlink:href="#DejaVuSans-103"/>
     <use x="538.28125" xlink:href="#DejaVuSans-110"/>
     <use x="601.660156" xlink:href="#DejaVuSans-97"/>
     <use x="662.939453" xlink:href="#DejaVuSans-108"/>
     <use x="690.722656" xlink:href="#DejaVuSans-32"/>
     <use x="722.509766" xlink:href="#DejaVuSans-70"/>
     <use x="780.029297" xlink:href="#DejaVuSans-70"/>
     <use x="835.798828" xlink:href="#DejaVuSans-84"/>
     <use x="896.882812" xlink:href="#DejaVuSans-32"/>
     <use x="928.669922" xlink:href="#DejaVuSans-97"/>
     <use x="989.949219" xlink:href="#DejaVuSans-102"/>
     <use x="1023.404297" xlink:href="#DejaVuSans-116"/>
     <use x="1062.613281" xlink:href="#DejaVuSans-101"/>
     <use x="1124.136719" xlink:href="#DejaVuSans-114"/>
     <use x="1165.25" xlink:href="#DejaVuSans-32"/>
     <use x="1197.037109" xlink:href="#DejaVuSans-76"/>
     <use x="1252.75" xlink:href="#DejaVuSans-80"/>
     <use x="1313.052734" xlink:href="#DejaVuSans-70"/>
     <use x="1370.572266" xlink:href="#DejaVuSans-32"/>
     <use x="1402.359375" xlink:href="#DejaVuSans-43"/>
     <use x="1486.148438" xlink:href="#DejaVuSans-32"/>
     <use x="1517.935547" xlink:href="#DejaVuSans-100"/>
     <use x="1581.412109" xlink:href="#DejaVuSans-111"/>
     <use x="1642.59375" xlink:href="#DejaVuSans-119"/>
     <use x="1724.380859" xlink:href="#DejaVuSans-110"/>
     <use x="1787.759766" xlink:href="#DejaVuSans-115"/>
     <use x="1839.859375" xlink:href="#DejaVuSans-97"/>
     <use x="1901.138672" xlink:href="#DejaVuSans-109"/>
     <use x="1998.550781" xlink:href="#DejaVuSans-112"/>
     <use x="2062.027344" xlink:href="#DejaVuSans-108"/>
     <use x="2089.810547" xlink:href="#DejaVuSans-105"/>
     <use x="2117.59375" xlink:href="#DejaVuSans-110"/>
     <use x="2180.972656" xlink:href="#DejaVuSans-103"/>
    </g>
   </g>
  </g>
 </g>
 <defs>
  <clipPath id="p7967513697">
   <rect height="121.0995" width="284.82" x="55.92" y="17.442"/>
  </clipPath>
  <clipPath id="p86843e8410">
   <rect height="121.0995" width="284.82" x="396.66" y="17.442"/>
  </clipPath>
  <clipPath id="pa60811d3da">
   <rect height="121.0995" width="284.82" x="55.92" y="179.58375"/>
  </clipPath>
  <clipPath id="p960ef4632f">
   <rect height="121.0995" width="284.82" x="396.66" y="179.58375"/>
  </clipPath>
 </defs>
</svg>
