<svg width="464" height="500" xmlns="http://www.w3.org/2000/svg" xmlns:xlink="http://www.w3.org/1999/xlink" overflow="hidden"><defs><clipPath id="clip0"><rect x="151" y="156" width="464" height="500"/></clipPath></defs><g clip-path="url(#clip0)" transform="translate(-151 -156)"><path d="M0.666667-4.28868e-07 0.666767 156.533-0.666566 156.533-0.666667 4.28868e-07ZM4.0001 155.2 0.000104987 163.2-3.9999 155.2Z" transform="matrix(1 0 0 -1 160.5 328.7)"/><path d="M160.5 328.833 591.967 328.833 591.967 330.167 160.5 330.167ZM590.633 325.5 598.633 329.5 590.633 333.5Z"/><path d="M162.5 210.5 331.507 210.5" stroke="#000000" stroke-width="1.33333" stroke-miterlimit="8" stroke-dasharray="5.33333 4" fill="none" fill-rule="evenodd"/><text font-family="Cambria Math,Cambria Math_MSFontService,sans-serif" font-weight="400" font-size="16" transform="translate(312.795 370)">ğ¹ğ‘ <tspan font-size="16" x="4.32666" y="23">2</tspan></text><path d="M312.542 377.054 329.542 377.054 329.542 378.054 312.542 378.054Z" fill-rule="evenodd"/><text font-family="Cambria Math,Cambria Math_MSFontService,sans-serif" font-weight="400" font-size="16" transform="translate(334.735 382)">=<tspan font-size="16" x="16.4467" y="0">500ğ»ğ‘§</tspan><tspan font-size="16" x="135.141" y="-7">ğ¹</tspan><tspan font-size="12" x="141.848" y="-3">ğ‘ </tspan><tspan font-size="16" x="152.868" y="-7">=</tspan><tspan font-size="16" x="169.314" y="-7">1ğ‘˜ğ»ğ‘§</tspan></text><path d="M506.5 323.5 506.5 360.628" stroke="#000000" stroke-width="0.666667" stroke-miterlimit="8" fill="none" fill-rule="evenodd"/><path d="M336.5 328.5 336.5 363.723" stroke="#000000" stroke-width="0.666667" stroke-miterlimit="8" fill="none" fill-rule="evenodd"/><path d="M331.5 210.5 337.399 330.633" stroke="#000000" stroke-width="1.33333" stroke-miterlimit="8" stroke-dasharray="5.33333 4" fill="none" fill-rule="evenodd"/><path d="M0 0 5.8989 120.133" stroke="#000000" stroke-width="1.33333" stroke-miterlimit="8" stroke-dasharray="5.33333 4" fill="none" fill-rule="evenodd" transform="matrix(-1 0 0 1 343.399 210.5)"/><path d="M500.5 210.5 506.399 330.633" stroke="#000000" stroke-width="1.33333" stroke-miterlimit="8" stroke-dasharray="5.33333 4" fill="none" fill-rule="evenodd"/><path d="M0 0 5.8989 120.133" stroke="#000000" stroke-width="1.33333" stroke-miterlimit="8" stroke-dasharray="5.33333 4" fill="none" fill-rule="evenodd" transform="matrix(-1 0 0 1 512.399 210.5)"/><path d="M343.5 210.5 500.211 210.5" stroke="#000000" stroke-width="1.33333" stroke-miterlimit="8" stroke-dasharray="5.33333 4" fill="none" fill-rule="evenodd"/><path d="M512.5 210.5 578.969 210.5" stroke="#000000" stroke-width="1.33333" stroke-miterlimit="8" stroke-dasharray="5.33333 4" fill="none" fill-rule="evenodd"/><path d="M1.5-1.81801e-06 1.5001 79.1224-1.4999 79.1224-1.5 1.81801e-06ZM4.50009 77.6224 0.000104987 86.6224-4.49991 77.6224Z" fill="#4472C4" transform="matrix(1 0 0 -1 184.5 329.122)"/><path d="M1.5-1.81801e-06 1.5001 79.1224-1.4999 79.1224-1.5 1.81801e-06ZM4.50009 77.6224 0.000104987 86.6224-4.49991 77.6224Z" fill="#ED7D31" transform="matrix(1 0 0 -1 410.5 328.122)"/><text font-family="Cambria Math,Cambria Math_MSFontService,sans-serif" font-weight="400" font-size="16" transform="translate(156.573 349)">100ğ»ğ‘§<tspan font-size="16" x="232.465" y="-5">700ğ»ğ‘§</tspan><tspan font-family="Calibri,Calibri_MSFontService,sans-serif" font-size="19" x="41.8762" y="-170">1st </tspan><tspan font-family="Calibri,Calibri_MSFontService,sans-serif" font-size="19" x="69.0028" y="-170">Nyquist</tspan><tspan font-family="Calibri,Calibri_MSFontService,sans-serif" font-size="19" x="66.3495" y="-147">zone</tspan><tspan font-family="Calibri,Calibri_MSFontService,sans-serif" font-size="19" x="216.587" y="-170">2nd </tspan><tspan font-family="Calibri,Calibri_MSFontService,sans-serif" font-size="19" x="249.92" y="-170">Nyquist</tspan><tspan font-family="Calibri,Calibri_MSFontService,sans-serif" font-size="19" x="244.167" y="-147">zone</tspan><tspan font-family="Calibri,Calibri_MSFontService,sans-serif" font-size="19" x="358.512" y="-170">3rd </tspan><tspan font-family="Calibri,Calibri_MSFontService,sans-serif" font-size="19" x="388.258" y="-170">Nyquist</tspan><tspan font-family="Calibri,Calibri_MSFontService,sans-serif" font-size="19" x="384.298" y="-147">zone</tspan></text><path d="M1.5-1.81801e-06 1.5001 79.1224-1.4999 79.1224-1.5 1.81801e-06ZM4.50009 77.6224 0.000104987 86.6224-4.49991 77.6224Z" fill="#F4B183" transform="matrix(1 0 0 -1 255.5 328.122)"/><text font-family="Cambria Math,Cambria Math_MSFontService,sans-serif" font-weight="400" font-size="16" transform="translate(232.062 349)">3<tspan font-size="16" x="8.83334" y="0">00ğ»ğ‘§</tspan></text><path d="M412.5 446.5 418.399 566.633" stroke="#000000" stroke-width="1.33333" stroke-miterlimit="8" stroke-dasharray="5.33333 4" fill="none" fill-rule="evenodd"/><path d="M0 0 5.8989 120.133" stroke="#000000" stroke-width="1.33333" stroke-miterlimit="8" stroke-dasharray="5.33333 4" fill="none" fill-rule="evenodd" transform="matrix(-1 0 0 1 425.399 446.5)"/><path d="M582.5 446.5 588.399 566.633" stroke="#000000" stroke-width="1.33333" stroke-miterlimit="8" stroke-dasharray="5.33333 4" fill="none" fill-rule="evenodd"/><path d="M0 0 5.8989 120.133" stroke="#000000" stroke-width="1.33333" stroke-miterlimit="8" stroke-dasharray="5.33333 4" fill="none" fill-rule="evenodd" transform="matrix(-1 0 0 1 594.399 446.5)"/><path d="M425.5 446.5 582.211 446.5" stroke="#000000" stroke-width="1.33333" stroke-miterlimit="8" stroke-dasharray="5.33333 4" fill="none" fill-rule="evenodd"/><path d="M1.5-1.81801e-06 1.5001 79.1224-1.4999 79.1224-1.5 1.81801e-06ZM4.50009 77.6224 0.000104987 86.6224-4.49991 77.6224Z" fill="#ED7D31" transform="matrix(1 0 0 -1 492.5 564.122)"/><text font-family="Cambria Math,Cambria Math_MSFontService,sans-serif" font-weight="400" font-size="16" transform="translate(470.841 580)">700ğ»ğ‘§</text><path d="M428.167 512.167 484.503 512.167 484.503 512.833 428.167 512.833ZM429.5 516.5 421.5 512.5 429.5 508.5ZM483.169 508.5 491.169 512.5 483.169 516.5Z"/><path d="M502.167 512.167 575.328 512.167 575.328 512.833 502.167 512.833ZM503.5 516.5 495.5 512.5 503.5 508.5ZM573.995 508.5 581.995 512.5 573.995 516.5Z"/><text font-family="Cambria Math,Cambria Math_MSFontService,sans-serif" font-weight="400" font-size="16" transform="translate(436.841 508)">200ğ»ğ‘§<tspan font-size="16" x="83.3748" y="2">300ğ»ğ‘§</tspan></text><path d="M438.307 424.932 447.691 421.77 426.831 359.854 445.599 353.531 466.46 415.447 475.844 412.285 463.399 437.377Z" fill="#595959" fill-rule="evenodd"/><path d="M378 514 378 456 403 514Z" fill="#5B9BD5" fill-rule="evenodd"/><path d="M0 58 0 0 25 58Z" fill="#D0CECE" fill-rule="evenodd" transform="matrix(-1 0 0 1 371 456)"/><text fill="#0070C0" font-family="Calibri,Calibri_MSFontService,sans-serif" font-weight="400" font-size="19" transform="translate(361.192 571)">Flip<tspan font-size="19" x="8.83331" y="23">+</tspan><tspan font-size="19" x="-31.0334" y="45">Translate to </tspan><tspan font-size="19" x="-23" y="68">[0,500Hz]</tspan></text><path d="M156.5 446.5 162.399 566.633" stroke="#000000" stroke-width="1.33333" stroke-miterlimit="8" stroke-dasharray="5.33333 4" fill="none" fill-rule="evenodd"/><path d="M0 0 5.8989 120.133" stroke="#000000" stroke-width="1.33333" stroke-miterlimit="8" stroke-dasharray="5.33333 4" fill="none" fill-rule="evenodd" transform="matrix(-1 0 0 1 170.399 446.5)"/><path d="M325.5 446.5 331.399 566.633" stroke="#000000" stroke-width="1.33333" stroke-miterlimit="8" stroke-dasharray="5.33333 4" fill="none" fill-rule="evenodd"/><path d="M0 0 5.8989 120.133" stroke="#000000" stroke-width="1.33333" stroke-miterlimit="8" stroke-dasharray="5.33333 4" fill="none" fill-rule="evenodd" transform="matrix(-1 0 0 1 338.399 446.5)"/><path d="M169.5 446.5 326.211 446.5" stroke="#000000" stroke-width="1.33333" stroke-miterlimit="8" stroke-dasharray="5.33333 4" fill="none" fill-rule="evenodd"/><path d="M264.167 514.167 320.503 514.167 320.503 514.833 264.167 514.833ZM265.5 518.5 257.5 514.5 265.5 510.5ZM319.169 510.5 327.169 514.5 319.169 518.5Z"/><path d="M173.167 514.167 246.328 514.167 246.328 514.833 173.167 514.833ZM174.5 518.5 166.5 514.5 174.5 510.5ZM244.995 510.5 252.995 514.5 244.995 518.5Z"/><text font-family="Cambria Math,Cambria Math_MSFontService,sans-serif" font-weight="400" font-size="16" transform="translate(268.701 511)">200ğ»ğ‘§<tspan font-size="16" x="-77.1113" y="1">300ğ»ğ‘§</tspan></text><path d="M1.5-1.81801e-06 1.5001 79.1224-1.4999 79.1224-1.5 1.81801e-06ZM4.50009 77.6224 0.000104987 86.6224-4.49991 77.6224Z" fill="#F4B183" transform="matrix(1 0 0 -1 254.5 564.122)"/><text font-family="Cambria Math,Cambria Math_MSFontService,sans-serif" font-weight="400" font-size="16" transform="translate(232.204 578)">300ğ»ğ‘§</text><path d="M242.763 387.539 234.291 382.776 202.094 440.05 185.151 430.525 217.348 373.251 208.876 368.489 235.344 361.071Z" fill="#595959" fill-rule="evenodd"/><text fill="#FFFFFF" font-family="Calibri,Calibri_MSFontService,sans-serif" font-weight="400" font-size="24" transform="translate(442.509 400)">1<tspan font-size="24" x="-234.571" y="6">3</tspan></text><path d="M359.5 516 359.5 525.25 401 525.25 401 543.75 359.5 543.75 359.5 553 341 534.5Z" fill="#595959" fill-rule="evenodd"/><text fill="#FFFFFF" font-family="Calibri,Calibri_MSFontService,sans-serif" font-weight="400" font-size="24" transform="translate(368.91 542)">2</text></g></svg>