<svg width="518.453" height="153.36" xmlns="http://www.w3.org/2000/svg" xmlns:xlink="http://www.w3.org/1999/xlink" id="svg2" overflow="hidden"><defs id="defs4"><linearGradient id="linearGradient2795"><stop offset="0" stop-color="#B8B8B8" stop-opacity="0.498039"/><stop offset="1" stop-color="#7F7F7F" stop-opacity="0"/></linearGradient><linearGradient id="linearGradient2787"><stop offset="0" stop-color="#7F7F7F" stop-opacity="0.5"/><stop offset="1" stop-color="#7F7F7F" stop-opacity="0"/></linearGradient><linearGradient id="linearGradient3676"><stop offset="0" stop-color="#B2B2B2" stop-opacity="0.5"/><stop offset="1" stop-color="#B3B3B3" stop-opacity="0"/></linearGradient><linearGradient id="linearGradient3236"><stop offset="0" stop-color="#F4F4F4"/><stop offset="1" stop-color="#FFFFFF"/></linearGradient><linearGradient id="linearGradient4671"><stop offset="0" stop-color="#FFD43B"/><stop offset="1" stop-color="#FFE873"/></linearGradient><linearGradient id="linearGradient4689"><stop offset="0" stop-color="#5A9FD4"/><stop offset="1" stop-color="#306998"/></linearGradient><linearGradient x1="224.24" y1="144.757" x2="-65.3085" y2="144.757" gradientUnits="userSpaceOnUse" xlink:href="#linearGradient4671" id="linearGradient2987" gradientTransform="translate(100.27 99.6112)"></linearGradient><linearGradient x1="172.942" y1="77.476" x2="26.6703" y2="76.3131" gradientUnits="userSpaceOnUse" xlink:href="#linearGradient4689" id="linearGradient2990" gradientTransform="translate(100.27 99.6112)"></linearGradient><linearGradient x1="172.942" y1="77.476" x2="26.6703" y2="76.3131" gradientUnits="userSpaceOnUse" xlink:href="#linearGradient4689" id="linearGradient2587" gradientTransform="translate(100.27 99.6112)"></linearGradient><linearGradient x1="224.24" y1="144.757" x2="-65.3085" y2="144.757" gradientUnits="userSpaceOnUse" xlink:href="#linearGradient4671" id="linearGradient2589" gradientTransform="translate(100.27 99.6112)"></linearGradient><linearGradient x1="172.942" y1="77.476" x2="26.6703" y2="76.3131" gradientUnits="userSpaceOnUse" xlink:href="#linearGradient4689" id="linearGradient2248" gradientTransform="translate(100.27 99.6112)"></linearGradient><linearGradient x1="224.24" y1="144.757" x2="-65.3085" y2="144.757" gradientUnits="userSpaceOnUse" xlink:href="#linearGradient4671" id="linearGradient2250" gradientTransform="translate(100.27 99.6112)"></linearGradient><linearGradient x1="224.24" y1="144.757" x2="-65.3085" y2="144.757" gradientUnits="userSpaceOnUse" xlink:href="#linearGradient4671" id="linearGradient2255" gradientTransform="matrix(0.562541 0 0 0.567972 -11.5974 -7.60954)"></linearGradient><linearGradient x1="172.942" y1="76.1762" x2="26.6703" y2="76.3131" gradientUnits="userSpaceOnUse" xlink:href="#linearGradient4689" id="linearGradient2258" gradientTransform="matrix(0.562541 0 0 0.567972 -11.5974 -7.60954)"></linearGradient><radialGradient cx="61.5189" cy="132.286" r="29.0369" fx="61.5189" fy="132.286" gradientUnits="userSpaceOnUse" xlink:href="#linearGradient2795" id="radialGradient2801" gradientTransform="matrix(1 0 0 0.177966 0 108.743)"></radialGradient><linearGradient x1="150.961" y1="192.352" x2="112.031" y2="137.273" gradientUnits="userSpaceOnUse" xlink:href="#linearGradient4671" id="linearGradient1475" gradientTransform="matrix(0.562541 0 0 0.567972 -9.39975 -5.30532)"></linearGradient><linearGradient x1="26.6489" y1="20.6038" x2="135.665" y2="114.398" gradientUnits="userSpaceOnUse" xlink:href="#linearGradient4689" id="linearGradient1478" gradientTransform="matrix(0.562541 0 0 0.567972 -9.39975 -5.30532)"></linearGradient><radialGradient cx="61.5189" cy="132.286" r="29.0369" fx="61.5189" fy="132.286" gradientUnits="userSpaceOnUse" xlink:href="#linearGradient2795" id="radialGradient1480" gradientTransform="matrix(2.38272e-08 -0.296405 1.43676 4.68367e-07 -128.544 150.52)"></radialGradient></defs><g id="g2303"><path d="M184.613 61.9294C184.613 47.3672 180.461 39.8912 172.157 39.4818 168.852 39.3259 165.626 39.8522 162.488 41.0706 159.983 41.9673 158.296 42.8543 157.409 43.751L157.409 78.5092C162.721 81.8427 167.439 83.3925 171.552 83.1488 180.256 82.5737 184.613 75.5071 184.613 61.9294ZM194.858 62.5337C194.858 69.9317 193.123 76.0724 189.633 80.9557 185.744 86.4823 180.354 89.3284 173.463 89.4844 168.268 89.6501 162.916 88.0223 157.409 84.6108L157.409 116.201 148.5 113.024 148.5 42.903C149.963 41.1096 151.844 39.5695 154.125 38.2634 159.427 35.1736 165.87 33.5848 173.453 33.5069L173.58 33.6336C180.51 33.5458 185.851 36.392 189.604 42.1623 193.103 47.4549 194.858 54.2389 194.858 62.5337Z" id="path46" fill="#646464"/><path d="M249.305 83.2657C249.305 93.1883 248.311 100.06 246.322 103.881 244.324 107.702 240.523 110.753 234.908 113.024 230.357 114.817 225.434 115.792 220.151 115.957L218.68 110.343C224.05 109.612 227.832 108.881 230.025 108.15 234.343 106.688 237.306 104.446 238.934 101.444 240.24 98.9975 240.883 94.3287 240.883 87.418L240.883 85.0982C234.791 87.8664 228.407 89.2407 221.73 89.2407 217.344 89.2407 213.475 87.8664 210.141 85.0982 206.398 82.0863 204.527 78.2655 204.527 73.6356L204.527 36.5577 213.436 33.5069 213.436 70.8285C213.436 74.815 214.722 77.8854 217.295 80.0395 219.869 82.1936 223.202 83.2268 227.286 83.1488 231.37 83.0611 235.747 81.482 240.396 78.3922L240.396 34.852 249.305 34.852 249.305 83.2657Z" id="path48" fill="#646464"/><path d="M284.082 88.997C283.02 89.0848 282.045 89.1237 281.149 89.1237 276.109 89.1237 272.181 87.9249 269.374 85.5173 266.577 83.1098 265.173 79.786 265.173 75.5461L265.173 40.4565 259.071 40.4565 259.071 34.852 265.173 34.852 265.173 19.9681 274.072 16.8003 274.072 34.852 284.082 34.852 284.082 40.4565 274.072 40.4565 274.072 75.3024C274.072 78.6456 274.969 81.0142 276.762 82.3983 278.302 83.5387 280.749 84.1917 284.082 84.3574L284.082 88.997Z" id="path50" fill="#646464"/><path d="M338.023 88.266 329.114 88.266 329.114 53.8783C329.114 50.3791 328.295 47.3672 326.668 44.8525 324.786 42.0063 322.174 40.5832 318.821 40.5832 314.737 40.5832 309.63 42.7373 303.499 47.0456L303.499 88.266 294.59 88.266 294.59 6.06879 303.499 3.26163 303.499 40.7002C309.191 36.5577 315.41 34.4816 322.164 34.4816 326.882 34.4816 330.703 36.0703 333.627 39.2381 336.561 42.4059 338.023 46.3535 338.023 51.0711L338.023 88.266 338.023 88.266Z" id="path52" fill="#646464"/><path d="M385.374 60.5258C385.374 54.931 384.312 50.3108 382.197 46.6557 379.682 42.2013 375.773 39.8522 370.49 39.6085 360.724 40.1739 355.85 47.1723 355.85 60.5843 355.85 66.7347 356.864 71.8714 358.911 75.9944 361.523 81.2481 365.441 83.8408 370.666 83.7531 380.471 83.6751 385.374 75.9359 385.374 60.5258ZM395.131 60.5843C395.131 68.5476 393.094 75.1757 389.029 80.4683 384.556 86.3946 378.376 89.3674 370.49 89.3674 362.673 89.3674 356.581 86.3946 352.185 80.4683 348.199 75.1757 346.21 68.5476 346.21 60.5843 346.21 53.0985 348.365 46.8019 352.673 41.6749 357.225 36.236 363.209 33.5069 370.607 33.5069 378.005 33.5069 384.029 36.236 388.669 41.6749 392.977 46.8019 395.131 53.0985 395.131 60.5843Z" id="path54" fill="#646464"/><path d="M446.206 88.266 437.297 88.266 437.297 51.9289C437.297 47.9423 436.098 44.833 433.7 42.5911 431.303 40.3591 428.105 39.2771 424.119 39.3649 419.889 39.4428 415.863 40.8269 412.042 43.5074L412.042 88.266 403.133 88.266 403.133 42.4059C408.26 38.6728 412.978 36.236 417.286 35.0956 421.351 34.0332 424.938 33.5069 428.028 33.5069 430.143 33.5069 432.131 33.7115 434.002 34.1209 437.502 34.9299 440.348 36.431 442.541 38.6338 444.987 41.0706 446.206 43.9947 446.206 47.4159L446.206 88.266Z" id="path56" fill="#646464"/><path d="M60.5102 6.39797C55.9265 6.41927 51.5492 6.81019 47.6977 7.49172 36.3514 9.49623 34.2914 13.6918 34.2914 21.4292L34.2914 31.648 61.1039 31.648 61.1039 35.0542 34.2914 35.0542 24.2289 35.0542C16.4364 35.0542 9.61315 39.7379 7.47891 48.648 5.01709 58.8609 4.90789 65.234 7.47891 75.898 9.38483 83.8358 13.9364 89.4917 21.7289 89.4917L30.9477 89.4917 30.9477 77.2417C30.9477 68.3918 38.6048 60.5855 47.6977 60.5855L74.4789 60.5855C81.9339 60.5855 87.8852 54.4473 87.8852 46.9605L87.8852 21.4292C87.8852 14.1629 81.7552 8.70445 74.4789 7.49172 69.8729 6.725 65.0938 6.37667 60.5102 6.39797ZM46.0102 14.6167C48.7797 14.6167 51.0414 16.9154 51.0414 19.7417 51.0414 22.5581 48.7797 24.8355 46.0102 24.8355 43.2307 24.8355 40.9789 22.5581 40.9789 19.7417 40.9789 16.9154 43.2307 14.6167 46.0102 14.6167Z" id="path1948" fill="url(#linearGradient1478)"/><path d="M91.2289 35.0542 91.2289 46.9605C91.2289 56.1912 83.403 63.9605 74.4789 63.9605L47.6977 63.9605C40.3618 63.9605 34.2914 70.239 34.2914 77.5855L34.2914 103.117C34.2914 110.383 40.61 114.657 47.6977 116.742 56.185 119.237 64.3239 119.688 74.4789 116.742 81.2291 114.787 87.8852 110.854 87.8852 103.117L87.8852 92.898 61.1039 92.898 61.1039 89.4917 87.8852 89.4917 101.291 89.4917C109.084 89.4917 111.988 84.0563 114.698 75.898 117.497 67.4991 117.378 59.4222 114.698 48.648 112.772 40.8905 109.094 35.0542 101.291 35.0542L91.2289 35.0542ZM76.1664 99.7105C78.9459 99.7105 81.1977 101.988 81.1977 104.804 81.1977 107.631 78.9459 109.929 76.1664 109.929 73.3969 109.929 71.1352 107.631 71.1352 104.804 71.1352 101.988 73.3969 99.7105 76.1664 99.7105Z" id="path1950" fill="url(#linearGradient1475)"/><path d="M463.554 26.9094 465.116 26.9094 465.116 17.1131 468.816 17.1131 468.816 15.9455 459.854 15.9455 459.854 17.1131 463.554 17.1131 463.554 26.9094M470.201 26.9094 471.536 26.9094 471.536 17.9624 474.432 26.9083 475.918 26.9083 478.936 17.9927 478.936 26.9094 480.392 26.9094 480.392 15.9455 478.466 15.9455 475.168 25.3383 472.355 15.9455 470.201 15.9455 470.201 26.9094" id="text3004" fill="#646464" font-family="Bitstream Vera Sans" font-weight="400" font-size="15.1645"/><path d="M110.467 132.286C110.467 137.039 88.5523 140.892 61.5189 140.892 34.4855 140.892 12.5706 137.039 12.5706 132.286 12.5706 127.532 34.4855 123.679 61.5189 123.679 88.5523 123.679 110.467 127.532 110.467 132.286Z" id="path1894" stroke-width="20" fill="url(#radialGradient1480)" opacity="0.44382" transform="matrix(0.73406 0 0 0.809524 16.2496 27.0094)"/></g></svg>